<svg xmlns="http://www.w3.org/2000/svg" xmlns:xlink="http://www.w3.org/1999/xlink" width="1000" height="410"><defs><path id="a" d="M136.4 19.7c-2.8-.1-5.4.4-7.9 1.5.5.5 1.1 1 1.9 1.3 2.5 1.4 5.5 1.9 8.7 1.4 2.6.2 5.2.7 7.7 1.4.5.2.9.5 1.2 1 1.1 2.9 3.2 4.4 6 5-.3.2-.5.5-.8 1 0 0 .1.1.2.1.2.2.5.4.7.5.2.2.3.4.3.7-2.9 1.2-3.3 3.1-1.4 5.4l.9 1.2c1 1.9 2.5 3.1 4.4 3.9 2.5.9 5.2 1.8 7.7 2.5 1.3-1.6 2.4-3.4 3.3-5.4.3-.8.9-1.2 1.5-1.5 1.8-1 3.6-1.8 5.7-2.4 1-.3 2-.7 3-.9 4.5-.3 8.6-1.7 12.5-4l-.1-1.3c-1.9-.4-3.2-1.2-4-2.2l4.7-1 .4-.9 1.9-.2c.1-.2.2-.3.2-.5.2-.5 0-1.1-.4-1.5.5-.1.9-.2 1.4-.3 1.1-.3 1.7-1.1 1.7-2.2l-2.4-.3.2-.8 1.2-.7-.9-1c2.2.2 4-.4 5.4-2.1l-.6-.3c-3.4.1-6.9.6-10.3 1.3l-.9-1.1c-9.2-.4-18.1-.9-27.1-.8-.7.2-1.5.2-2.2.2-2.2.3-4.3.4-6.4.3-1.8-.1-3.5 0-5.2.2-4.3.9-8.6 1.2-13 1.1l.8 1.4zM233 68.6l-.1.4 1.3.9.2-1.5c-.6-.1-1.1 0-1.4.2zm-36.8-31.1-.6.6c-1.4-.9-3-1.1-4.6-.7-.8 1.3-.4 2.5 1 3.5 2.1 1.5 4.3 1.8 6.9.9.7-.2 1.2-.4 1.8-.9 2.1-1.4 1.9-2.5-.3-3.5l-4.2.1zM242.1 77l.2-2-.4-.7-3.6.3 3.1 2.2.7.2zm26.3 1.2-1-.2-2.1.2.1.7c1.1.2 2.1 0 3-.7zM122.1 29c-1.5-.5-3.2-1-4.8-1.2-3.3-.4-6.7-.4-10 .1-1.6-.1-2.6.6-3.3 2.2-.1.2-.1.4-.1.7 4.3.9 8.8 1.2 13.2 1.1 3.1-.2 5.7.7 8 2.9l-.1.6-1.2.9-3.3-.5-1.9 2.5.4.6c4.3-.2 8.4.3 12.2 1.9.8.2 1.4.3 2.2.4 1.2-.2 2.3-.5 3.3-1.1l.1-.7-3.1-2.3c2.2.1 4.3-.2 6.3-.9-5.8-3-11.9-5.3-17.9-7.2zm134 48.8-3.5-.2.4 1.1 3.2-.1-.1-.8zM148.5 58.4c.2-.3.2-.9.2-1.3h-1.2l-3.7 5.7c3 1.2 6 1.3 9 .5-.5-2.2-1.9-3.6-4.1-4-.2-.1-.4-.3-.6-.4v-.2c.2.2.3-.1.4-.3zM88.9 22.2c2 .9 3.6.7 5.2-.4-1.5-.8-3-1.1-4.8-.9-.4.2-.7.6-.5 1.1-.1 0 0 .1.1.2zm.3 3.3c1.9.2 3.6.2 5.4-.4 1.3 1 2.5 1.2 3.7.5v-.3c0-1.2.6-2.1 1.4-2.6-.8-1.3-1.9-1.9-3.3-1.9l-.6 1.5-.2 1.2c-1.7.1-3.3.3-5 .7-.3.1-.8 0-1-.2-1.9-.9-3.1-.5-3.4 1.2.1.1.3.2.5.3.9.2 1.6.2 2.5 0zm20.5 14-.1 1.6-.9 1.1c1.2.2 2.4.4 3.6.7.8-.8 1.8-1 2.9-1 .8.2 1.5.2 2.3.2l-.3-.7c-2.4-1.1-4.8-1.9-7.4-2.3l-.1.4zm-.8-18.7c-.1-.2-.1-.3-.2-.5-.3-.7-.8-1-1.5-1-2.5-.9-5-.7-7.3.4l.1 1.2c2.9 1.4 5.8 1.4 8.9-.1zM91.3 30.9c.6 0 1.1-.1 1.7-.2l.2-1.5-1.2-.4 1.2-.8c-1.3-.4-2.5-.5-4-.5-.2 0-.4.2-.7.2l.2 1.3-1.9.4c1.3 1.1 2.8 1.5 4.5 1.5zm23.7-4.8.2-.3c-.3-.6-.8-.8-1.3-.8-4.3-.1-8.8-.2-13.2-.2.3.3.6.5 1 .7 4.3 1.5 8.7 1.7 13.3.6zm-17.8 1.7c-1.3.9-1.5 1.8-.9 2.4l1.2-.1c.2-.1.3-.2.4-.3 1.7-.1 3-.8 4-1.9l-2-.4c-1-.3-2-.2-2.7.3zm10.2-3.9c.6.4 1.3.7 2.2.5.7-.2 1.3-.2 2.1 0 3 .4 5.6-.3 8.1-2 .5-.3 1.1-.7 1.8-.9 5-1.4 9.9-3 15-4.3l-4.4-.2c-2.3.2-4.6.2-6.9-.2-5.7-.1-11.2.5-16.4 1.9l.9 2.9-2.4 2.3zm223.1 90.9v-.4l-2.5-3.3c-.9.9-1.2 1.9-1.2 3 0 1.2.6 2.1 1.7 2.4l2-1.7zm-97.4-41.2 1.7-.7.2-1.7-.3-.5h-1.8c-.4.9-.1 1.9.2 2.9zm74.1-54.7-3.2.9 3.2.2v-1.1zm-3.3-.3c-1.5-.5-3-.2-3.9 1.1-.2.2-.3.2-.4.4 1.8.6 3.3.1 4.3-1.5zm-23.4 136.6c.3 1.5 1.2 2.1 3 1.6 1.4-1.6 2.2-3.6 2.6-5.6.7-3.3 1.2-6.5 1.6-9.8.1-.9-.3-1.5-1.1-1.8l-7.3 6.9c.6 2 .8 4 .7 6.1.1 1 .2 1.8.5 2.6zm-71-97.6c1.5-.2 2.8-.7 3.9-1.3 0-.2 0-.3.1-.5.2-1.2.4-2.2.6-2.9l-2.5-.6-.5.1-.7 1.2-2.1.5v.5c.1.6 0 1-.2 1.4-.4.5-.4 1-.2 1.4.4.4 1.1.4 1.6.2zm8.2-3-2.1.8-.9 2.1.5.9-.4 1.4 8-1.9 1-2.2c-3-1.1-4.4-3-4.6-5.7 0-.4.1-.8.2-1.1l-2.1-.5-.7-.9-.4-.1c-1.4.7-2.1 1.9-2.1 3.5.8 1.6 1.9 2.8 3.6 3.7zm80.8-35.5h-2l-.4-.3c-1.2 0-2.2.1-3.2.5v.2c1.9.2 3.9.4 5.5.4l.1-.8zM290.2 31l10.1.8-.2-.4c-1.4-.1-2.8-.8-3.7-1.9 1.5-2.1 3.6-3.3 6.6-3.6 3-.2 5.7-.4 8.6-1-.1-.2-.2-.4-.5-.4-5.5 0-10.9.7-16.2 2.1-1.5.4-2.9 1.3-3.7 2.8-.6.4-.7 1-1 1.6zm-51.6-9.2 5.7 1.4 1.4-1.1 6.3.1-1.4-.9c1.6.2 3-.1 3.9-1-2.5-.8-5.2-1-7.8-.6l-.9 1.1-1.2-.2-.9 1-1.6-.1-.1-.2c.2-.1.2-.1.5-.2l.2-.6-1.1-.5-1.6.9-1.5-.5-.4.1-.2.4.2.6.5.3zm53-1.7c-.2-.1-.2-.2-.3-.2-3.2-1.1-6.2-1.2-9.1-.6 3 .9 6.2 1.2 9.4.8zM124.9 97.9l-1.9-1.5c-1-.5-2.1-1-3.1-1.5-2.9-1.4-5.4-1.3-7.7.2v.7c.9.5 1.8.5 2.5.2 2.5-1.1 4.3-.4 5 2.1 2 .7 3.7.7 5.2-.2zM19 48.1l4-2.1-1.4 1.6.5 1.1 6.3-1.6-.1-1.2.9-.6c5.4 2 11 3 16.7 2.6l1.9 3.4-.7 1.2 1.1 1.1.9-1.2 5.3 5.4-.9 1 4.6 2.4 1.6 11.1 1.2.2c3.6 4.9 7.4 9.9 11.4 14.9l-.5.6 8.5 8.2-.4-1.9c-4-3.3-7.1-7.1-9.8-11.5l2.2.9c1.4 3.1 3.5 5.5 6.4 7.3l-.5.4 5.6 4.6.7 2.1 6 2.6.5 1.3 6.9 2.3.6-1h1.1c2.2 1.8 4.6 3.3 7 4.6.8.3 1.3 1 1.9 1.9 1.2 2.2 3 3.9 5.3 4.7 1.9.9 4 .9 6 .1l1.2.3.1 4.9-1 1.4-.9.3c-1.3 2-2.2 4.2-2.9 6.4l1.5.4-.1.8-1.8.7-.4.5c2.5 3.9 5 7.8 7.4 11.9 1.6 3 4 5 7 6.1-.2 3.7-.4 7.5-.9 11.2l-.9.6c.4 3.6.2 7-.9 10.6l-.9.5v1.3l-.9.2c-.1 1.2.1 2.5.5 3.7.2.8.4 1.5.4 2.3l.6.7-.2.9-1.1.1-.5.3c.9 1.5.9 3 0 4.3l-1.1.3v2l1.3 1.4-.4 1.2.2.7 1.2.2.2.2.2 2.2 2.2 1.7 1.8-.7c2.5 2 5.3 2.4 8.4 1.2l-.1-.4-4.1-1.9.3-1.9-1.8-.4-.3-.6.3-.7c2.1-.9 3.5-2.2 4.2-4.3-1.4.2-2.4-.4-3.1-1.6-.1-.1-.1-.2-.2-.4l2.2-.7.4-2 2.1-1.3-.5-.9c-1.3.2-2.2-.4-2.9-1.6l4.8-.2c.3-.8.3-1.5-.1-2.2 2.1.3 4 .2 5.9-.1 1.5-.3 2.3-1.3 2.5-3-.8-.5-1.1-1.3-1.2-2.2l-.9-1c1.2.9 2.2.9 3.3.2 2.1-1.3 4.2-2.9 6.1-4.4 1.4-1.1 2.3-2.5 3-4 .2-.9.2-1.6-.1-2.6 2.5-1.2 5.1-2.4 7.7-3.6.7-.4 1.2-.8 1.7-1.3 1.3-1.5 2.2-3.3 2.4-5.1.2-.8.2-1.5.3-2.2.4-2.9 1.8-5.2 4-6.9.4-.4.8-1 .9-1.5.2-3-1.1-5.2-4.2-6.5-.7-.2-1.3-.7-2-1l-1.6-.6h-4l-.5.8-.6-.3.2-1.4c-.9-1.3-2-1.9-3.6-1.9h-.6l.2.9-.5.6-.4-.2.2-1.6-.2-.3-.6-.3c-1.2.3-2.2.9-3 2l-.4-.8.2-.9c.9-.1 1.5-.5 1.9-1.2-.9-3.7-3.3-6.2-6.7-7.4-.3-.1-.8-.1-1.2 0-1.5-.2-2.6-.9-3.6-2.2-1.5-2-3.3-3.3-5.6-3.7-.9-.2-1.8-.1-2.6.2l-.2-2.2-.6-.3-.4.2-1.2 1.4c-1-.2-1.9-.9-2.6-1.8-1.5.7-2.4 1.8-2.9 3.3-.5-1.3-.3-2.5.6-3.8-1.4.4-2.9.9-4.2 1.4-.5.3-1.1.6-1.6.7-.1 1.2-.8 2.4-1.8 3.3l.2 1.2-2 .6 1.1-.7.1-.4c-2.6-.2-5.3-.9-7.9-1.8-.2-.1-.3-.3-.2-.6.1-1.2.2-2.3.4-3.6.1-1 .1-2.1-.2-3.1-1.9-.9-3.9-1.4-5.8-1.5l2.5-6.7-.3-.3c-3.1-.8-5.2.1-6.3 2.5-.2.5-.6.9-.9 1.2-2.3 1.2-4.4.9-6.4-1.3-2.4-2.8-2.6-5.7-.8-8.8.6-1 1.3-1.6 2.3-2.1 1.5-.9 3.4-1.2 5.2-.8l.3.4 1.3-.1.1-1.4h5.2l.3.8 1.2.2.2-.4.9-.2c.7 1.6 1.2 3.3 1.9 4.9.9 1.2 1.9 1.7 3.3 1.5.3-3.1-.2-6-1.7-8.8l2.8-2 .4-.9c1.9-.6 3.5-1.5 4.9-3-1.1-1.1-1.4-2.2-.9-3.5l1.2-.2.3-1.5c2.3.2 4.5-.4 6.5-1.5l-1.2-.9-.1-.9c.9-.5 1.4-1.2 1.5-2.2l3.7-1.2c-.8.9-.8 1.9-.1 2.6 1 .1 1.9-.4 2.4-1.3 1.8.2 3.3-.3 4.6-1.5l-.3-1c-2.2.6-4-.2-5.3-1.9-.3-.6-.6-1.1-.8-1.8v-.4c-2.5-.2-4.8.3-6.9 1.9 4.2-3.3 9-4.6 14.3-4.2.2.2.5.2.8.1.5-.3.9-.9.9-1.5 1.2-.2 2-.7 2.6-1.5-1.1-2.5-3-4-5.9-4.5-.2 0-.2-.1-.3-.3-.6-2.1-1.3-3.6-2.9-4.7-1.4.9-3 1.5-4.5 1.8-1.9-1.7-3.6-3.3-5.1-5.2-2.9-1.5-5.6-2.3-8.5-2.6l-.5.5c.9 1.5 1 3.2.3 4.8l.9 1.5-1.5 2.2.2.3c1.2.4 1.6 1.2 1.3 2.4l-3.2 2.1.2 4-1.9.6-2.8-4.6c-3-.5-5.8-1.5-8.5-2.6-.5-.2-1.2-.3-1.9-.2-2.6-.4-4-1.9-4.2-4.3 0-1.2.4-2.1 1.5-2.6.9-.4 1.9-.9 2.9-1.2 2.1-.9 3.5-2.5 4.3-4.6 2.1-.1 4.2-.2 6.3-.7l.2-.9-1.2-1 .8-.9c-1.4-1-3.3-1.2-5.3-.8l.5 1.5-1.9.9c-2.9-.8-5.4-1.9-7.8-3.6-1.5-1-3.1-1-4.6.2 1.1.6 2.1 1.2 3.1 2.1.1.2.2.3.3.6l-1.4.5v.8c-1.1-.9-2.3-1.2-3.8-1.2-2.2.2-4.3.4-6.5.7l-.5-.7h-5.7l.9.7h-8l-.4-1.3c-5.8-1.5-11.8-1.9-17.7-1.1-2.8-.2-5.6-.2-8.5.2-1.6.3-3.4.5-5.2.4-10.3-1.2-20.8-1.3-31.1-.2-1.6 0-3.3.2-4.7.5l6.5 4.6-8.9.5 1.2 2 6.2-.3v.8l-6 2.2L5 47.3l3 .3-.3 1.6 1.9.4.6-.9.7.8 3-.3L0 55.3l.3 1.3L19.4 49l-.4-.9zm48.4-18.5c1.3-.7 2.8-1.4 4.2-2.1l-.1-.4c-2.9-.9-5.6-1.1-8.4-.2-1.3.4-2.4 1.3-3.1 2.6l.2.9c2.3.7 4.7.4 7.2-.8zM83 22.3c.2 0 .2 0 0 0-1.9-.6-3.7-.2-5.6.7l.1.9c2 .2 3.9-.3 5.5-1.6zm-3.2 7.3c-1.9.1-3.5.1-5.4.1-1.9 0-3.6.2-5.4.4l-.9 1.4c2.2 3 5.4 4.1 9.6 3.3 1.5-.2 3.1-.2 4.6-.1 2.4.1 4.7-.5 6.8-1.5l.2-.6c-2.6-.3-4.6-1.9-5.8-4.5-1.2.8-2.5 1.4-3.7 1.5zM94 33.9l-2.8-.5-1.2.9 4.3.2-.3-.6zm-22-8.6 1 1.5h.7l1.4-.9h.6v1.2c2.9-.2 5.7-.5 8.4-.9.4-.2.7-.3 1.1-.5-2-1.9-4-1.9-5.7-.1-1.5-.8-3-1.5-4.6-2.3l-8.2.7-.3.5.9 1 4.7-.2zm62 75.6h2.1v-.9H134v.9zm-14.6-.8 2.9.7.1-.5-3-.7v.5zm9.4 1.2c1-.9 2.2-1.3 3.7-1.2l-.3-1c-1.8-1.2-3.6-1.6-5.7-1.5l-.4.8.5 1.4c-1.1-.1-1.9.1-2.5.5l.5.3c1.6-.5 2.9-.2 4.2.7zm288.5 75.6c-1.1.3-2.2.7-3.2 1l-.2.9 1 .8.2 2.1.4.1c.2-.1.5-.1.7-.2 1.8-.9 2.3-2.3 1.8-4.3l-.7-.4zm-18-96c-1-.4-1.9-.2-2.4.8l.2 1.2 2.2-1.2v-.8zm23.3 50.9.4-1.2-.5-.2-1.1 1-2.6.1-.2.8c1.4.9 2.8.8 4-.5zm-11-71 1 .8-3.3-9c0 3.7.2 7.5.9 11.2l2.1.7-1.5-2.5v-1.2h.8zm5.9 74.1c-.9-2.8-2.8-4.8-5.4-6-2-1.1-4.2-1.9-6.5-2.4-.4-.1-.9-.1-1.2.2-1.5.9-3.2 1.3-4.6 1.2v-1.8l-.9-.9-5 .2c.8 1.6 2.1 2.5 4 2.2l-.4.7-.9.1 1 1.9.3-.8.5-.3.9.4.3.7c1.4-.1 2.9.2 4.1.9l1.1 3-1.5.9.7.9.5.2c.5-.7 1.2-.7 1.9-.3.2.2.4.4.7.8l1.3.4 1-.6.8.6-.2 1 1.6 1.1-.2-2 .7-.9-.4-1.1 2.3-.4c.1.2.2.5.3.9 1.3 2.3 3.3 3 5.8 2l-.2-1.8c-1 .5-1.9.3-2.4-1zm-17-56.6c-2.6-.5-4.6.2-6 2.5-1 1.9-.8 3.3 1 4.2.2-.3.3-.7.5-1 .5-1 .7-2 .2-3.1.9-.9 2.1-1.2 3.3-.9l1.7 2.6c1.2-1.2 2.4-2.1 4.1-2.6 3.8-1.2 5.3-3.7 4-7.9v.4l-.9-1.2-.9-.1-1.9 4.4c-1.9.4-3.7 1.3-5.1 2.7zm51.2 90c-.9-1-1.4-1.4-1.9-1.2 0 .1.1.2.1.2 1.2 1.4 1.9 3.1 2 4.9-.7 2.2-.5 4.4.4 6.6h.7c1.6-1.6 2.9-3.5 3.4-5.6l-2.8-1.1c-.3-1.3-1.1-2.6-1.9-3.8zm18.5-130.8c-2.2-.3-4.4-.9-6.4-1.4-6.8-2.2-13.6-2.8-20.6-1.5l-.3.5c-2.5-.7-4.8-.7-7.4-.1-.9-.9-1.9-1.5-3.2-1.8-.9.1-1.8 0-2.5-.2-7.5-1.6-15.2-2.5-22.9-2.3l-.9 1.2-12.8.4-.4.7h-.8v-.5c0-2-1.1-3-3.3-3-1.2.1-2.5.1-3.7.1-2.5 0-5-.2-7.4-.5-5.7-.2-11.4.3-16.9 2.1.1-.2.2-.5.5-.8.2-.3.4-.5.6-.8.5-.4 1-.5 1.5-.5 2.5-.5 4.9-1.2 7.5-2.1l.2-1.3-1-.9c-2.4-.2-4.8-.2-7.3-.4-3.7.4-7.4.2-11.1-.6l.7-1.2c1.5.3 2.8.1 3.7-.7l.2-1.1c-2.5-.9-5.3-1.1-8-.7l-.7 1.1c-.8-.8-3.4-1.4-5.9-2v1.9c-.6.1-.9.2-.9.3-1.3 2.4-2.2 3.6-2.5 3.6-.5.1-.9.2-1.4.2-1.5.2-3.2.4-4.7.8h-.2v.3c-.6.1-1 .2-1.5.2l.4 1.2c-.5.2-1.2.4-1.9.5-.7.2-1.3.2-2 .2l-.5-.4c-2.6 1.9-5.6 2.5-8.8 1.9l-.3.7 2.2 3.3c-.3-.1-.7-.2-1-.3-2.5-.9-4.2-2.6-5-5.3-1.1-.1-2.2.2-3 .7-.9.5-1.4 1.3-1.5 2.2.3.4.6.8.9 1 1 1 2.1 1.6 3.3 2.1-4.3-.7-8.8-1.2-13.3-1.5l.2 1.4c-3.1.5-6 .7-9.2.5-.8 0-1.4.1-2.2.3-2 .9-4.1 1.3-6.3 1.3-.5 0-.9-.2-1.3-.4-2.2-1.8-4-1.2-5.1 1.5-2.2.8-4.3 1.8-6.4 3.1l-2.9-.9-1.2-2.5c.4.2.8.3 1.1.5 2.5.9 5 .8 7.1-.7-.3-.4-.7-.7-1.1-.9-4.8-1.5-9.7-2.9-14.6-3.7l-.2-.2-3.5.5-.4-.9-4.3.6-.2.4-1.8.3-.7-.4-2.9.9-.3.9c-.9-.2-1.8-.1-2.4.2-.4.2-1 .4-1.4.6l1.1.8-3.2 2c-2.8 2.3-5.8 4.2-9.2 5.4-.3 1.5.1 2.9 1 4 1 1.4 2.2 1.5 3.4.7.6-.3 1.1-.5 1.9-.5.2-.2.6-.2.6 0 1.5 1.6 3.3 3.2 4.9 4.6l3.3-1.2.4-3.1 2.2-1c.2-.9-.1-1.6-.8-2.2-.5-.2-.7-.6-.5-1.2.2-1.5 1.2-2.5 2.9-2.6.7-.9 1.5-1.5 2.3-2.1 1.2-.6 2.4-.6 3.4.2l-.3.6c-.4.9-1.2 1.5-2 1.9-.5.1-.9.2-1.3.4l-.3.9c.1.4.2.8.3 1 1.2 1.9 3 2.5 4.9 1.8 2.2-.8 3.9-.6 4.8.8-2.8.5-5.5 1-8.5 1.4.1.6.2 1.3.2 1.9 0-.1 0-.1-.2-.1-.5 0-1-.1-1.5-.1-.3 0-.5.1-.8.2-.2.2-.5.2-.7.3l-.4 2.4c-.9.2-1.9.5-3 .7-3.2.9-6.3.9-9.5.2l2.1-.5v-1.3H236c-.1 0-.2 0-.2.1s0 .2-.1.2h-.5c-.1-.8-.1-1.3-.2-2l-2.8 1.1.9 2.5-.4.9-3-.2c-.9 1-1.6 1.9-2.6 2.8-.9.8-1.9 1-3 .9L224 59l-2.3.9-1.6-.5-.3.2-.5 1.3c-.8-.2-1.4-.3-1.9-.3-.3 0-.5-.1-.8-.1-.3 0-.5 0-.9.1l-.2.5c.1.2.2.2.3.3.2.2.6.3.8.4l.4.2c.3.1.6.1.9.1l1.4 1.5 1.2.3-.8 3-.7.3c-3.6-1.2-6.9-.8-9.8 1.2.4 1.2.4 2.4 0 3.6-.2.5-.8 1.2-1.2 1.8l.7.2.2 1.9.4.3c.9.1 1.6.2 2.5.3.9.2 1.5.6 2.3.8l1.7-.9c.7.1 1.4.1 2.2 0 1.2-.3 2.2-.9 3.3-1.5l-.2-2.1c.3-.2.7-.6 1.1-.9 1-.9 2.2-1.4 3.5-1.9l.2-2c.4-.4.9-.6 1.5-.6 2.3-.3 4.8-.5 7.1-.3.4.6.9.9 1.4 1.2 2.3 1.2 4.6 2.8 6.7 4.4V75c.8.2 1.2-.2 1.2-.9.1-.8.2-1.3.2-2 .8.3 1.4.5 2.2.7v-.2c-3.4-1.9-6.4-4.3-9-7.4.3-.1.6-.2.8 0 3.1 1.5 6.1 3.3 8.8 5.2-.1.8.1 1.5.8 2.2.1.1.2.1.4.1 0 .1.2.2.2.2l1.7 1.5.2 1.2 2.2.9.9-1.5 1.5-.1-2.5-3c.7-.5 1.4-.7 2.3-.3.6.2 1 .4 1.4.7l-.2 1.9 1.2.7.9 1.4c.5.1 1.1.2 1.6.2 3.2.3 6.5.4 9.8 0-.2.7-.2 1.3-.3 1.9-.4 1.9-1.2 3.5-2.5 5-5.2.8-10.2.2-15.1-1.5-.5-.2-1-.2-1.5-.1-1.4.1-2.2 1-2.4 2.5-2.1-.1-4-.8-5.7-1.6-.6-.3-1.1-.5-1.7-.8-3.3 0-4.6-1.6-4-4.7l-.3-.7c-1.2-.5-2.5-.7-4-.5-1 .1-1.9.1-3-.1-2.9-.3-5.3.4-7.1 2.2-2.4.2-5 .2-7.4 0l-.2.9-4.8 3.5c-.2 1.1-.4 2.2-1 3.1-.9 1.6-2.2 2.5-4.2 2.8l-.4 1.2-.7.7v1.1c-1.2 1.2-2.4 2.4-3.5 3.7-.1.2-.2.2-.2.6 1.1 3.2.9 6.4-.6 9.5 0 .2.1.3.2.5.1.8.2 1.5.4 2.2.1.3.2.5.4.8l.7.1c.7.8 1.2 1.5 1.6 2.4 1.3 3 3.6 5 6.7 5.7.4 1 1.1 1.6 2.1 1.8 2-.2 4-.5 5.9-.9 3.6-.9 7.4-1.2 11.2-1.2.3 1.2 1.2 2 2.4 2.2.8.2 1.5.1 2.2-.2.9.5 1.5 1.4 1.8 2.4.4 1 .3 2.1-.1 3.1l-.5.9c.2.9.5 1.9 1.3 2.5 2.6 2.8 4.1 5.7 4.1 9.2l.7 1.1c-.1.5-.2 1-.4 1.3-1.1 2.1-1.8 4.1-2.3 6.1-.1.5 0 .9.2 1.2 2.2 3.4 3.4 7.1 3.9 11.3l.4.2.4 2.4c1.8 1.7 3 3.6 3.6 6.1l-.4 1c.1.2.2.3.3.6.8 1.2 1.7 1.9 3 2.1 1.1-.1 1.9-.7 2.3-1.5 1.1.1 2.2.1 3.3-.2 6.1-1.5 9.8-5.3 11.2-11 .2-.2.4-.2.5-.2.6-.3 1.1-.7 1.6-1.2.4-.4.7-1.1.8-1.8.1-1.1-.2-2.1-.7-3 1.6-2.3 3.8-4.1 6.4-5.3l.3-.5c1.8-1.4 2.1-3.3 1.2-5.7-.7-1.5-1-3.3-1.2-4.9 0-.6 0-1.2.2-1.8 1.3-4.9 4.2-8.6 8.6-11.1.6-.2 1-.7 1.4-1.2 2.6-3.1 4.7-6.7 6.4-10.5l-.4-.9c-1.4.2-2.9.6-4.2.9-1.5.1-2.8-.4-4-.9-3-1.1-5.7-1.9-7.7-4.7-.2-.2-.2-.4-.3-.7-.2-.7-.6-1.2-1.1-1.6-1.9-1.8-2.8-3.9-2.8-6.4-.2-.1-.4-.2-.5-.3L268 94l-.2-1.5c-.3-.3-.6-.7-.7-1-.8-1.5-1.9-2.9-3.1-4l1.6-.7c.2.2.4.4.7.5 1.4 1.3 2.4 3 3.1 4.6.5 0 1.1.2 1.5.8.4.7.9 1.3.9 2.2.2 1.5 1.2 2.5 2.6 3 1.2 2.5 2.2 5 3.2 7.5.4 1.1 1.2 1.8 2.2 1.9 3.4-.4 6.6-1.5 9.5-3.5.5-.3.9-.5 1.5-.8 4.6-1.4 7.3-4.4 8-8.8-.2-.2-.4-.3-.7-.4-1.8-.8-3.3-1.9-4.4-3.5-.4.3-.9.7-1.2 1-.9.9-1.8 1.1-2.8.9-1.4-.3-2.3-1.2-2.5-2.8l-.9 1.6c-.1-.5-.2-.9-.4-1.3-.4-.9-.9-1.8-1.5-2.3-.8-.7-1-1.5-.7-2.6l.4-.2c.1.1.2.1.3.2 2.9 3.3 6.5 5 10.8 4.8l.2.5c2.8 1.1 5.6 1.2 8.5.6 3-.6 5.5.5 7.4 3.2l1.7.3-1.5.8c.1.1.2.2.2.4.6.9 1.4 1.4 2.5 1.3.3-.1.7-.2 1.1-.3l.2-1.5h.8c.2 3.2.9 6.4 1.9 9.5.4.2.8.7 1 1.2.2.8.5 1.4.8 2.1.2.1.2.2.3.3 1 1.2 1.8 2.5 2.3 4 .5 1.3 1.4 1.6 2.8 1 .5-1.1 1-2 1.5-3.1.2-.3.5-.7.9-1-.1-1-.2-1.9-.3-2.9-.1-.9.2-1.7.8-2.3.7-.7 1.2-1.5 1.9-2.2.6-.4.9-.9 1.4-1.3v.4c.2-.2.4-.6.5-.8.3-.4.9-.9 1.3-1.2l1.5-1.2c1.2-.9 2.5-1.4 4-1.9.3-.1.9-.2 1.4-.3.1 0 .5-.1 1.1-.1V98c1 .2 1.9.4 2 .7 1.4 1.9 2.2 4 2.3 6.2l4-.1c.8 1.2 1.2 2.6 1.2 4.3l1.2.9v5.2c.9.7 1.8 1.5 2.4 2.5.2.2.2.5.4.9.2.6.4 1.1.5 1.5.2.5.3 1 .7 1.4 1.1 1.2 2.3 2.3 3.6 3.4 0-.2.1-.4.2-.7.2-1 .1-1.9-.4-3-.4-.9-1-1.6-1.8-2.2-3.2-2.8-4.5-6.2-4-10.1.3 0 .5 0 .9.1.2 0 .4 0 .7.1.2.1.5.2.7.3.4.2.8.6.9.9 1.1 2.4 2.8 4.1 4.9 4.9l.9-.9.2-1.6.7-.6c1.2.1 2.3-.2 3.3-1.1-.5-3.4-1.8-6.5-3.9-9.2-1.5-2.2-1.1-3.7 1.5-4.6l.6.6-.4 2.3 1.1 1.2 1.2-.3c.2-2.5 1.5-3.9 4-4.1 3-.4 5.4-1.6 7.4-4 1.5-1.9 2.8-4 3.9-6 .9-1.6.3-2.6-1.5-3.3l-.9-4.1c1.1-.7 2-1.5 2.5-2.6l-.4-.2c-1.5.5-3 .2-4.2-.7v-1l4-3-.2 2.4.3.4h.4c1.3-1.1 2.8-1.4 4.2-.9l-.5 2.2 1.5.6.5 4c.8.5 1.4.5 2.2.2.3-.2.5-.4.8-.8.9-.9 1.2-2.1.8-3.4-.1-.6-.2-1.1-.2-1.5 0-2.1.9-3.7 2.5-5.2.5.1 1 .1 1.4.2.9.1 1.5-.1 2.4-.4 3.6-2 6.4-4.6 8.6-7.8.5-.9.9-1.9.7-3-.4-3.5-2.4-4.9-5.8-4.4 1.8-2.2 3.9-3.9 6.4-4.7 3.3-1.2 6.7-1.5 10.1-1.2 1.9 0 3.5-.4 5-1.2 2.6-1.3 5.6-2.3 8.6-3.2.2.5.3 1 .4 1.5.2 1-.1 1.8-.9 2.2-1.2.7-2.2 1.5-3.3 2.5-1 .9-1.4 2.1-1.2 3.3.6 2.5.2 4.8-1.2 7 2.1-.4 3.6-1.5 4.7-3.4.8-1.3 1.6-2.3 2.9-3.2 1.3-.9 2.3-2.1 3.2-3.6.2-.5.2-.9.2-1.4-.5-2.3 0-4 1.8-5l.8 2.4c1.1.1 2.2.2 3.2.2s1.9-.2 3-.4c4-1.2 8.1-2.1 12.2-2.5l.5-.5.2-.6-1.4-1.5c.5-.5 1.1-.9 1.5-1.2.4-.2.9-.5 1.3-.7 2.5.3 5 1.2 7 2.8.2-.1.4-.2.7-.2 1.5-.7 2.5-1.9 3-3.6l.1-.9zm-94.4 99 .4.8c.2.1.5.1.8.1 1.2.2 2.1 0 2.6-1h-2.9c-.3 0-.6.1-.9.1zm72.6 41.3c-1.9 2.2-4 4.3-6.4 6.1-1.2 1-1.2 1.9 0 2.9 1.4 1.1 2.5.7 3.6-1.2.7-1.5 1.9-2.4 3.7-2.6l-.1-1.6c.1 0 .2-.2.2-.2.8-.2 1.2-.7 1.3-1.5-.2-1.5-1.1-2.2-2.3-1.9zm-85.5-46.9c-.3-.5-.5-1.2-1-1.9-3.1-5.1-7.4-9-12.8-11.7l-.5.3c.4.9.9 1.5 1.5 2.4 1.2 1.9 2.5 3.6 3.6 5.4 4.7 7.5 11.5 11 20.4 10.5-1.9-1.2-4-1.9-6.1-1.9-2.4.2-4.1-.9-5.1-3.1zm44.3-61.8c-.4.4-.7.9-.7 1.3l5 .2c.1-.2.3-.4.5-.6 1.2-.7 2.2-1.5 3.3-2.5l-.6-.7c-1.9.2-3.5-.5-4.8-1.8l-.4.2-.8 2.8c-.5.3-.9.6-1.5 1.1zm-16.4 57.6.5-1.9 1.2-.6.2-.5-.8-.5-.8-1.8c-1.2 1-1.5 2.3-1.1 4.2.4.4.6.8.8 1.1zm-10.5-19.2c0 .9.4 1.5 1.2 1.9.9-1.5 2.2-2 4.1-1.3l.5-.8-.1-.5-3-.4c-.7-.7-.8-1.5-.4-2.5.5-1.3.2-2.2-1.1-3-.2 0-.4-.1-.6-.2-.6 2.2-.9 4.3-.6 6.8zm4.5 30.5-.1.8.5.4 5-2.5c-1.8-.2-3.7.3-5.4 1.3zm-5.7-20.1c-.9-.5-1.8-.9-2.5-1.2-.2-.1-.5-.1-.8-.1l-1.9 2.5c-.4.2-.8.6-1 .9-.6.6-1 .9-1.7 1.2l-1.9.2-.9 1.2-1.5-.2c-1.1.9-1.2 2.1-.4 3.3.6.9.9 1.9 1 3 2.5 1 5.3 1.5 8.1 1.2.5-2.6 1.9-5 3.6-6.8l-1.5-2.3c.2-.3.4-.5.7-.9.6-.4.8-1.1.7-2zm4.1-26c-.2-.1-.2-.2-.2-.2-1.5 1.3-2 2.6-1.1 4.3l.7-1.2-.4-1.2 1.3-.9-.3-.8zm-2.6 41.3.4.1.7-.3c.1-.1.1-.2 0-.4-.2-1-.2-2 .2-3 .5 1.3 1.4 1.9 2.8 1.5l.3-.6-1.3-2.5 1.9-1.9-3.2.7c-.1-.2-.2-.2-.2-.3-.4-.5-.3-1.2.1-1.6.2-.1.5-.1.8-.1 2.1.5 3.7 0 5.2-1.5l-.4-.2c-1.4.2-2.9.4-4.3.4-1.1 0-1.9.4-2.2 1.3-.2.9-.5 1.6-.9 2.5-.2.5-.2 1-.2 1.5-.1 1.7 0 3 .3 4.4zm5.2-24.5c.2.9.3 1.9.6 2.8l.7.2.5-2.3-.5-.7h-1.3zm-11.9 45c-1.5 1.9-1.9 4.1-.9 6.4.5 1.2 1.1 2.2 1.5 3.3 1 2.1 1.4 4.2 1 6.4 0 .3.1.6.3.9.7.9 1.5 1 2.5.9 5.4-1.5 10.8-3.3 16.1-5.1 1.4-.6 2.9-.4 4.1.5.7.6 1.2 1.1 1.8 1.5.7.7 1.4.9 2.2.9.5 0 1.2-.1 1.8-.1l-1.7 2.3.6.3c1.2-.3 2.2-.1 3 .8.5.5.7 1.2.3 1.8 4 1.5 7.8 1.5 11.7-.2 1-.6 1.8-1.2 1.9-2.4.2-1.2.9-2.3 2-3.2 1-.7 1.9-1.5 2.2-2.8 1.9-4.3 1.2-8.1-2-11.7-2-2.1-4-4.3-5.9-6.4-1-1-1.9-2.1-2.5-3.3-.9-2.3-2.4-4-4.6-5-.3-.1-.7-.2-.9-.2l-.4.2c.5 2.2.5 4.4.2 6.6 0 .2-.1.4-.2.6-3.4.2-5.7-1.2-6.5-4.3-.2-.6-.2-1 0-1.5l-6.6-1.9-1.2 1.8-1.5.6-.1 2.9h-.9l-.9-.5-1-1-1.3.2c-.5.9-1.2 1.6-2.2 2.2l-.1 1.1-1.2.1c-1.7 3.6-4.6 5.7-8.6 6.6-.8-.4-1.5 0-2 .7zm11.4-17.5c-1.8 0-3.3.2-4.7.9l.3.5c1.8.1 3.3-.2 4.6-1.1l-.2-.3zm2.8-24.1-.5 1.4c-.2 0-.5 0-.8-.1-2.1-.6-3.3.1-3.3 2l2.4-.3c.4 1.2 1.2 2.1 2.3 2.5l.5-.4-.4-1.3.1-.1c.9.2 1.3.2 1.5-.3l-1.3-3.4h-.5zm-4.2-1.3c.2 0 .4 0 .5-.2.2-.2.2-.3.2-.5s0-.4-.2-.5c-.2-.2-.3-.3-.5-.3s-.4.1-.6.3c-.2.1-.3.3-.3.5s.1.4.3.5c.2.2.4.2.6.2z"/></defs><g style="fill:#12a800;opacity:1"><use xlink:href="#a" x="5" y="-5"/><use xlink:href="#a" x="478" y="-5"/></g><g style="fill:#000;opacity:.1" transform="scale(-1 1)"><use xlink:href="#a" x="-468" y="215"/><use xlink:href="#a" x="-941" y="215"/></g></svg>