<svg xmlns="http://www.w3.org/2000/svg" width="1122" height="588" style="shape-rendering:geometricPrecision;text-rendering:geometricPrecision;image-rendering:optimizeQuality;fill-rule:evenodd;clip-rule:evenodd"><path style="opacity:1" fill="#3088fc" d="M-.5-.5h1122v520c-3.87.899-7.87 1.232-12 1-5.75-1.018-11.75-1.018-18 0-4.7-2.546-9.37-2.546-14 0-1.6-.439-3.1-1.106-4.5-2-1.78.979-3.45.646-5-1-4.62 2.71-9.12 2.376-13.5-1-.68.363-1.35.696-2 1a13.178 13.178 0 0 1-6-2c-4.3-.123-8.63.211-13 1a15.509 15.509 0 0 1-4.5-2c-4.5 3.43-8.83 3.43-13 0-5.54 1.316-11.04 1.316-16.5 0-4.807-1.931-9.807-2.598-15-2a15.414 15.414 0 0 0-4.5 2 141.5 141.5 0 0 1-16.5-3c-5.022 2.213-10.022 1.88-15-1a6.895 6.895 0 0 1-4 2c-5.842-1.813-11.842-2.48-18-2-3.168-.944-6.501-.944-10 0a15.894 15.894 0 0 0-6.5 1c-3.475-3.902-6.975-3.902-10.5 0-1.113-1.531-2.613-2.531-4.5-3a412.427 412.427 0 0 0-7 3c-.399-.228-.565-.562-.5-1-.651-3.33-1.984-3.663-4-1-1.634-.468-2.8-1.468-3.5-3-2.275 2.644-4.609 2.644-7 0a15.894 15.894 0 0 1-6.5 1c-1.544-.203-2.878-.87-4-2a12.403 12.403 0 0 0-2.5 4l-3-3c-.804 1.304-1.971 1.971-3.5 2a883.814 883.814 0 0 0-15-2c.03-.997-.47-1.664-1.5-2-2.672 2.502-5.338 2.502-8 0-1.301.139-2.134.805-2.5 2-2.1.023-3.933-.644-5.5-2-4.305 2.908-8.305 2.574-12-1-5.031 1.907-10.031 1.574-15-1a7.248 7.248 0 0 1-2.5 2 176.943 176.943 0 0 1-6-1c-2.093-.558-3.593-1.891-4.5-4-2.887 1.684-6.054 2.684-9.5 3-2.974-1.155-5.974-.821-9 1a19.507 19.507 0 0 0-7-3c-6.895 1.912-13.728 1.912-20.5 0-2.486.239-4.986.573-7.5 1-3.942-1.614-8.109-2.614-12.5-3a11.068 11.068 0 0 0-3.5 2c-3.37-2.31-6.87-2.31-10.5 0-1.61-1.989-3.443-2.322-5.5-1l-2-2c-3.171 2.835-6.004 2.502-8.5-1-.347 1.68-1.347 2.68-3 3l-12-2c-.873.235-1.707.569-2.5 1-3.43-2.492-6.93-2.492-10.5 0-1.226-2.048-2.726-2.381-4.5-1a31.147 31.147 0 0 1-2-2l-6 1a294.207 294.207 0 0 0-6-3c-2.016.016-3.016 1.016-3 3h-3c-2.707-1.524-5.707-2.524-9-3a7.248 7.248 0 0 0-2.5 2c-2.504-3.655-5.337-3.988-8.5-1a15.894 15.894 0 0 1-6.5-1l-3 2c-2.405-1.872-4.905-2.539-7.5-2-.817-1.978-2.317-2.978-4.5-3a24.49 24.49 0 0 0-6.5 2 11.068 11.068 0 0 0-3.5-2 124.15 124.15 0 0 1-3.5 3c-4.019-1.077-8.352-2.077-13-3-3.449 3.453-7.116 3.787-11 1-2.75 1.471-5.25 1.137-7.5-1-2.916.685-5.749 1.018-8.5 1a105.072 105.072 0 0 0-10.5-4c-3.564-.162-7.064.504-10.5 2h-1c-2.73.027-5.23-.64-7.5-2a209.506 209.506 0 0 0-30.5 0c-.65.304-1.317.637-2 1a92.425 92.425 0 0 0-15-2 94.977 94.977 0 0 0-8-2c-1.022.355-1.689 1.022-2 2h-2c-.077-1.25-.744-2.083-2-2.5a65.75 65.75 0 0 1-10-1.5c-1.617 1.142-3.45 1.809-5.5 2-2.716-.604-5.216-.604-7.5 0a80.852 80.852 0 0 0-16 0c-2.833-1.357-5.666-1.691-8.5-1-1.261-.259-2.261-.926-3-2l-1.5 1.5c-6.064.063-12.064.229-18 .5.085-1.495-.581-2.495-2-3-2.01 1.671-4.343 2.338-7 2 .039-1.256-.461-2.256-1.5-3a44.433 44.433 0 0 1-5.5 3c-2.89-1.73-6.224-2.73-10-3a7.248 7.248 0 0 0-2.5 2c-1.616-1.301-3.116-1.301-4.5 0-2.534.241-4.2-.759-5-3 .987-4.695.654-9.362-1-14-.063-1.981.604-3.648 2-5-2.695-2.951-2.362-5.618 1-8a14.753 14.753 0 0 1-4-5c1.34-1.188 2.007-2.688 2-4.5a131.578 131.578 0 0 1 0-13.5c-2.722-5.296-6.889-6.963-12.5-5-2.422.018-4.588-.649-6.5-2a949.498 949.498 0 0 0-17.5 2c-1.584-.488-2.751-1.488-3.5-3a56.926 56.926 0 0 1-13 3c-1.299-.59-2.132-1.59-2.5-3a9.568 9.568 0 0 1-3 3 250.063 250.063 0 0 1-9.5-3c-.77 1.772-2.103 2.772-4 3-4.343-1.548-8.676-1.881-13-1-1.298-.616-2.298-.616-3 0-2.794.257-5.627.59-8.5 1-5.615-1.011-11.115-1.678-16.5-2a8.905 8.905 0 0 1-4 3 13.049 13.049 0 0 0-4-3 18.184 18.184 0 0 0-3.5 2 16.252 16.252 0 0 0-4.5-2 156.808 156.808 0 0 0-8.5 3c-1.062-1.399-2.395-2.399-4-3-4.151.061-8.318.061-12.5 0-2.536 2.551-4.202 1.884-5-2a20.161 20.161 0 0 1-8.5 4 27.07 27.07 0 0 1-4.5-2c-5.286-.243-10.286.424-15 2a4.934 4.934 0 0 0-.5-3c-5.46 3.378-11.127 3.712-17 1-5.091-.308-10.257.025-15.5 1-2.308.135-4.308-.531-6-2-1.333 1.333-2.667 1.333-4 0l-2.5 3c-1.552-1.466-3.386-2.466-5.5-3a69.29 69.29 0 0 0-10 3c-1.53-.029-2.696-.696-3.5-2-1.908 2.407-3.908 2.407-6 0a11.064 11.064 0 0 0-3.5 2 19.473 19.473 0 0 0-8-3c-2.984.287-4.317 1.954-4 5-2.202 1.292-3.868 3.126-5 5.5.758 7.23.758 14.396 0 21.5a7.248 7.248 0 0 0 2 2.5c-.93 2.907-1.93 5.74-3 8.5-2.745 2.367-5.411 2.367-8 0a7.253 7.253 0 0 0-2.5 2c-3.646-1.988-7.146-1.988-10.5 0a22.973 22.973 0 0 0-5-2c-4.005.331-8.005.665-12 1-4.136-2.529-8.302-2.529-12.5 0a11.064 11.064 0 0 1-3.5-2c-1.982 1.123-3.982 1.123-6 0V-.5z"/><path style="opacity:1" fill="#a7aa7a" d="M125.5 8.5c2 0 3 1 3 3a20.233 20.233 0 0 0-4 4 14.696 14.696 0 0 0-3-3.5c1.819-.74 3.152-1.907 4-3.5z"/><path style="opacity:1" fill="#769cbc" d="M135.5 7.5c-2.534 1.338-2.2 2.338 1 3 1.062-.925 1.062-1.925 0-3l6 1.5a29.643 29.643 0 0 1-5 7.5c-1.382-4.19-4.382-5.857-9-5 0-2-1-3-3-3a39.443 39.443 0 0 0 6.5-3c1.459.308 2.626.975 3.5 2z"/><path style="opacity:1" fill="#ccb350" d="M135.5 7.5h1c1.062 1.075 1.062 2.075 0 3-3.2-.662-3.534-1.662-1-3z"/><path style="opacity:1" fill="#f6bf1b" d="M128.5 11.5c4.618-.857 7.618.81 9 5-.333 1-1 1.667-2 2-.901.79-1.568 1.79-2 3l-5 2c-2.314-.679-2.647-2.012-1-4l-3-3v-1a20.233 20.233 0 0 1 4-4z"/><path style="opacity:1" fill="#8d9f97" d="m124.5 16.5 3 3c-1.647 1.988-1.314 3.321 1 4-1.208 1.282-2.542 1.282-4 0 1.006-.896 1.006-1.562 0-2a6.846 6.846 0 0 1-4 1c.237-1.291-.096-2.291-1-3 1.042-1.291 2.208-1.291 3.5 0l1.5-3z"/><path style="opacity:1" fill="#8fa196" d="M135.5 18.5a66.94 66.94 0 0 1 9 4l-3 3c-2.861-.84-5.527-2.173-8-4 .432-1.21 1.099-2.21 2-3z"/><path style="opacity:1" fill="#434340" d="M119.5 19.5c.904.709 1.237 1.709 1 3v3h3c.262 1.478-.071 2.811-1 4a6.544 6.544 0 0 0-3 3c.748 1.916.748 3.916 0 6 5.853-1.902 6.52-.735 2 3.5-2.809.312-5.476-.188-8-1.5-1.447-.634-2.113-1.8-2-3.5 4.108-3.349 3.941-6.515-.5-9.5a8.43 8.43 0 0 1-.5-4c1.699.16 3.366-.006 5-.5.603-2.071 1.936-3.238 4-3.5z"/><path style="opacity:1" fill="#273041" d="M565.5 21.5c1.584 2.029 2.917 4.362 4 7-1.789 1.533-3.789 2.533-6 3-.44-3.678.227-7.012 2-10z"/><path style="opacity:1" fill="#252c38" d="M799.5 23.5c1.277 1.194 1.944 2.86 2 5 .774 5.772-.892 6.939-5 3.5 1.577-2.595 2.577-5.429 3-8.5z"/><path style="opacity:1" fill="#283246" d="M881.5 22.5h3c-.022 3.643.978 6.976 3 10 1.611-.82 2.278-2.154 2-4 7.02-1.34 8.687 1.326 5 8a82.224 82.224 0 0 0-11-.5l-1.5-1.5a72.368 72.368 0 0 1-.5-12z"/><path style="opacity:1" fill="#2c4e81" d="M961.5 26.5c-.067 1.459.266 2.792 1 4h-3a11.987 11.987 0 0 0 1 6c-3.504.835-6.837.835-10 0-1.791-.462-2.791-1.629-3-3.5a63.788 63.788 0 0 0 2-7.5 38.816 38.816 0 0 0 8.5-2c.483.948.649 1.948.5 3h3z"/><path style="opacity:1" fill="#3966a0" d="M172.5 23.5c-1.275 4.314-3.608 4.98-7 2 2.058-1.433 4.392-2.1 7-2z"/><path style="opacity:1" fill="#43484d" d="M165.5 25.5c3.392 2.98 5.725 2.314 7-2 2.238-1.037 4.571-1.203 7-.5.506 2.532 1.673 4.698 3.5 6.5.92 2.808.087 4.975-2.5 6.5 1.076 1.726 1.243 3.56.5 5.5a14.505 14.505 0 0 0-5 4l-1-1c.108-3.657.108-7.324 0-11a4.94 4.94 0 0 0-2.5-1 212.657 212.657 0 0 0-5 4c.878 2.248.545 4.415-1 6.5a168.167 168.167 0 0 1-8 1.5 45.26 45.26 0 0 1 3-10.5 22.345 22.345 0 0 1-.5-7.5c1.356-.88 2.856-1.213 4.5-1z"/><path style="opacity:1" fill="#2b4164" d="M1029.5 23.5h3v4h-3v3h-3v3c6.32-.492 7.32 1.341 3 5.5-.95.483-1.95.65-3 .5.18-2.829-1.16-4.495-4-5 2.69-2.498 2.36-4.665-1-6.5 2.32-2.322 4.99-3.822 8-4.5z"/><path style="opacity:1" fill="#424545" d="M144.5 22.5a116.64 116.64 0 0 1 4.5 3c1.44-.648 2.94-.98 4.5-1v3c1.644-.213 3.144.12 4.5 1 1.546 5.727.046 10.394-4.5 14-4.046 1.265-8.046 1.265-12 0v-3c-2.207-.5-3.54-1.5-4-3 1.333-2.667 1.333-5.333 0-8 2.119.032 3.452-.968 4-3l3-3z"/><path style="opacity:1" fill="#273c5a" d="M1043.5 25.5h4c-.5 4.652-.83 9.319-1 14-3.23.263-4.57-1.237-4-4.5 1.82-3.087 2.15-6.253 1-9.5z"/><path style="opacity:1" fill="#424442" d="M91.5 42.5a21.445 21.445 0 0 1-1-7c2.58-2.938 5.58-4.772 9-5.5-2.052-3.084-4.385-3.25-7-.5-1.247-1.506-1.247-3.006 0-4.5 3.267-1.213 6.6-1.546 10-1 .973 2.547 2.807 4.047 5.5 4.5.188 1.976.021 3.976-.5 6-.063 1.98.604 3.648 2 5-4.464 5.686-7.464 4.853-9-2.5a29.816 29.816 0 0 0-5 .5v3c3.633-.057 3.8.943.5 3-1.356-.88-2.856-1.214-4.5-1z"/><path style="opacity:1" fill="#273144" d="M643.5 25.5a8.435 8.435 0 0 1 4 .5c-1.655 1.444-2.322 3.278-2 5.5-3.265-.418-6.265-1.585-9-3.5l6-1c.556-.383.889-.883 1-1.5z"/><path style="opacity:1" fill="#4280d2" d="m128.5 23.5 5-2c2.473 1.827 5.139 3.16 8 4-.548 2.032-1.881 3.032-4 3 1.333 2.667 1.333 5.333 0 8-1.495-.085-2.495.581-3 2a9.107 9.107 0 0 1 1 5h-3c.461-2.82.461-5.487 0-8 3.006-2.635 2.672-4.635-1-6-.886.825-1.219 1.825-1 3-1.175-.219-2.175.114-3 1 .32 3.215.32 6.548 0 10-4.624.092-9.29.425-14 1v-4c2.524 1.312 5.191 1.812 8 1.5 4.52-4.235 3.853-5.402-2-3.5.748-2.084.748-4.084 0-6a6.544 6.544 0 0 1 3-3c.929-1.189 1.262-2.522 1-4h-3v-3a6.846 6.846 0 0 0 4-1c1.006.438 1.006 1.104 0 2 1.458 1.282 2.792 1.282 4 0z"/><path style="opacity:1" fill="#2a4368" d="M556.5 24.5c.996-.086 1.829.248 2.5 1 1.4 7.613.233 8.447-3.5 2.5a14.102 14.102 0 0 0 1-3.5z"/><path style="opacity:1" fill="#2d5b9c" d="M594.5 34.5c-.31-1.644-1.31-2.644-3-3-.269-1.929.231-3.595 1.5-5l2 2c1.19-6.34 3.024-6.507 5.5-.5-1.333 2-1.333 4 0 6-.318 2.375-1.651 3.542-4 3.5a12.93 12.93 0 0 0-.5-5c-.278.916-.778 1.583-1.5 2z"/><path style="opacity:1" fill="#252b37" d="M704.5 26.5c3.862 1.558 3.862 3.225 0 5 1.833 1.468 2.166 3.135 1 5a38.916 38.916 0 0 0-6-7c2.155-.501 3.822-1.501 5-3z"/><path style="opacity:1" fill="#283954" d="M576.5 27.5h5c-.531 3.28-2.531 4.613-6 4-.067-1.459.266-2.792 1-4z"/><path style="opacity:1" fill="#283449" d="M692.5 26.5c2.406.899 4.406 2.399 6 4.5l-1 1.5c-3.792-1.768-5.126-.768-4 3-.825.886-1.825 1.219-3 1-.189-3.537.477-6.87 2-10z"/><path style="opacity:1" fill="#2d5a9b" d="M750.5 24.5c4.281 2.58 8.947 4.247 14 5l-1 4c-2.352-1.212-4.185-.545-5.5 2-.945-.405-1.612-1.072-2-2-.634-5.634-1.134-5.968-1.5-1h-3c.259-2.49-.741-4.156-3-5l2-3z"/><path style="opacity:1" fill="#273143" d="M1036.5 26.5h3c.48 3.298-.52 5.964-3 8a14.816 14.816 0 0 0-3-4.5 14.696 14.696 0 0 0 3-3.5z"/><path style="opacity:1" fill="#424546" d="M83.5 27.5c2.227 1.729 3.227 4.062 3 7-2.737-.713-5.404-.713-8 0-1.231-1.15-1.231-2.317 0-3.5a4.452 4.452 0 0 0-2-1.5c-1.333 3-1.333 6 0 9 2.745 1.475 4.912.809 6.5-2a4.452 4.452 0 0 1 1.5 2c-1.207 2.041-2.874 3.374-5 4-2.481 1.956-5.148 2.289-8 1a39.306 39.306 0 0 0-4-8.5c1.302-2.54.302-3.707-3-3.5-3-.094-5 1.239-6 4-.02 2.102.313 4.268 1 6.5-6.1.123-7.434-2.377-4-7.5l-3-4c1.38-1.363 1.213-2.363-.5-3-2.935 1.692-6.102 2.358-9.5 2v6c5.414-.15 7.08 2.184 5 7-10.442.827-13.942-3.84-10.5-14 1.462-1.968 3.295-3.302 5.5-4 2.14-.25 4.307-.583 6.5-1 .739 1.074 1.739 1.74 3 2 1.808-1.19 3.641-1.19 5.5 0l5-2 2 .5a32.367 32.367 0 0 0 3 4.5 28.83 28.83 0 0 1 4-1.5c-1.341-1.826-.841-2.993 1.5-3.5 3.152 1.427 6.319 1.76 9.5 1 .886.825 1.219 1.825 1 3z"/><path style="opacity:1" fill="#263246" d="m763.5 33.5 1-4c.47-1.194 1.47-1.86 3-2 2.713 1.022 5.38 1.022 8 0a37.772 37.772 0 0 1 2 12c-1.175.219-2.175-.114-3-1-.928-4.742-2.428-5.075-4.5-1a7.248 7.248 0 0 0-2.5-2c-1.032 1.54-2.365 2.04-4 1.5 1.184-1.145 1.184-2.312 0-3.5z"/><path style="opacity:1" fill="#283246" d="M792.5 26.5c5.157 1.642 4.823 2.975-1 4 .624 2.254 1.957 3.92 4 5-1.901.73-3.901.73-6 0v-4c-4.295-.221-4.962 1.112-2 4a9.864 9.864 0 0 1-6 1c-.286-1.777-.953-3.444-2-5 3.001-3.888 6.835-4.888 11.5-3 .717-.544 1.217-1.21 1.5-2z"/><path style="opacity:1" fill="#252c38" d="M805.5 28.5c2.621.621 4.288 2.288 5 5a6.544 6.544 0 0 1-3 3c-1.554-2.433-2.22-5.1-2-8z"/><path style="opacity:1" fill="#273449" d="M961.5 26.5c2.181-.216 3.847.617 5 2.5-2.544 1.099-2.544 2.265 0 3.5l2-5c.586.21 1.086.543 1.5 1 1.11-1.537 2.61-2.203 4.5-2 .114 3.967 1.948 5.3 5.5 4 1.3 1.207 2.8 1.874 4.5 2-1.155-5.83.179-6.33 4-1.5-.718 2.46-1.385 4.96-2 7.5-2.537-.195-5.203.139-8 1 1.761-2.837 1.261-5.17-1.5-7a6.802 6.802 0 0 1-1.5 3c-.648-1.65-1.648-2.983-3-4-2.096 1.12-2.43 2.62-1 4.5-1.88-.51-3.713-.343-5.5.5-2.265-1.416-3.431-3.416-3.5-6-.734-1.208-1.067-2.541-1-4z"/><path style="opacity:1" fill="#2f538b" d="M656.5 32.5c.904-.709 1.237-1.709 1-3 .904-.709 1.237-1.709 1-3 1.788-.285 3.455.048 5 1l-3 4c1.833 1.468 2.166 3.135 1 5-1.481-1.649-3.148-2.982-5-4z"/><path style="opacity:1" fill="#424342" d="M132.5 43.5c-1.667 1.333-3.333 1.333-5 0 .32-3.452.32-6.785 0-10 .825-.886 1.825-1.219 3-1-.219-1.175.114-2.175 1-3 3.672 1.365 4.006 3.365 1 6 .461 2.513.461 5.18 0 8z"/><path style="opacity:1" fill="#3283f0" d="M143.5 32.5c7.669-.67 8.669 1.33 3 6-1.533-1.789-2.533-3.789-3-6z"/><path style="opacity:1" fill="#262e3d" d="M570.5 29.5c3.635.156 3.968 1.322 1 3.5.837 1.011 1.17 2.178 1 3.5-3.167-.656-6.167-.99-9-1 1.214-1.57 2.881-2.402 5-2.5 1.323-.816 1.989-1.983 2-3.5z"/><path style="opacity:1" fill="#252c38" d="M591.5 31.5c1.69.356 2.69 1.356 3 3-1.907 2.832-4.573 3.666-8 2.5-1.342-4.168-.342-5.002 3-2.5a7.468 7.468 0 0 0 2-3z"/><path style="opacity:1" fill="#27354b" d="m750.5 24.5-2 3c-1.447.634-2.113 1.8-2 3.5a47.51 47.51 0 0 1 1 5.5h-4a72.368 72.368 0 0 1 .5-12c2.163-1.268 4.33-1.268 6.5 0z"/><path style="opacity:1" fill="#28374e" d="M907.5 23.5c2.038 1.828 4.371 3.328 7 4.5a19.897 19.897 0 0 1-4 3.5 9.107 9.107 0 0 1 1 5c-4.32-.46-4.987-2.292-2-5.5-1.791-2.106-2.458-4.606-2-7.5z"/><path style="opacity:1" fill="#24272e" d="M639.5 33.5c3.81 1.254 3.81 2.254 0 3v-3z"/><path style="opacity:1" fill="#29364e" d="M676.5 24.5c1.068-.934 2.401-1.268 4-1-.239 1.967.094 3.8 1 5.5a52.61 52.61 0 0 0 7 0c-3.493 1.417-3.66 2.917-.5 4.5.483.948.649 1.948.5 3-2.825.42-4.991-.58-6.5-3a11.496 11.496 0 0 0-3.5 5 23.639 23.639 0 0 0-3-3.5c1.247-1.494 1.247-2.994 0-4.5-.782 2.576-2.282 4.576-4.5 6a3.646 3.646 0 0 0-1.5-1 32.126 32.126 0 0 0-3-7.5l2.5-2.5c.036 2.441.869 4.441 2.5 6a4.451 4.451 0 0 0 2-1.5c-1.102-3.06-.102-3.893 3-2.5 1.276-1.114 1.276-2.114 0-3z"/><path style="opacity:1" fill="#28364e" d="M847.5 27.5h5v6c1.322-.17 2.489.163 3.5 1 1.171-1.393 2.671-2.227 4.5-2.5 1.333-1 1.333-2 0-3 1.093-1.365 2.426-1.699 4-1-1.516 1.897-2.183 4.064-2 6.5h3v-6c2.177.086 4.177.753 6 2 .886-.825 1.219-1.825 1-3 3.186-.163 5.853.837 8 3-1.316 2.833-3.316 3.666-6 2.5l-2 3a33.995 33.995 0 0 0-7.5 1.5c-1.805-.91-3.638-1.91-5.5-3-3.203 2.077-6.536 2.41-10 1l-2-8z"/><path style="opacity:1" fill="#3875c7" d="M90.5 35.5a21.445 21.445 0 0 0 1 7c-3.243-1.11-6.243-.443-9 2a186.2 186.2 0 0 0-3-2c2.126-.626 3.793-1.959 5-4a4.452 4.452 0 0 0-1.5-2c-1.588 2.809-3.755 3.475-6.5 2-1.333-3-1.333-6 0-9a4.452 4.452 0 0 1 2 1.5c-1.231 1.183-1.231 2.35 0 3.5 2.596-.713 5.263-.713 8 0 .227-2.938-.773-5.271-3-7a5.576 5.576 0 0 0 3-1 21.12 21.12 0 0 1 1 9h3z"/><path style="opacity:1" fill="#273c59" d="M899.5 27.5c4.236 1.462 6.236 4.462 6 9a6.846 6.846 0 0 0-4 1c-2.559-3.063-3.225-6.396-2-10z"/><path style="opacity:1" fill="#263142" d="M657.5 29.5c.237 1.291-.096 2.291-1 3-1.175-.219-2.175.114-3 1 1.649.648 2.982 1.648 4 3l-2.5 1a27.206 27.206 0 0 0-5.5-2c-.4-6.278 2.267-8.278 8-6z"/><path style="opacity:1" fill="#3a6193" d="M137.5 36.5c.46 1.5 1.793 2.5 4 3v3c-4.38-.108-5.714-2.108-4-6z"/><path style="opacity:1" fill="#3967a3" d="M42.5 24.5c-2.205.698-4.038 2.032-5.5 4-3.442 10.16.058 14.827 10.5 14-4.26 2.733-8.26 2.4-12-1-1.112-2.57-2.445-4.903-4-7 .045-2.69 1.379-4.023 4-4v-6h7z"/><path style="opacity:1" fill="#262f40" d="M93.5 171.5c6.71.759 7.877 3.759 3.5 9-1.845-.55-3.345-1.55-4.5-3a11.99 11.99 0 0 0 1-6z"/><path style="opacity:1" fill="#27303b" d="M177.5 172.5a18.453 18.453 0 0 1 6 .5c1.315 1.395.981 2.395-1 3-.091 2.265.576 4.598 2 7a16.252 16.252 0 0 0-2 4.5c.245 5.202 1.578 10.035 4 14.5-.532 2.02-1.865 2.853-4 2.5a4.934 4.934 0 0 0-.5-3c-2.053-.767-3.553-2.1-4.5-4-.047-8.142-.047-16.475 0-25z"/><path style="opacity:1" fill="#232830" d="M128.5 173.5c3.497.495 4.497 2.328 3 5.5-1.333.667-2.667.667-4 0 .906-1.699 1.239-3.533 1-5.5z"/><path style="opacity:1" fill="#262c32" d="M295.5 172.5c2.056 1.673 4.223 2.339 6.5 2a111.277 111.277 0 0 0-.5 14c.235 4.809 1.902 8.975 5 12.5a9.454 9.454 0 0 0-1.5 2.5c-2.629-.428-4.962-1.428-7-3a58.908 58.908 0 0 1-1.5-9.5c-.195-2.352.472-4.352 2-6-3.483-2.488-4.149-5.322-2-8.5a6.846 6.846 0 0 1-1-4z"/><path style="opacity:1" fill="#262d37" d="M64.5 174.5c1.256.404 2.423 1.071 3.5 2a9.26 9.26 0 0 0 2.5-2c3.935-.294 7.935.039 12 1v4c2.962-.383 3.962.617 3 3 2.622 3.203 2.622 6.37 0 9.5a7.248 7.248 0 0 1 2 2.5 52.701 52.701 0 0 0-10 10l-3-2a21.029 21.029 0 0 1-7 2v-3h-3c-1.017-2.527-1.017-5.027 0-7.5a37.925 37.925 0 0 1-2-5.5c2.29-4.081 2.29-8.248 0-12.5.916-.278 1.582-.778 2-1.5z"/><path style="opacity:1" fill="#2f80ed" d="M74.5 198.5a29.551 29.551 0 0 1-5-3c-1.265-5.636-.265-10.969 3-16 .865-1.083 1.865-1.249 3-.5 1.719 1.87 2.719 4.037 3 6.5h4a32.438 32.438 0 0 1-.5 8c-1.755 1.17-2.755 2.837-3 5-1.49 1.228-2.99 1.228-4.5 0z"/><path style="opacity:1" fill="#27323c" d="M92.5 181.5a6.845 6.845 0 0 1 4 1 59.455 59.455 0 0 0 3 9.5c-.26 1.261-.926 2.261-2 3a7.292 7.292 0 0 1 3 2c-1.516 1.897-2.183 4.064-2 6.5a9.107 9.107 0 0 0-5 1l-1-1.5c-.263-6.596-.263-13.762 0-21.5z"/><path style="opacity:1" fill="#262c33" d="M363.5 190.5a38.407 38.407 0 0 0-5 5c-1.193-2.01-1.193-4.176 0-6.5a11.068 11.068 0 0 0-2-3.5 3.647 3.647 0 0 1 1-1.5 49.18 49.18 0 0 0 9-3.5c1.04 1.875 2.54 3.208 4.5 4a24.967 24.967 0 0 1 11.5-.5 47.136 47.136 0 0 0 3 10.5c-1.912 2.523-2.412 5.19-1.5 8-1.011.837-2.178 1.17-3.5 1a738.486 738.486 0 0 0-2.5-17 11.142 11.142 0 0 0-5.5 3.5c3.269 1.48 3.935 3.813 2 7 .255 1.326.922 2.326 2 3-2.449.955-4.449 2.455-6 4.5-2.188-.944-3.521-2.611-4-5a95.117 95.117 0 0 0 3-10.5c-2.913-3.382-4.913-2.882-6 1.5z"/><path style="opacity:1" fill="#295594" d="M416.5 182.5c1.634-.661 3.467-.994 5.5-1 2.866-.2 5.366.467 7.5 2-1.603 1.177-2.936 1.011-4-.5a40.914 40.914 0 0 0-9-.5z"/><path style="opacity:1" fill="#262c38" d="M439.5 176.5c1.478-.262 2.811.071 4 1 1.088 2.465 2.921 4.131 5.5 5 .617.949.451 1.782-.5 2.5a6.802 6.802 0 0 1 3 1.5c-2.658.009-5.324.009-8 0l-1 2a52.694 52.694 0 0 1 0 9.5c2.15 1.411 4.484 2.245 7 2.5.263 3.234-1.237 4.568-4.5 4l-3.5-.5c-.805-1.972-2.139-3.472-4-4.5a12.906 12.906 0 0 1-1-4c1.424-3.393 2.09-6.727 2-10-1.549-2.402-2.216-5.068-2-8 1.291.237 2.291-.096 3-1z"/><path style="opacity:1" fill="#283440" d="M143.5 175.5c1.175-.219 2.175.114 3 1-1.827 1.987-2.827 4.321-3 7l9-2c.02 1.643-.647 2.976-2 4a3.647 3.647 0 0 0 1 1.5c-4.348-1.355-7.015.312-8 5-.374 2.127.126 4.293 1.5 6.5 1.645.193 3.479.36 5.5.5a7.248 7.248 0 0 1 2 2.5 14.748 14.748 0 0 0-4.5 3c-1.333-1.333-2.667-1.333-4 0-2.274-2.941-5.107-5.275-8.5-7-2.136.972-3.303 2.639-3.5 5-3.95 3.108-5.783 2.108-5.5-3a4.934 4.934 0 0 0 3-.5 32.935 32.935 0 0 1-3-9.5c1.676-1.923 2.01-4.256 1-7 5.318-.963 7.651 1.204 7 6.5.195 2.352-.472 4.352-2 6 4.413 2.611 6.747 1.278 7-4-2.087-4.142-2.254-8.309-.5-12.5 1.409-1.281 2.909-2.281 4.5-3z"/><path style="opacity:1" fill="#272f3b" d="M160.5 182.5c4.517-.841 8.183.492 11 4l-1 2a19.953 19.953 0 0 1 3 4.5c-1.258 2.185-1.258 4.352 0 6.5-1.673 5.269-4.839 5.936-9.5 2-8.9 3.424-11.567.424-8-9l1.5-1.5 8-1c.837-1.011 1.17-2.178 1-3.5-3.352 1.053-6.685 1.053-10 0 1.579-1.167 2.912-2.5 4-4z"/><path style="opacity:1" fill="#253273" d="m226.5 186.5-6-2v-5c3.3-1.366 4.3-.366 3 3a32.065 32.065 0 0 1 4 2.5c-.556.383-.889.883-1 1.5z"/><path style="opacity:1" fill="#252d35" d="M281.5 182.5c2.761 1.42 5.761 2.087 9 2 2.939 5.805.939 9.138-6 10-2.751-1.643-5.084-1.31-7 1 3.953 3.043 8.286 4.043 13 3 1.333 1 1.333 2 0 3-1.123 1.044-2.456 1.71-4 2-3.369-1.123-6.702-1.123-10 0a24.179 24.179 0 0 1-5-5 31.71 31.71 0 0 1 2-6l-2-3c2.106-1.397 3.773-3.23 5-5.5 1.882-.198 3.548-.698 5-1.5z"/><path style="opacity:1" fill="#242932" d="M329.5 195.5v2a42.47 42.47 0 0 0-5 1.5c-.542 2.255-1.709 4.088-3.5 5.5-1.402-2.473-2.902-2.473-4.5 0-1.716-1.049-3.049-2.382-4-4-1.799-3.005-2.466-6.338-2-10a19.49 19.49 0 0 0 3-7c3.518-.605 7.185-.605 11 0a66.04 66.04 0 0 1 5 12z"/><path style="opacity:1" fill="#272f38" d="M251.5 181.5a72.144 72.144 0 0 1 5.5 2c-1.154 4.058-.32 7.725 2.5 11a21.614 21.614 0 0 0 4-5l-1-2c1.306-1.412 2.14-3.079 2.5-5 1.333-1.333 2.667-1.333 4 0a99.533 99.533 0 0 1-1 10c-2.839 2.682-4.339 6.015-4.5 10-3.025.269-5.692-.564-8-2.5-.638-1.707-.638-3.54 0-5.5a6.846 6.846 0 0 1-4-1c-.867-3.965-.867-7.965 0-12z"/><path style="opacity:1" fill="#27303a" d="M332.5 209.5c.212-1.884 1.212-3.217 3-4a23.942 23.942 0 0 1-3-9c.118-4.27-.049-8.603-.5-13 3.817-.503 7.65-.837 11.5-1a144.527 144.527 0 0 0 6.5 4c.163 2.176.996 4.009 2.5 5.5-.951 3.057-1.284 6.223-1 9.5-2.769.3-5.269 1.3-7.5 3-2.97-2.951-5.47-2.618-7.5 1 1.181 1.698 1.181 3.365 0 5a6.846 6.846 0 0 0-4-1z"/><path style="opacity:1" fill="#27303c" d="M220.5 179.5v5l6 2c.235.597.735.93 1.5 1a24.275 24.275 0 0 0 3.5-3.5 72.367 72.367 0 0 1 12-.5c2.527 3.619 4.194 7.452 5 11.5-1.607.115-3.107-.385-4.5-1.5a16.703 16.703 0 0 1-7.5 2.5c-.837 1.011-1.17 2.178-1 3.5 3.41-.043 6.743.457 10 1.5 1.231 1.183 1.231 2.349 0 3.5-1.667-1.333-3.333-1.333-5 0-3.037-3.011-6.704-4.678-11-5-.847-3.403-2.347-6.403-4.5-9-2.5.833-3 2.333-1.5 4.5a28.675 28.675 0 0 1-5 7c-3.44-1.41-6.273-.577-8.5 2.5l-1.5-1.5a42.769 42.769 0 0 1-9-1.5 11.456 11.456 0 0 1-1-2.5 604.676 604.676 0 0 0 3-3.5l-3-10a28.819 28.819 0 0 0 1-10c4.359.359 8.859.359 13.5 0 2.175 2.023 4.675 3.357 7.5 4z"/><path style="opacity:1" fill="#2f7fed" d="M211.5 180.5c3.255.415 5.922 1.915 8 4.5a279.003 279.003 0 0 1-3 4.5 6.895 6.895 0 0 0 2 4 64.102 64.102 0 0 1-8 7c-1.673-1.586-3.673-2.253-6-2 1.504-2.779 2.504-5.779 3-9 .063-1.981-.604-3.648-2-5 1.51-2.189 3.51-3.523 6-4z"/><path style="opacity:1" fill="#252b34" d="M399.5 181.5c3.116 2.446 6.45 4.78 10 7a9.108 9.108 0 0 0-1 5c-1.7.126-3.2.793-4.5 2a23.745 23.745 0 0 0-8.5-1v3c2.07-.051 3.903.615 5.5 2 2.21-1.611 4.71-2.278 7.5-2l-1 6a53.631 53.631 0 0 0-11 0c-2.329-1.498-4.163-3.498-5.5-6 .026-5.11.859-10.11 2.5-15 2.235.295 4.235-.039 6-1z"/><path style="opacity:1" fill="#2e7be6" d="M234.5 187.5c1.788-.285 3.455.048 5 1-1.222 2.478-3.222 3.478-6 3-.067-1.459.266-2.792 1-4z"/><path style="opacity:1" fill="#2e76df" d="M339.5 186.5c3.002.498 5.335 1.998 7 4.5l-2.5 7.5c-1.458 1.247-2.958 1.247-4.5 0-3.147-2.647-3.147-4.647 0-6-2.242-2.295-2.242-4.295 0-6z"/><path style="opacity:1" fill="#2e78dc" d="M397.5 187.5c4.744-.462 5.744 1.038 3 4.5-3.227-.056-4.227-1.556-3-4.5z"/><path style="opacity:1" fill="#2f7ce1" d="M281.5 187.5h4a8.43 8.43 0 0 1-.5 4c-2.071-.603-3.238-1.936-3.5-4z"/><path style="opacity:1" fill="#2f74d7" d="M314.5 186.5c4.989.168 7.989 2.668 9 7.5-2.136 4.76-5.303 5.594-9.5 2.5-.839-2.64-.339-4.973 1.5-7a5.576 5.576 0 0 1-1-3z"/><path style="opacity:1" fill="#243b95" d="M363.5 190.5c2.484 1.464 2.484 3.131 0 5 2.993 2.626 2.66 4.626-1 6a10.165 10.165 0 0 0-3-3 5.727 5.727 0 0 0-1-3 38.407 38.407 0 0 1 5-5z"/><path style="opacity:1" fill="#2f78da" d="M163.5 193.5c2.324.162 3.991 1.328 5 3.5-2.079.808-4.079.641-6-.5a5.576 5.576 0 0 0 1-3z"/><path style="opacity:1" fill="#272f37" d="M416.5 182.5a40.914 40.914 0 0 1 9 .5c1.064 1.511 2.397 1.677 4 .5v4c2.987-.078 3.653 1.089 2 3.5 2.725 2.437 2.392 4.437-1 6 3.982 3.104 3.482 5.604-1.5 7.5-1.261-.259-2.261-.926-3-2a72.645 72.645 0 0 1 0-11c-2.28-3.912-4.447-3.912-6.5 0l2 3a38.852 38.852 0 0 0-1.5 7 13.24 13.24 0 0 0-5 3 4.457 4.457 0 0 1-1.5-2c2.236-3.93 2.236-7.763 0-11.5a25.93 25.93 0 0 0 3-8.5z"/><path style="opacity:1" fill="#30677b" d="M310.5 190.5c-.466 3.662.201 6.995 2 10-1.644.214-3.144-.12-4.5-1a56.738 56.738 0 0 0-1.5-6.5c.532-2.02 1.865-2.853 4-2.5z"/><path style="opacity:1" fill="#262f71" d="M69.5 195.5a29.551 29.551 0 0 0 5 3c-2.15.405-4.15.905-6 1.5a3.646 3.646 0 0 1-1-1.5c1.112-.765 1.779-1.765 2-3z"/><path style="opacity:1" fill="#30739c" d="M329.5 195.5c.891.61 1.891.943 3 1a23.942 23.942 0 0 0 3 9c-1.788.783-2.788 2.116-3 4-2.297-2.643-2.63-5.643-1-9-.14-1.53-.807-2.53-2-3v-2z"/><path style="opacity:1" fill="#252a37" d="M359.5 198.5a10.165 10.165 0 0 1 3 3v3c-4.793-.411-5.793-2.411-3-6z"/><path style="opacity:1" fill="#262e36" d="M112.5 181.5c3.893.341 7.393 1.674 10.5 4 .529 2.085.029 3.918-1.5 5.5 1.647 2.196 1.313 4.029-1 5.5l3 2.5c-2.605 2.339-2.938 4.672-1 7-2.308 1.867-4.975 2.867-8 3l-3.5 3.5-3.5-3.5c-4.492.44-5.159-1.226-2-5 1.917.027 3.584.861 5 2.5a22.531 22.531 0 0 1 3-4c-1.897-2.666-4.564-4.166-8-4.5-3.432-2.367-3.765-5.034-1-8-1.247-1.494-1.247-2.994 0-4.5 3.007-.837 5.674-2.17 8-4z"/><path style="opacity:1" fill="#2f80f2" d="M111.5 186.5c5.074.644 6.074 2.977 3 7a6.846 6.846 0 0 1 1 4c-2.679-.173-5.013-1.173-7-3 2.486-2.078 3.486-4.745 3-8z"/><path style="opacity:1" fill="#2d82f1" d="M930.5 259.5c-1.32-1.442-2.986-2.108-5-2 .147-5.381-2.02-9.381-6.5-12a31.792 31.792 0 0 1-3.5-9l-6-1v-4h-4a145.01 145.01 0 0 0-6-9.5c-1.941-1.903-4.274-2.736-7-2.5.02-1.643-.647-2.976-2-4a143.307 143.307 0 0 1-11.5-9c-1.818 2.145-3.318 2.145-4.5 0a106.54 106.54 0 0 0-14-6 7.248 7.248 0 0 0-2-2.5 152.25 152.25 0 0 0-24-5c-.959-1.464-2.292-2.297-4-2.5a156.322 156.322 0 0 0-17.5 3c-5.743-2.766-11.243-2.433-16.5 1a7.248 7.248 0 0 1-2.5-2 43.623 43.623 0 0 0-5.5 4h-1c-2.439.553-4.773.553-7 0a47.623 47.623 0 0 1-12 5 221.38 221.38 0 0 0-11 10.5c-3.325-.225-5.658 1.108-7 4a52.141 52.141 0 0 0-10 1.5c-6.078 4.783-10.745 10.783-14 18a27.374 27.374 0 0 1-8 4 9.108 9.108 0 0 0-1 5h-3a12.93 12.93 0 0 1-.5 5 77.06 77.06 0 0 0-7 11l-5 18c-4.476 5.164-4.643 10.497-.5 16-3.293 4.486-3.626 9.153-1 14v2a15.414 15.414 0 0 1-2 4.5 553.955 553.955 0 0 0 2 14c-2.479 3.478-2.146 6.812 1 10l-2 4a6.978 6.978 0 0 1 3.5 2.5 19.06 19.06 0 0 0 2.5 7c-.985 1.598-1.151 3.265-.5 5a72.026 72.026 0 0 1 10 18c2.436 2.947 5.269 5.28 8.5 7a8.43 8.43 0 0 0 .5 4 13.92 13.92 0 0 1 4 3 40.883 40.883 0 0 0 8.5 13.5c2.056.311 4.056.811 6 1.5a18.924 18.924 0 0 0 3 5 105.321 105.321 0 0 0 17.5 8 11.456 11.456 0 0 0 2.5-1c3.606 1.627 6.606 3.96 9 7a11.456 11.456 0 0 1 2.5-1 305.697 305.697 0 0 0 8.5 4c3.198-.045 6.365-.045 9.5 0 .605 1.981 1.605 2.315 3 1a108.054 108.054 0 0 0 20 5 34.267 34.267 0 0 0 13.5-6 11.284 11.284 0 0 0 6 2c1.972-.657 3.805-.657 5.5 0 1.669-2.221 3.669-2.555 6-1 4.19-1.6 7.857-3.933 11-7 1.494 1.247 2.994 1.247 4.5 0 1.303-3.661 3.637-4.661 7-3 2.591 2.795 3.925 2.128 4-2a82.259 82.259 0 0 1 15-5c1.368-3.39 2.701-6.724 4-10a8.43 8.43 0 0 0 4-.5c3.437-3.035 7.103-5.535 11-7.5-.412-2.473.588-3.806 3-4a60.577 60.577 0 0 1-3.5 10c-2.833 1.5-5 3.667-6.5 6.5-2.15 1.411-4.484 2.245-7 2.5.17 1.322-.163 2.489-1 3.5-1.561.318-2.728 1.151-3.5 2.5a3.943 3.943 0 0 0-2-1 94.38 94.38 0 0 1-8.5 3.5c-2.574 3.995-5.907 7.161-10 9.5a135.98 135.98 0 0 0-25 5.5 36.078 36.078 0 0 0-3.5 4.5c-2.423-2.494-4.756-2.494-7 0-3.482-1.577-6.148-.577-8 3-.804-1.304-1.971-1.971-3.5-2-5.913.055-11.413.388-16.5 1a91.738 91.738 0 0 1-11-4c-.739 1.074-1.739 1.741-3 2a29.105 29.105 0 0 0-8-3l-1 1a170.46 170.46 0 0 0-18-11c-2.719.944-5.552 1.277-8.5 1a6.846 6.846 0 0 0-1-4 60.377 60.377 0 0 0-10-3.5 98.286 98.286 0 0 0-13-11 109.127 109.127 0 0 0-7.5-12.5c-3.955-5.289-8.622-9.955-14-14-1.595-4.202-3.928-7.868-7-11a40.647 40.647 0 0 0-3.5-10c.972-2.964 1.138-5.964.5-9l-3-2a341.945 341.945 0 0 1-2.5-8.5 9.839 9.839 0 0 1 1-4c-3.329-1.941-3.662-4.441-1-7.5a14.972 14.972 0 0 0-3-3.5c2.553-2.945 2.553-5.945 0-9 2.12-2.867 2.12-5.867 0-9a4.457 4.457 0 0 0 2-1.5 50.882 50.882 0 0 0-3-12 7.248 7.248 0 0 1 2-2.5 62.134 62.134 0 0 0 0-8.5c.847-1.345 2.013-2.345 3.5-3 .922-4.055 2.589-7.721 5-11 .536-2.067.036-3.901-1.5-5.5 3.412-3.575 5.745-7.741 7-12.5 4.022-4.978 7.855-10.645 11.5-17 2.667-1.333 4.667-3.333 6-6 .414.457.914.791 1.5 1 1.145-1.276 1.145-2.609 0-4 1.189-.929 2.522-1.262 4-1v-3a6.846 6.846 0 0 1 4 1c.952-1.545 1.285-3.212 1-5h4c-.391-3.338.776-4.338 3.5-3 4.577-.528 7.743-2.861 9.5-7a42.952 42.952 0 0 0 10-6.5 12.93 12.93 0 0 1 5-.5 4.934 4.934 0 0 1 .5-3 18.08 18.08 0 0 0 3.5 2 86.014 86.014 0 0 0 12-3.5l2.5-2.5c5.228.776 10.395.776 15.5 0 1.816-2.564 3.649-2.564 5.5 0a4.457 4.457 0 0 1 1.5-2c4.147.779 7.647-.554 10.5-4a32.367 32.367 0 0 1 4.5 3c1.469-1.875 3.302-1.875 5.5 0 4.006-.164 8.006-.164 12 0a13.605 13.605 0 0 1 6 3c3.099-1.19 5.599-.356 7.5 2.5 3.156-.053 5.656 1.114 7.5 3.5 1.537.413 3.204.413 5 0a34.66 34.66 0 0 1 7.5 6.5c1.601.273 3.101.773 4.5 1.5 2.292-1.101 3.792-.268 4.5 2.5a8.43 8.43 0 0 0 4 .5c.013 2.861 1.179 3.861 3.5 3 .442 2.179 1.442 2.845 3 2a124.405 124.405 0 0 0 7.5 5c-.219 1.175.114 2.175 1 3a41.374 41.374 0 0 1 8.5 9 8.43 8.43 0 0 1 .5 4c4.668-.661 6.668 1.339 6 6 2.216-.225 3.883.608 5 2.5-1.017 1.049-1.184 2.216-.5 3.5a34.534 34.534 0 0 0 5.5 6c.153 2.583.82 5.249 2 8z"/><path style="opacity:1" fill="#2873d5" d="M905.5 231.5c.065.438-.101.772-.5 1-2.624-4.485-6.458-6.485-11.5-6-1.674-3.859-4.007-7.359-7-10.5a529.05 529.05 0 0 1-25-11.5 7.248 7.248 0 0 0-2-2.5c-3.591-.789-7.091-.622-10.5.5a202.79 202.79 0 0 0-9.5-4h-9c-.886-.825-1.219-1.825-1-3a147.426 147.426 0 0 1-33 0c-2.376 3.545-5.042 3.879-8 1a43.623 43.623 0 0 1 5.5-4 7.248 7.248 0 0 0 2.5 2c5.257-3.433 10.757-3.766 16.5-1a156.322 156.322 0 0 1 17.5-3c1.708.203 3.041 1.036 4 2.5a152.25 152.25 0 0 1 24 5 7.248 7.248 0 0 1 2 2.5 106.54 106.54 0 0 1 14 6c1.182 2.145 2.682 2.145 4.5 0a143.307 143.307 0 0 0 11.5 9c1.353 1.024 2.02 2.357 2 4 2.726-.236 5.059.597 7 2.5a145.01 145.01 0 0 1 6 9.5z"/><path style="opacity:1" fill="#205eac" d="M905.5 231.5h1c3.556 5.759 5.223 12.092 5 19a12.93 12.93 0 0 1-5-.5 55.026 55.026 0 0 1-3-8.5c-1.412-1.306-3.079-2.14-5-2.5-1.081-2.685-2.748-4.851-5-6.5a17.886 17.886 0 0 0-3-6 6.846 6.846 0 0 1-4 1v-3a4.934 4.934 0 0 1-3-.5c-1.674-1.506-2.674-3.339-3-5.5a4649.964 4649.964 0 0 0-17-6c-.551-2.59-1.884-3.256-4-2-8-2.729-15.667-5.895-23-9.5-3.403-.738-6.57-.238-9.5 1.5-3.762-.314-7.262-1.314-10.5-3-.886.825-1.219 1.825-1 3a60.13 60.13 0 0 1-14.5-1 12.21 12.21 0 0 0-4 3 27.395 27.395 0 0 0-3.5-1 279.003 279.003 0 0 1-4.5 3 11.456 11.456 0 0 1-2.5-1c-2.584 2.755-5.584 3.421-9 2-1.9.947-3.233 2.447-4 4.5-3.957 2.086-8.291 3.419-13 4a13.015 13.015 0 0 0-4 4.5c-1.189.929-2.522 1.262-4 1-.299 3.142-1.966 5.309-5 6.5-3.876-.03-6.209 1.803-7 5.5h-5a4.934 4.934 0 0 1 .5-3 43.68 43.68 0 0 1 9.5-5.5c1.378-3.637 4.045-5.137 8-4.5-.322-2.222.345-4.056 2-5.5a60.502 60.502 0 0 0 13-6c4.322-5.241 9.989-8.241 17-9a18.473 18.473 0 0 0 2-3.5h1c2.958 2.879 5.624 2.545 8-1a147.426 147.426 0 0 0 33 0c-.219 1.175.114 2.175 1 3h9a202.79 202.79 0 0 1 9.5 4c3.409-1.122 6.909-1.289 10.5-.5a7.248 7.248 0 0 1 2 2.5 529.05 529.05 0 0 0 25 11.5c2.993 3.141 5.326 6.641 7 10.5 5.042-.485 8.876 1.515 11.5 6 .399-.228.565-.562.5-1z"/><path style="opacity:1" fill="#268a73" d="M849.5 216.5c4.496 2.992 8.662 2.658 12.5-1a39.702 39.702 0 0 0 14.5 6c.069 2.584 1.235 4.584 3.5 6l1-1c2.289 5.031 1.789 9.697-1.5 14-3.315.472-5.649 2.305-7 5.5l-2.5.5a32.107 32.107 0 0 0-9.5-2.5c-2.551-2.394-4.551-5.227-6-8.5l3-2c-1.586-1.673-2.253-3.673-2-6-3.984.028-4.984-1.639-3-5a23.832 23.832 0 0 1-9-1l-3 2c-1.342-1.505-3.008-2.172-5-2v-3c2.481.177 4.314-.823 5.5-3 2.719.944 5.552 1.277 8.5 1z"/><path style="opacity:1" fill="#27857f" d="M863.5 212.5c5.71 2.003 11.377 4.003 17 6 .326 2.161 1.326 3.994 3 5.5a4.934 4.934 0 0 0 3 .5v3a6.846 6.846 0 0 0 4-1 17.886 17.886 0 0 1 3 6c-1.236 3.621-3.236 3.955-6 1-1.848 3.259-4.515 5.592-8 7 3.289-4.303 3.789-8.969 1.5-14l-1 1c-2.265-1.416-3.431-3.416-3.5-6a39.702 39.702 0 0 1-14.5-6c-3.838 3.658-8.004 3.992-12.5 1 2.516-1.697 5.349-3.03 8.5-4l4 2c1.03-.336 1.53-1.003 1.5-2z"/><path style="opacity:1" fill="#252b34" d="M75.5 220.5c5.713 1.762 7.38 5.428 5 11 4.807.422 5.807 2.422 3 6a66.034 66.034 0 0 0 4 8c-.228 1.897-1.228 3.23-3 4a99.85 99.85 0 0 1-2-5.5c-4.281-1.628-8.614-1.795-13-.5-.973 3.648-3.306 5.314-7 5 1.048-4.788 2.715-9.455 5-14l-1-2a21.326 21.326 0 0 0 5-10c1.525-.494 2.859-1.161 4-2z"/><path style="opacity:1" fill="#1c6ba0" d="M863.5 212.5c.03.997-.47 1.664-1.5 2l-4-2c-3.151.97-5.984 2.303-8.5 4-2.948.277-5.781-.056-8.5-1-1.186 2.177-3.019 3.177-5.5 3v3c1.992-.172 3.658.495 5 2l3-2a23.832 23.832 0 0 0 9 1c-1.984 3.361-.984 5.028 3 5-.253 2.327.414 4.327 2 6l-3 2c1.449 3.273 3.449 6.106 6 8.5a32.107 32.107 0 0 1 9.5 2.5l2.5-.5c1.351-3.195 3.685-5.028 7-5.5 3.485-1.408 6.152-3.741 8-7 2.764 2.955 4.764 2.621 6-1 2.252 1.649 3.919 3.815 5 6.5 1.921.36 3.588 1.194 5 2.5a55.026 55.026 0 0 0 3 8.5 12.93 12.93 0 0 0 5 .5v1c-.978.311-1.645.978-2 2 2.607 2.495 4.273 5.495 5 9h4a12.93 12.93 0 0 0 .5 5 15.6 15.6 0 0 1 3.5 7.5c-.848 3.401-.848 6.567 0 9.5-1.79 2.33-3.29 4.997-4.5 8a35.193 35.193 0 0 1-4.5 1c1.123 2.63.457 4.63-2 6-1.735-5.723-4.402-6.556-8-2.5a8.43 8.43 0 0 1-4 .5l1 6c-2.403-.107-4.236.893-5.5 3-2.238 2.104-3.238 4.438-3 7-2.904 1.857-4.571 4.524-5 8-1.813-1.109-2.646-.442-2.5 2-2.412.256-4.079-.744-5-3 1.189-.929 2.522-1.262 4-1 .203-1.89-.463-3.39-2-4.5 2.478-1.938 2.645-4.105.5-6.5a37.865 37.865 0 0 0-7.5-3c.423-2.743-.744-4.076-3.5-4-4.948 1.781-8.448 5.114-10.5 10a14.972 14.972 0 0 0-3.5-3c-1.494 1.247-2.994 1.247-4.5 0 1.821-1.972 1.988-4.306.5-7a6.978 6.978 0 0 0-3.5-2.5 48.165 48.165 0 0 0 5-2.5c-2.544-1.437-2.544-2.937 0-4.5-2.309-2.051-4.476-1.884-6.5.5l-1-4c-3.891-1.251-4.724-3.251-2.5-6l-2-1a13.139 13.139 0 0 1-6 2c.262-1.478-.071-2.811-1-4a3.647 3.647 0 0 0-1.5 1 26.416 26.416 0 0 1-4.5-4 308.607 308.607 0 0 1 3-4c2.314-.679 2.647-2.012 1-4l2.5-1a75.806 75.806 0 0 0 6.5 2.5c.951-.718 1.117-1.551.5-2.5-7.02-2.351-7.187-5.018-.5-8a5.576 5.576 0 0 0 3 1c.397 1.025 1.063 1.192 2 .5a13.315 13.315 0 0 1 3-4.5 23.411 23.411 0 0 1-3-7c-5.34-.72-10.34-2.386-15-5 2.136-2.46 4.802-4.127 8-5a944.205 944.205 0 0 0-4-7c.219-1.175-.114-2.175-1-3-3.273 2.892-5.606 2.392-7-1.5-1.735-.651-3.402-.485-5 .5a9.425 9.425 0 0 1-3-3c-2.534 1.276-5.034 1.61-7.5 1-.749-1.135-.583-2.135.5-3 3.941-.338 7.275-1.838 10-4.5a12.93 12.93 0 0 1 5-.5c.17-1.322-.163-2.489-1-3.5-5.177-2.918-9.844-2.584-14 1-3.429 1.548-6.596 1.382-9.5-.5-1.622.454-2.788 1.454-3.5 3 4.97.592 8.303 3.258 10 8a14.748 14.748 0 0 0-4.5 3c-.749 1.135-.583 2.135.5 3l3-2c5.03.667 10.03 1.334 15 2-.605 1.526-1.771 2.526-3.5 3-.78 1.887-.613 3.554.5 5v6c.518 3.817-.815 6.817-4 9 1.09 1.109 1.09 2.109 0 3a44.093 44.093 0 0 0-2-3 6.846 6.846 0 0 0-4 1c-2.05-.577-3.05-1.91-3-4l-8-1c-1.029-2.364-1.029-4.697 0-7a42.412 42.412 0 0 0 6-6.5c-.167-1.5-1-2.333-2.5-2.5a14.093 14.093 0 0 1-3.5 1c-.734-1.208-1.067-2.541-1-4h-3a54.237 54.237 0 0 1-6-2c2.062-3.241 4.729-5.575 8-7 1.205-1.91.538-3.243-2-4l-3 2a13.049 13.049 0 0 0-4-3c-.916.043-1.583.376-2 1-2.219 1.565-2.552 3.565-1 6a185.977 185.977 0 0 0-2 3h-3a12.93 12.93 0 0 0-.5-5c-1.972-.805-3.472-2.139-4.5-4-1.196 1.059-1.863 2.393-2 4 1.641 2.726.974 4.726-2 6-4.456-2.027-6.123-.86-5 3.5 2.31.497 4.643.663 7 .5-2.071 1.309-4.571 1.975-7.5 2-5.398.588-10.232-.746-14.5-4-.452 2.568-1.952 3.901-4.5 4a96.953 96.953 0 0 1-7.5-2c.791-3.697 3.124-5.53 7-5.5 3.034-1.191 4.701-3.358 5-6.5 1.478.262 2.811-.071 4-1a13.015 13.015 0 0 1 4-4.5c4.709-.581 9.043-1.914 13-4 .767-2.053 2.1-3.553 4-4.5 3.416 1.421 6.416.755 9-2 .793.431 1.627.765 2.5 1a279.003 279.003 0 0 0 4.5-3c1.189.256 2.356.589 3.5 1a12.21 12.21 0 0 1 4-3 60.13 60.13 0 0 0 14.5 1c-.219-1.175.114-2.175 1-3 3.238 1.686 6.738 2.686 10.5 3 2.93-1.738 6.097-2.238 9.5-1.5 7.333 3.605 15 6.771 23 9.5 2.116-1.256 3.449-.59 4 2z"/><path style="opacity:1" fill="#27867d" d="M764.5 221.5c1.175-.219 2.175.114 3 1-1.586 1.673-2.253 3.673-2 6a16.597 16.597 0 0 1-7 .5c-1.231-1.183-1.231-2.349 0-3.5a6.846 6.846 0 0 0 4 1c-.108-2.014.558-3.68 2-5z"/><path style="opacity:1" fill="#25857b" d="M798.5 223.5c-2.744-1.01-5.077-.676-7 1-.929-1.189-1.262-2.522-1-4-1.291.237-2.291-.096-3-1 .417-.624 1.084-.957 2-1a13.049 13.049 0 0 1 4 3l3-2c2.538.757 3.205 2.09 2 4z"/><path style="opacity:1" fill="#258a6f" d="M836.5 232.5a37.595 37.595 0 0 1-8 1c-1.068-.934-2.401-1.268-4-1-4.97-.666-9.97-1.333-15-2l-3 2c-1.083-.865-1.249-1.865-.5-3a14.748 14.748 0 0 1 4.5-3c-1.697-4.742-5.03-7.408-10-8 .712-1.546 1.878-2.546 3.5-3 2.904 1.882 6.071 2.048 9.5.5 4.156-3.584 8.823-3.918 14-1 .837 1.011 1.17 2.178 1 3.5a12.93 12.93 0 0 0-5 .5c-2.725 2.662-6.059 4.162-10 4.5-1.083.865-1.249 1.865-.5 3 2.466.61 4.966.276 7.5-1a9.425 9.425 0 0 0 3 3c1.598-.985 3.265-1.151 5-.5 1.394 3.892 3.727 4.392 7 1.5.886.825 1.219 1.825 1 3z"/><path style="opacity:1" fill="#272f39" d="M102.5 225.5a27.68 27.68 0 0 1 8 6 604.676 604.676 0 0 1-3 3.5c3.019 1.701 3.519 3.867 1.5 6.5l-1 11-1.5 1.5c-4.564.049-8.897.883-13 2.5-1.5.047-2.5-.619-3-2a31.648 31.648 0 0 1 5.5-4c.945.405 1.612 1.072 2 2 1.263-2.107 3.097-3.107 5.5-3a6.846 6.846 0 0 1 1-4c-1.189-.929-2.522-1.262-4-1v3l-8-3c-.288-3.92-1.455-7.254-3.5-10 2.505-1.696 4.005-4.03 4.5-7 .793.431 1.627.765 2.5 1 2.609-.338 4.776-1.338 6.5-3z"/><path style="opacity:1" fill="#27303b" d="M119.5 227.5c6.628-1.269 11.461 1.064 14.5 7 1.03 4.635-.637 5.968-5 4a9.258 9.258 0 0 0-2.5 2 6.846 6.846 0 0 0-4-1v5a44.866 44.866 0 0 1 10-1c.17 1.322-.163 2.489-1 3.5a89.688 89.688 0 0 0-9 2.5 24.073 24.073 0 0 0-8.5-5c-.93-3.35-.097-6.183 2.5-8.5a3.943 3.943 0 0 1-1-2 115.749 115.749 0 0 0 4-6.5z"/><path style="opacity:1" fill="#28313c" d="M147.5 226.5a13.116 13.116 0 0 1 7 1l-2 4c4.782 5.632 5.449 11.632 2 18a29.825 29.825 0 0 1-5-2c1.839-2.027 2.339-4.36 1.5-7a24.365 24.365 0 0 1-2.5-5.5 8.43 8.43 0 0 0-4-.5c.86 2.316 1.36 4.649 1.5 7a12.795 12.795 0 0 0-3 6c-1.011.837-2.178 1.17-3.5 1 .203-1.89-.463-3.39-2-4.5 1.648-5.041 1.315-10.208-1-15.5 2.978-1.149 5.978-1.149 9 0 1.213-.247 1.88-.914 2-2z"/><path style="opacity:1" fill="#272f39" d="M171.5 226.5c6.908 1.712 7.408 4.045 1.5 7-1.333-1.333-2.667-1.333-4 0-2.19 2.283-2.857 4.949-2 8a50.33 50.33 0 0 1 10.5 5c-1.259 3.506-3.092 3.84-5.5 1a19.522 19.522 0 0 1-7.5 1c.349-3.49-1.151-5.823-4.5-7-.804-4.237-.304-8.237 1.5-12 3.707-.104 7.04-1.104 10-3z"/><path style="opacity:1" fill="#22788d" d="M787.5 219.5c.709.904 1.709 1.237 3 1-.262 1.478.071 2.811 1 4 1.923-1.676 4.256-2.01 7-1-3.271 1.425-5.938 3.759-8 7a54.237 54.237 0 0 0 6 2c.259 5.119-1.574 6.119-5.5 3-1.653.32-2.653 1.32-3 3-1.699-.906-3.533-1.239-5.5-1-.238-2.908.762-5.242 3-7a43.836 43.836 0 0 1-1-2c.641-.982 1.307-1.982 2-3-1.552-2.435-1.219-4.435 1-6z"/><path style="opacity:1" fill="#262d36" d="M197.5 238.5c-1.624-.14-2.79.527-3.5 2a24.935 24.935 0 0 0-.5 7c-.433 2.759-2.1 4.092-5 4 .262 1.478-.071 2.811-1 4a37.291 37.291 0 0 0-7-.5c-2.503-1.549-2.503-3.216 0-5 2.829-.048 5.163-1.048 7-3-1.065-2.406-2.398-4.573-4-6.5a34.251 34.251 0 0 1-1.5-8c-2.758-1.273-3.091-2.94-1-5 1.356.88 2.856 1.214 4.5 1 .891 3.641 2.557 6.974 5 10 2.869-3.118 4.702-6.785 5.5-11 1.183-1.231 2.349-1.231 3.5 0a26.433 26.433 0 0 1-3 6.5c.648 1.44.981 2.94 1 4.5z"/><path style="opacity:1" fill="#2f7de3" d="M121.5 231.5c2.835.569 4.501 2.236 5 5-4 .667-5.667-1-5-5z"/><path style="opacity:1" fill="#2f81ed" d="M72.5 233.5a51.56 51.56 0 0 0 7 1c.423 2.743-.744 4.076-3.5 4-3.517-.315-4.684-1.982-3.5-5z"/><path style="opacity:1" fill="#1e758b" d="M824.5 232.5c1.599-.268 2.932.066 4 1-1.657 3.353-.657 5.353 3 6v3c-3.258-1.771-6.591-2.437-10-2-1.113-1.446-1.28-3.113-.5-5 1.729-.474 2.895-1.474 3.5-3z"/><path style="opacity:1" fill="#248e64" d="M784.5 228.5c.304.65.637 1.317 1 2-2.238 1.758-3.238 4.092-3 7 1.967-.239 3.801.094 5.5 1 .347-1.68 1.347-2.68 3-3 3.926 3.119 5.759 2.119 5.5-3h3c-.067 1.459.266 2.792 1 4-.453.958-1.119 1.792-2 2.5-2.951.096-5.618.929-8 2.5a3.647 3.647 0 0 1-1.5-1c-1.012 2.926-2.845 3.76-5.5 2.5a701.173 701.173 0 0 1-26 19.5 51.569 51.569 0 0 1-1 7c-1.878-2.052-3.545-4.386-5-7-.028-2.751-1.028-5.085-3-7a14.488 14.488 0 0 1 5.5-5 4.934 4.934 0 0 0 .5-3c4.481.537 5.814-1.13 4-5 2.436.183 4.603-.484 6.5-2l1 1c1.188-1.063 1.688-2.397 1.5-4a21.127 21.127 0 0 0 9-1c1.505-1.342 2.172-3.008 2-5-1.88-.271-3.213.396-4 2a24.935 24.935 0 0 1-7-.5c-1.123-4.36.544-5.527 5-3.5 2.974-1.274 3.641-3.274 2-6 .137-1.607.804-2.941 2-4 1.028 1.861 2.528 3.195 4.5 4a12.93 12.93 0 0 1 .5 5h3z"/><path style="opacity:1" fill="#268973" d="M774.5 233.5c.787-1.604 2.12-2.271 4-2 .172 1.992-.495 3.658-2 5a21.127 21.127 0 0 1-9 1c.188 1.603-.312 2.937-1.5 4l-1-1c-1.897 1.516-4.064 2.183-6.5 2 1.814 3.87.481 5.537-4 5a4.934 4.934 0 0 1-.5 3 14.488 14.488 0 0 0-5.5 5c1.972 1.915 2.972 4.249 3 7-3.242-1.53-4.742-4.196-4.5-8-1.011-.837-2.178-1.17-3.5-1-.029-3.156-1.696-4.822-5-5-3.979 1.089-7.645.422-11-2v-3h4v-4h4v-6h5a96.953 96.953 0 0 0 7.5 2c2.548-.099 4.048-1.432 4.5-4 4.268 3.254 9.102 4.588 14.5 4 2.929-.025 5.429-.691 7.5-2z"/><path style="opacity:1" fill="#2c6deb" d="M97.5 234.5c4.012-.613 6.012 1.054 6 5-1.7.126-3.2.793-4.5 2-5.35-1.356-5.85-3.69-1.5-7z"/><path style="opacity:1" fill="#228b65" d="M808.5 233.5a9.108 9.108 0 0 1 5 1 21.127 21.127 0 0 1 1 9c-1.644.214-3.144-.12-4.5-1 .004-2.942-.496-5.942-1.5-9z"/><path style="opacity:1" fill="#242e70" d="M197.5 238.5c-.192 3.602-1.526 6.602-4 9-.163-2.357.003-4.69.5-7 .71-1.473 1.876-2.14 3.5-2z"/><path style="opacity:1" fill="#228f5b" d="M836.5 232.5a944.205 944.205 0 0 1 4 7c-3.198.873-5.864 2.54-8 5 4.66 2.614 9.66 4.28 15 5a23.411 23.411 0 0 0 3 7 13.315 13.315 0 0 0-3 4.5c-.937.692-1.603.525-2-.5 1.122-1.552 1.622-3.218 1.5-5a3.943 3.943 0 0 1-2 1 53.369 53.369 0 0 0-10-7 7.248 7.248 0 0 1-2.5 2 118.331 118.331 0 0 0-7.5-3c-.902.243-1.735.577-2.5 1 .237-1.291-.096-2.291-1-3v-6c3.409-.437 6.742.229 10 2v-3c-3.657-.647-4.657-2.647-3-6a37.595 37.595 0 0 0 8-1z"/><path style="opacity:1" fill="#219157" d="M800.5 251.5c-4.386 1.682-8.719 2.849-13 3.5-.72 2.122-1.887 2.622-3.5 1.5a4.934 4.934 0 0 0-.5 3 73.516 73.516 0 0 0-13 9.5c-1.817 1.8-2.984 3.966-3.5 6.5-2.264 1.351-4.098 3.017-5.5 5l-4-4c-.778-.656-1.444-1.489-2-2.5.648-1.44.981-2.94 1-4.5a51.569 51.569 0 0 0 1-7 701.173 701.173 0 0 0 26-19.5c2.655 1.26 4.488.426 5.5-2.5.414.457.914.791 1.5 1 2.382-1.571 5.049-2.404 8-2.5.881-.708 1.547-1.542 2-2.5a14.093 14.093 0 0 0 3.5-1c1.5.167 2.333 1 2.5 2.5a42.412 42.412 0 0 1-6 6.5c-1.029 2.303-1.029 4.636 0 7z"/><path style="opacity:1" fill="#1c7d77" d="M821.5 246.5c.904.709 1.237 1.709 1 3 1.996 3.341 1.163 5.674-2.5 7a12.93 12.93 0 0 0-.5 5c-3.568-.259-4.901-2.259-4-6a44.093 44.093 0 0 1 2 3c1.09-.891 1.09-1.891 0-3 3.185-2.183 4.518-5.183 4-9z"/><path style="opacity:1" fill="#1c6ea5" d="M727.5 246.5c3.355 2.422 7.021 3.089 11 2 3.304.178 4.971 1.844 5 5 1.322-.17 2.489.163 3.5 1-.242 3.804 1.258 6.47 4.5 8 1.455 2.614 3.122 4.948 5 7a11.187 11.187 0 0 1-1 4.5c.556 1.011 1.222 1.844 2 2.5a130.48 130.48 0 0 1-5 9.5c1.996 2.324 1.496 4.491-1.5 6.5-1.156-1.493-1.99-1.326-2.5.5.488 1.584 1.488 2.751 3 3.5-5.234.872-6.234 3.372-3 7.5-.601 1.605-1.601 2.938-3 4 2.063 1.572 2.729 3.405 2 5.5 3.19 3.319 2.523 5.485-2 6.5 1.708 1.51 3.374 3.01 5 4.5a10.258 10.258 0 0 1-4 1.5c1.718 1.037 3.551 1.537 5.5 1.5a274.239 274.239 0 0 0-.5 10c.825.886 1.825 1.219 3 1a20.093 20.093 0 0 0 1.5 6c4.169 3.35 7.669 7.35 10.5 12-.826.951-.992 1.951-.5 3 2.506 2.363 5.339 4.03 8.5 5 .17 1.322-.163 2.489-1 3.5 2 .667 4 .667 6 0-1.076-1.726-1.243-3.559-.5-5.5 1.11 1.537 2.61 2.203 4.5 2a18.453 18.453 0 0 1 .5-6c.71-1.473 1.876-2.14 3.5-2-.49-2.448.343-4.115 2.5-5a33.508 33.508 0 0 1 5.5 6 18.33 18.33 0 0 0 6-4 33.74 33.74 0 0 1 7-2c2.069.285 3.402 1.452 4 3.5a65.75 65.75 0 0 1 10 1.5c1.45 1.35 2.117 3.016 2 5 6-1.333 8.333 1 7 7-.567 2.198-.567 4.531 0 7-.332 4.677-1.665 9.01-4 13a9.258 9.258 0 0 1 2 2.5 12.992 12.992 0 0 0-1 5.5c-1.674 4.209-.674 7.876 3 11a6.846 6.846 0 0 0-1 4l10 1a76.691 76.691 0 0 0-3-11c6.557-.895 6.557-1.895 0-3a5.576 5.576 0 0 0 1-3c1.172-1.205 2.505-1.205 4 0 1.662-4.996 4.996-8.329 10-10 1.218-1.303.885-2.303-1-3 1.506-1.247 3.006-1.247 4.5 0a11.142 11.142 0 0 0 3.5-5.5 8.43 8.43 0 0 1 4-.5c.204-3.018.537-6.018 1-9h9c-.744-3.45.59-5.116 4-5-.153-3.077.514-5.911 2-8.5a6.293 6.293 0 0 0-1-3c2.649-1.631 4.316-3.965 5-7a10.515 10.515 0 0 0-3-2.5c.086-.996-.248-1.829-1-2.5-3.007.703-6.007.369-9-1a13.92 13.92 0 0 1-3-4 8.43 8.43 0 0 0-4-.5c-.996-.086-1.829.248-2.5 1 .806-2.671.639-5.338-.5-8a20.69 20.69 0 0 0-5 1v-5h-4c-2.01-1.54-4.344-2.54-7-3-.568-1.935-1.735-3.268-3.5-4-2.055 1.192-4.055 1.192-6 0-1.11 1.537-2.61 2.203-4.5 2 .219-1.175-.114-2.175-1-3a16.84 16.84 0 0 0-6 4.5 64.934 64.934 0 0 1-9-.5 23.788 23.788 0 0 0 .5-10 63.91 63.91 0 0 1-5.5-1c1.365-2.251 1.031-4.251-1-6-3.423 1.192-6.256 3.192-8.5 6a12.14 12.14 0 0 1-3.5-4.5 8.43 8.43 0 0 0-4-.5c-.222-2.89.445-5.557 2-8a33.473 33.473 0 0 1 12.5-6c1.558 2.268 3.724 3.434 6.5 3.5a86.818 86.818 0 0 1 3 5.5v3c-1.175-.219-2.175.114-3 1a44.375 44.375 0 0 0 9 3c-1.355 1.175-1.188 2.175.5 3 1.694-2.183 1.861-4.516.5-7a31.642 31.642 0 0 0-5-3c1.184-1.188 1.184-2.355 0-3.5a7.248 7.248 0 0 0 2-2.5c-1.515-1.091-2.348-2.424-2.5-4 2.183-1.876 4.683-3.209 7.5-4 1.333-1 1.333-2 0-3 1.11-1.7 2.443-3.034 4-4a26.416 26.416 0 0 0 4.5 4 3.647 3.647 0 0 1 1.5-1c.929 1.189 1.262 2.522 1 4a13.139 13.139 0 0 0 6-2l2 1c-2.224 2.749-1.391 4.749 2.5 6l1 4c2.024-2.384 4.191-2.551 6.5-.5-2.544 1.563-2.544 3.063 0 4.5a48.165 48.165 0 0 1-5 2.5 6.978 6.978 0 0 1 3.5 2.5c1.488 2.694 1.321 5.028-.5 7 1.506 1.247 3.006 1.247 4.5 0a14.972 14.972 0 0 1 3.5 3c2.052-4.886 5.552-8.219 10.5-10 2.756-.076 3.923 1.257 3.5 4a37.865 37.865 0 0 1 7.5 3c2.145 2.395 1.978 4.562-.5 6.5 1.537 1.11 2.203 2.61 2 4.5-1.478-.262-2.811.071-4 1 .921 2.256 2.588 3.256 5 3-.146-2.442.687-3.109 2.5-2 .429-3.476 2.096-6.143 5-8-.238-2.562.762-4.896 3-7 1.264-2.107 3.097-3.107 5.5-3l-1-6a8.43 8.43 0 0 0 4-.5c3.598-4.056 6.265-3.223 8 2.5-2.352 1.452-2.685 3.452-1 6-4.18 5.469-3.18 9.803 3 13 .929 1.189 1.262 2.522 1 4h5c.241 5.785 2.241 6.452 6 2a241.424 241.424 0 0 0-2 20c-1.175-.219-2.175.114-3 1 1.45 1.35 2.117 3.016 2 5h-3c.951 4.699-.716 8.032-5 10a133.589 133.589 0 0 1-4 11c-1.322-.17-2.489.163-3.5 1a8.192 8.192 0 0 1-2.5 4c.782 1.829.116 3.329-2 4.5l1 1c-1.846 2.092-4.179 3.426-7 4-6.342 10.504-15.342 17.671-27 21.5l-1.5 3c-1.011-.837-2.178-1.17-3.5-1-.266 3.579-1.599 3.913-4 1a52.108 52.108 0 0 0-8 5.5c-2.269.758-4.436.591-6.5-.5-.197 2.361-1.364 4.028-3.5 5a57.215 57.215 0 0 0-7-1c-2.759 1.945-5.759 1.945-9 0-5.385 3.464-10.885 3.798-16.5 1-1.964-.022-4.131.312-6.5 1-2.16-.266-3.826-1.266-5-3a14.972 14.972 0 0 0-3.5 3c-1.356-.88-2.856-1.214-4.5-1 .214-1.644-.12-3.144-1-4.5-3.26-.784-6.427-.617-9.5.5a9.454 9.454 0 0 0-1.5-2.5 45.8 45.8 0 0 0-9-2.5c.17-1.322-.163-2.489-1-3.5a20.431 20.431 0 0 1-5.5-1.5 4.934 4.934 0 0 1-.5-3c-4.362.134-8.362-.866-12-3v-5c-2.559.11-4.892-.556-7-2a121.812 121.812 0 0 0-5.5-6 4.934 4.934 0 0 1-.5-3h-6c1.984-3.361.984-5.028-3-5-.445-2.78-.445-5.447 0-8a20.855 20.855 0 0 0-6.5-3c-.346-2.348-1.513-4.181-3.5-5.5 1.507-.837 2.007-2.004 1.5-3.5a13.24 13.24 0 0 1-5-3 33.586 33.586 0 0 0-3.5-12l1-4c-1.667-4.678-3.334-9.344-5-14-.894-10.894-.894-21.894 0-33 2.196-2.922 3.529-6.256 4-10a11.456 11.456 0 0 1-1-2.5 14.592 14.592 0 0 0 4-5c-1.317-3.73-.15-6.563 3.5-8.5.117-3.442 1.283-6.442 3.5-9a6.846 6.846 0 0 1-1-4c2.436.183 4.603-.484 6.5-2-.284-2.179-.117-4.179.5-6z"/><path style="opacity:1" fill="#1f9647" d="M845.5 260.5a5.576 5.576 0 0 1-3-1c-6.687 2.982-6.52 5.649.5 8 .617.949.451 1.782-.5 2.5a75.806 75.806 0 0 1-6.5-2.5l-2.5 1c1.647 1.988 1.314 3.321-1 4 1.206-1.38.873-2.547-1-3.5-1.941-.743-3.774-.576-5.5.5-1.18-1.184-2.68-1.851-4.5-2-2.893.817-5.726.817-8.5 0-5.191.758-9.858 2.092-14 4a3.943 3.943 0 0 1-2-1 39.216 39.216 0 0 0-6.5 8.5 8.905 8.905 0 0 0-4 3 8.43 8.43 0 0 1-4 .5c-.17 1.322.163 2.489 1 3.5-2.127 1.051-3.793 2.551-5 4.5-.693 2.749-1.027 5.416-1 8-.876.131-1.543-.202-2-1 1.174-4.673-.826-6.839-6-6.5a14.506 14.506 0 0 0-5-4 20.303 20.303 0 0 0-3-6.5c1.402-1.983 3.236-3.649 5.5-5 .516-2.534 1.683-4.7 3.5-6.5a73.516 73.516 0 0 1 13-9.5 4.934 4.934 0 0 1 .5-3c1.613 1.122 2.78.622 3.5-1.5 4.281-.651 8.614-1.818 13-3.5l8 1c-.05 2.09.95 3.423 3 4a6.846 6.846 0 0 1 4-1c-.901 3.741.432 5.741 4 6a12.93 12.93 0 0 1 .5-5c3.663-1.326 4.496-3.659 2.5-7a11.123 11.123 0 0 1 2.5-1c2.48.893 4.98 1.893 7.5 3a7.248 7.248 0 0 0 2.5-2 53.369 53.369 0 0 1 10 7 3.943 3.943 0 0 0 2-1c.122 1.782-.378 3.448-1.5 5z"/><path style="opacity:1" fill="#27313c" d="M124.5 277.5c.117-1.984-.55-3.65-2-5 2.059-1.451 3.059-3.451 3-6 1.439-1.009 2.772-.676 4 1 2.365-.789 4.699-.456 7 1 1.35-1.45 3.016-2.117 5-2a8.43 8.43 0 0 0 .5 4c2.172 1.009 3.338 2.676 3.5 5-3.45-.744-5.116.59-5 4 3.658.806 3.658 2.139 0 4-2.415-.219-3.415-1.552-3-4h-4v-10a51.569 51.569 0 0 1-7 1c1.69 3.203 1.023 5.536-2 7z"/><path style="opacity:1" fill="#283543" d="M88.5 267.5c3.083.566 6.083.566 9 0 2.236 6.871-.098 9.371-7 7.5-.837 1.011-1.17 2.178-1 3.5h-3c1.625-2.755 1.292-5.255-1-7.5a14.694 14.694 0 0 0 3-3.5z"/><path style="opacity:1" fill="#262c35" d="M111.5 267.5c2.361.174 4.694.507 7 1a54.968 54.968 0 0 0 1 12c-3.43 1.39-6.764 1.224-10-.5-.923-2.041-1.256-4.208-1-6.5h4c-.061-2.092-1.061-3.592-3-4.5.916-.278 1.582-.778 2-1.5z"/><path style="opacity:1" fill="#2872d4" d="M787.5 196.5a18.473 18.473 0 0 1-2 3.5c-7.011.759-12.678 3.759-17 9a60.502 60.502 0 0 1-13 6c-1.655 1.444-2.322 3.278-2 5.5-3.955-.637-6.622.863-8 4.5a43.68 43.68 0 0 0-9.5 5.5 4.934 4.934 0 0 0-.5 3v2c-3.054.696-5.72 2.196-8 4.5a8.43 8.43 0 0 1-4 .5 4.934 4.934 0 0 1-.5 3c-3.242 1.929-5.742 4.595-7.5 8-.952 1.545-1.285 3.212-1 5h-3c.019 1.56.352 3.06 1 4.5a24.275 24.275 0 0 1-3.5 3.5c-.151 2.619-.985 4.953-2.5 7-1.037 3.773-1.037 7.773 0 12a100.968 100.968 0 0 0-4.5 24c-.383.556-.883.889-1.5 1-2.626-4.847-2.293-9.514 1-14-4.143-5.503-3.976-10.836.5-16l5-18a77.06 77.06 0 0 1 7-11 12.93 12.93 0 0 0 .5-5h3a9.108 9.108 0 0 1 1-5 27.374 27.374 0 0 0 8-4c3.255-7.217 7.922-13.217 14-18a52.141 52.141 0 0 1 10-1.5c1.342-2.892 3.675-4.225 7-4a221.38 221.38 0 0 1 11-10.5 47.623 47.623 0 0 0 12-5c2.227.553 4.561.553 7 0z"/><path style="opacity:1" fill="#283443" d="M63.5 261.5c4.139 1.756 4.806 4.422 2 8l2.5 5c1.158-.498 1.992-1.331 2.5-2.5a12.988 12.988 0 0 1-1-5.5c3.361-1.984 5.028-.984 5 3h3c.743-3.07 2.743-4.736 6-5 .02 1.56.352 3.06 1 4.5a20.252 20.252 0 0 0-3 4.5c.928 1.268 1.095 2.601.5 4a12.139 12.139 0 0 0-3.5 4.5c-.984.591-1.65.257-2-1-.103-4.097-2.103-6.264-6-6.5.216 2.181-.617 3.847-2.5 5l-6-10c-.446-2.833.054-5.499 1.5-8z"/><path style="opacity:1" fill="#2f617f" d="M125.5 266.5c.059 2.549-.941 4.549-3 6 1.45 1.35 2.117 3.016 2 5 1.306.967 1.973 2.301 2 4-2.106-.179-3.772-1.179-5-3 .207-2.896.373-5.896.5-9 .72-1.556 1.887-2.556 3.5-3z"/><path style="opacity:1" fill="#454d5d" d="M151.5 292.5c4.16 1.633 4.66 3.966 1.5 7-1.352-2.094-1.852-4.427-1.5-7z"/><path style="opacity:1" fill="#454d5b" d="M184.5 291.5c1.086.12 1.753.787 2 2a28.143 28.143 0 0 1 .5 12c-.368 1.41-1.201 2.41-2.5 3-.831-2.827-.831-5.827 0-9-2.075.198-4.075.365-6 .5-.88-1.356-1.214-2.856-1-4.5a18.453 18.453 0 0 0 6-.5c.837-1.011 1.17-2.178 1-3.5z"/><path style="opacity:1" fill="#2977dc" d="M906.5 231.5h3v4l6 1a31.792 31.792 0 0 0 3.5 9c4.48 2.619 6.647 6.619 6.5 12 2.014-.108 3.68.558 5 2 .069 6.07 1.736 11.904 5 17.5a11.456 11.456 0 0 1-1 2.5c2.734 2.596 3.4 5.596 2 9a7.248 7.248 0 0 0 2 2.5c-2.758 2.402-2.425 4.402 1 6-1.333 1.333-1.333 2.667 0 4a10.515 10.515 0 0 1-3 2.5 285.368 285.368 0 0 0-2-16 5.576 5.576 0 0 0-3-1c-.605-1.526-1.771-2.526-3.5-3l-1-9c-2.554-2.86-4.221-6.193-5-10-2.526-2.667-4.359-5.667-5.5-9h-3c.271-1.88-.396-3.213-2-4v-1c.223-6.908-1.444-13.241-5-19z"/><path style="opacity:1" fill="#454d5f" d="M229.5 302.5c-2.705.12-3.372-.88-2-3-.333-1-1-1.667-2-2a19.221 19.221 0 0 1-5 3v-4c6.189-2.709 9.189-.709 9 6z"/><path style="opacity:1" fill="#435264" d="M231.5 305.5v-2c1.838-2.161 2.172-4.495 1-7 1.545-.952 3.212-1.285 5-1v3a6.846 6.846 0 0 1 4 1 16.873 16.873 0 0 1 1 8c-4.617.143-5.284-1.524-2-5-.921-2.256-2.588-3.256-5-3 .078 2.752.245 5.418.5 8a3.647 3.647 0 0 1-1.5 1c-1.235-.84-2.235-1.84-3-3z"/><path style="opacity:1" fill="#41586d" d="M115.5 295.5c1.752-.082 2.752.751 3 2.5-.792 1.96-2.125 3.46-4 4.5-.779-2.385-.446-4.718 1-7z"/><path style="opacity:1" fill="#41586e" d="M211.5 298.5c-2.642.602-4.975 1.936-7 4-.929-1.189-1.262-2.522-1-4-.082-1.752.751-2.752 2.5-3a46.28 46.28 0 0 0 5.5 3z"/><path style="opacity:1" fill="#416abe" d="M77.5 295.5c-1.403 2.8-.403 4.3 3 4.5-1.405 1.269-3.071 1.769-5 1.5.268 1.599-.066 2.932-1 4-1.548.321-2.215 1.321-2 3-1.929.269-3.595-.231-5-1.5 4.115-3.651 3.781-6.318-1-8-.752.671-1.086 1.504-1 2.5-.934-1.068-1.268-2.401-1-4 1.929-.506 3.595-1.506 5-3 .929 1.189 1.262 2.522 1 4h4v-3h3z"/><path style="opacity:1" fill="#3f72ca" d="M203.5 298.5c-.262 1.478.071 2.811 1 4 2.025-2.064 4.358-3.398 7-4 .982-.641 1.982-1.307 3-2 .547 3.202 1.547 6.202 3 9a4.457 4.457 0 0 1-1.5 2 29.144 29.144 0 0 1-2.5-5 71.254 71.254 0 0 1-2 4c-2.532-2.514-4.865-2.18-7 1a51.569 51.569 0 0 1-7 1c-.338-2.657.329-4.99 2-7a18.67 18.67 0 0 0-3-5c.235-.597.735-.93 1.5-1 1.495 1.663 3.328 2.663 5.5 3z"/><path style="opacity:1" fill="#42505c" d="M64.5 297.5c-.268 1.599.066 2.932 1 4-1.041 2.958-1.041 5.958 0 9h-3c-1.583-3.267-1.25-6.267 1-9-2.913-2.401-2.58-3.734 1-4z"/><path style="opacity:1" fill="#455167" d="M77.5 295.5c1.98.354 3.98.687 6 1-.986 2.749-.653 5.416 1 8l-1 2c-.7-2.515-2.033-3.182-4-2-.929 1.189-1.262 2.522-1 4h-4v-3c.934-1.068 1.268-2.401 1-4 1.929.269 3.595-.231 5-1.5-3.403-.2-4.403-1.7-3-4.5z"/><path style="opacity:1" fill="#3d5f72" d="M260.5 295.5c.876-.131 1.543.202 2 1-2.191 1.708-2.524 3.708-1 6-1.437 2.077-2.104 4.41-2 7-1.322.17-2.489-.163-3.5-1 .598-2.661.432-5.327-.5-8-3.296 1.058-4.963-.275-5-4a21.336 21.336 0 0 1 7 1c1.538.047 2.538-.62 3-2z"/><path style="opacity:1" fill="#445598" d="M107.5 298.5c.996-.086 1.829.248 2.5 1a28.931 28.931 0 0 0 1.5 4c-1.247 1.542-1.247 3.042 0 4.5a4.457 4.457 0 0 1-2 1.5c-2.441-3.415-3.108-7.081-2-11z"/><path style="opacity:1" fill="#425566" d="M131.5 296.5c1.517.011 2.684.677 3.5 2a59.176 59.176 0 0 0 1.5 7.5c-.51 1.826-1.344 1.993-2.5.5a90.942 90.942 0 0 1-2.5-10z"/><path style="opacity:1" fill="#435160" d="M196.5 296.5a18.67 18.67 0 0 1 3 5c-1.671 2.01-2.338 4.343-2 7-1.846.278-3.18-.389-4-2a206.865 206.865 0 0 0 3-8c-2.138.203-3.805 1.203-5 3a4.457 4.457 0 0 1-2-1.5 382.178 382.178 0 0 0 5.5-4.5c.383.556.883.889 1.5 1z"/><path style="opacity:1" fill="#455373" d="M267.5 301.5c1.765-.961 3.765-1.295 6-1a18.453 18.453 0 0 1-.5 6 25.732 25.732 0 0 0-5.5-5z"/><path style="opacity:1" fill="#41618f" d="M96.5 298.5h3v3c4.844.22 6.51 2.553 5 7-2.904.819-5.571.153-8-2a4.451 4.451 0 0 1 1.5-2c1.183 1.231 2.349 1.231 3.5 0-1.018-1.352-2.35-2.352-4-3a5.577 5.577 0 0 1-1-3z"/><path style="opacity:1" fill="#434b56" d="M143.5 296.5c1.322-.17 2.489.163 3.5 1a58.166 58.166 0 0 0 .5 9c-2.351.48-4.685.814-7 1-2.436-1.763-2.603-3.763-.5-6 1.011.837 2.178 1.17 3.5 1v-6z"/><path style="opacity:1" fill="#435677" d="M160.5 299.5c1.841 1.173 3.674 1.173 5.5 0 1.059.13 1.892.63 2.5 1.5-5.102 4.918-11.102 7.252-18 7-.284-1.956-.284-4.123 0-6.5 3-.333 4.333 1 4 4 1.175.219 2.175-.114 3-1 1.797-1.195 2.797-2.862 3-5z"/><path style="opacity:1" fill="#425d77" d="M88.5 295.5c4.963 1.894 4.963 2.894 0 3v3c1.7-.16 3.366.006 5 .5.859 3.054-.141 5.554-3 7.5-2.05-.577-3.05-1.91-3-4h3c.146-2.442-.687-3.109-2.5-2a11.392 11.392 0 0 1-2.5-2 17.89 17.89 0 0 0 3-6z"/><path style="opacity:1" fill="#454d61" d="M113.5 304.5c5.139 1.441 5.139 2.441 0 3v-3z"/><path style="opacity:1" fill="#45598c" d="M127.5 300.5h3c-1.139 2.504-1.806 5.17-2 8-1.89.203-3.39-.463-4.5-2-1.818 2.145-3.318 2.145-4.5 0 1.548-3.451 3.548-3.784 6-1a31.283 31.283 0 0 0 2-5z"/><path style="opacity:1" fill="#464954" d="M211.5 306.5c-2.191 1.853-4.525 2.187-7 1 2.135-3.18 4.468-3.514 7-1z"/><path style="opacity:1" fill="#4462b3" d="M229.5 302.5c.342.838 1.008 1.172 2 1v2c-1.406.473-2.073 1.473-2 3-1.212-.73-2.212-1.73-3-3-1.355.688-2.355 1.688-3 3-1.998-1.468-3.665-3.301-5-5.5.139-1.301.805-2.134 2-2.5a19.221 19.221 0 0 0 5-3c1 .333 1.667 1 2 2-1.372 2.12-.705 3.12 2 3z"/><path style="opacity:1" fill="#2467be" d="M931.5 286.5a5.576 5.576 0 0 1 3 1 285.368 285.368 0 0 1 2 16 76.94 76.94 0 0 0-2 8.5c1.017 2.787 1.184 5.62.5 8.5a66.787 66.787 0 0 0-5 13c-.541 11.186-2.708 21.853-6.5 32-1.077 1.205-2.41 1.872-4 2a5.576 5.576 0 0 0-1-3l5-5a7.248 7.248 0 0 0-2-2.5c2.115-5.539 3.615-11.372 4.5-17.5.273-1.829 1.107-3.329 2.5-4.5a4.933 4.933 0 0 1-1-2.5c2.274-6.136 2.941-12.469 2-19a16.252 16.252 0 0 1 2-4.5 11.068 11.068 0 0 0-2-3.5l2-3c-1.117-1.449-1.784-3.116-2-5 1.411-3.46 2.078-7.126 2-11z"/><path style="opacity:1" fill="#46536d" d="M246.5 297.5h3a9.108 9.108 0 0 0 1 5l-2 2 6 3c-.387 1.22-1.22 1.887-2.5 2-1.99-1.318-3.99-2.652-6-4 .083-2.619.25-5.286.5-8z"/><path style="opacity:1" fill="#455675" d="M229.5 308.5v3c-3.36.116-6.693.449-10 1v-3c1.599.268 2.932-.066 4-1 .645-1.312 1.645-2.312 3-3 .788 1.27 1.788 2.27 3 3z"/><path style="opacity:1" fill="#266dca" d="M700.5 310.5c1.673.843 2.84 2.176 3.5 4 .793 3.923.626 7.756-.5 11.5a128.75 128.75 0 0 0 7.5 23.5c.993 2.892 1.16 5.726.5 8.5 2.66 3.721 4.16 7.887 4.5 12.5a39.806 39.806 0 0 0 8 7c.384 1.697.218 3.363-.5 5-3.231-1.72-6.064-4.053-8.5-7a72.026 72.026 0 0 0-10-18c-.651-1.735-.485-3.402.5-5a19.06 19.06 0 0 1-2.5-7 6.978 6.978 0 0 0-3.5-2.5l2-4c-3.146-3.188-3.479-6.522-1-10a553.955 553.955 0 0 1-2-14 15.414 15.414 0 0 0 2-4.5z"/><path style="opacity:1" fill="#425676" d="M469.5 331.5h3c-1.017 2.527-1.017 5.027 0 7.5-1.038 3.026-2.372 3.193-4 .5.311-2.696.645-5.363 1-8z"/><path style="opacity:1" fill="#3e6aaa" d="M87.5 334.5a18.452 18.452 0 0 1 6 .5c1.227 1.587.894 2.921-1 4l2 2c-3.074-.203-5.741-1.537-8-4 .752-.671 1.086-1.504 1-2.5z"/><path style="opacity:1" fill="#454e5f" d="M360.5 335.5c1.696.185 3.029 1.019 4 2.5-2.445.91-3.778.076-4-2.5z"/><path style="opacity:1" fill="#44536b" d="M110.5 338.5a17.65 17.65 0 0 1-6 .5c.556-.383.889-.883 1-1.5 1.153-.813 1.153-1.813 0-3l1.5-1c2.256 1.585 4.756 2.252 7.5 2v3h-4z"/><path style="opacity:1" fill="#41608f" d="M197.5 335.5c3.774-.016 4.774 1.65 3 5 2.835 2.334 3.501 5.168 2 8.5-1.135.749-2.135.583-3-.5a23.832 23.832 0 0 1-1-9h-4v-3c1.291.237 2.291-.096 3-1z"/><path style="opacity:1" fill="#42587b" d="M208.5 332.5c1.25.077 2.083.744 2.5 2 .495 1.973.662 3.973.5 6-4.015.224-4.681-.943-2-3.5a11.187 11.187 0 0 1-1-4.5z"/><path style="opacity:1" fill="#415d86" d="M306.5 334.5c1.225.652 1.892 1.819 2 3.5-1.108 4.332-2.441 4.166-4-.5.442-1.239 1.109-2.239 2-3z"/><path style="opacity:1" fill="#44536c" d="M264.5 335.5c3 .333 4.667 2 5 5-2.075.198-4.075.365-6 .5a3.647 3.647 0 0 1-1-1.5c1.13-1.122 1.797-2.456 2-4z"/><path style="opacity:1" fill="#415b83" d="M417.5 335.5c.997-.03 1.664.47 2 1.5-2.059 1.498-3.392 3.498-4 6 1.507.837 2.007 2.004 1.5 3.5-1.972-1.942-4.139-2.276-6.5-1-1.826-2.281-3.826-2.281-6 0-.845-2.262-2.178-2.929-4-2-3.689-2.605-3.689-4.938 0-7a6.802 6.802 0 0 1 1.5 3c3.056-2.506 6.223-2.506 9.5 0 2.349-1.043 4.349-2.376 6-4z"/><path style="opacity:1" fill="#3e70b9" d="M460.5 341.5c1 1.333 2 1.333 3 0-.061 2.092-1.061 3.592-3 4.5-1.172.353-2.338.187-3.5-.5-4.259 3.306-6.426 2.306-6.5-3h-3v3c-3.167.1-6.167-.567-9-2-.962-2.383.038-3.383 3-3v3c3.635-.156 3.968-1.322 1-3.5 1.525-1.009 3.192-1.509 5-1.5v-3h7v3c-1.929-.269-3.595.231-5 1.5a17.758 17.758 0 0 0 7 1.5v3c2.473.412 3.806-.588 4-3z"/><path style="opacity:1" fill="#454f61" d="M463.5 341.5c-1 1.333-2 1.333-3 0-1.203-1.64-2.036-3.307-2.5-5l1-1c.908 1.939 2.408 2.939 4.5 3v3z"/><path style="opacity:1" fill="#425c85" d="M68.5 335.5c1.349-1.297 2.682-1.13 4 .5-1.358 1.832-1.692 3.665-1 5.5 2.113-2.286 4.613-3.952 7.5-5a4.451 4.451 0 0 1 1.5 2c-1.903 2.062-4.237 3.396-7 4a19.897 19.897 0 0 0-3.5 4 76.685 76.685 0 0 0-3.5-6 612.617 612.617 0 0 1 3-3.5c-.07-.765-.403-1.265-1-1.5z"/><path style="opacity:1" fill="#3e6aa8" d="M105.5 337.5c-.111.617-.444 1.117-1 1.5a17.65 17.65 0 0 0 6-.5v4c2.234.12 4.401-.213 6.5-1 2.526.628 3.359 1.961 2.5 4-3.902.679-7.735 1.013-11.5 1a16.84 16.84 0 0 1-4.5-6 7.492 7.492 0 0 0-.5 5c-1.011.837-2.178 1.17-3.5 1v-3h-3c1.207-1.38.873-2.547-1-3.5 2.788-2.523 4.121-5.69 4-9.5 1.322-.17 2.489.163 3.5 1 .002 2.551.836 4.551 2.5 6z"/><path style="opacity:1" fill="#43536e" d="M239.5 337.5c1.998 1.266 1.998 2.932 0 5-1.109-1.09-2.109-1.09-3 0 1.09 1.109 1.09 2.109 0 3-2.829-1.325-3.496-3.325-2-6 2.479 1.464 4.145.797 5-2z"/><path style="opacity:1" fill="#435d87" d="M247.5 334.5c.876-.131 1.543.202 2 1a81.805 81.805 0 0 0 2 7c-.063-1.16.27-2.494 1-4a22.136 22.136 0 0 0 6-3c2.71 2.715 2.377 5.215-1 7.5 1.711 1.133 2.211 2.633 1.5 4.5a14.506 14.506 0 0 1-4-5 14.506 14.506 0 0 0-5 4c-1.748-1.635-2.915-3.635-3.5-6-2.336 1.094-2.336 2.427 0 4-.825.886-1.825 1.219-3 1a51.569 51.569 0 0 1-1-7c3.45.744 5.116-.59 5-4z"/><path style="opacity:1" fill="#3f6090" d="M374.5 336.5h3c.731 2.099.731 4.099 0 6-2.478-1.222-3.478-3.222-3-6z"/><path style="opacity:1" fill="#41649a" d="M380.5 331.5c2.272.411 2.605 1.578 1 3.5.985 5.055 2.818 5.555 5.5 1.5a9.568 9.568 0 0 1 3 3c1.183-1.231 2.349-1.231 3.5 0-.333 1-1 1.667-2 2a45.402 45.402 0 0 1-9-1v3h-3c.845-4.098 1.179-8.098 1-12z"/><path style="opacity:1" fill="#3f6cb0" d="M62.5 336.5c1.495-.085 2.495.581 3 2a15.42 15.42 0 0 0-1 7c-2.627.207-4.294-.96-5-3.5.624-2.085 1.624-3.918 3-5.5z"/><path style="opacity:1" fill="#415e8b" d="M276.5 334.5c4.738-.758 8.738.575 12 4-.789 1.988-1.955 2.321-3.5 1 1.71 7.209.376 8.209-4 3a10.258 10.258 0 0 0-1.5-4c-3.779 1.079-4.779-.255-3-4z"/><path style="opacity:1" fill="#43536c" d="M299.5 339.5c4.026-.243 5.359 1.423 4 5l-2 1a10.776 10.776 0 0 1-2-6z"/><path style="opacity:1" fill="#415d86" d="M131.5 335.5c1.642 1.581 3.642 2.247 6 2a11.988 11.988 0 0 0 1 6 7.293 7.293 0 0 1-2 3c-1.451-2.059-3.451-3.059-6-3 .285-1.788-.048-3.455-1-5-2.519 1.859-2.519 3.859 0 6l-1.5 1c-2.851-1.496-4.351-3.829-4.5-7a100.71 100.71 0 0 0 8-3z"/><path style="opacity:1" fill="#426396" d="M142.5 334.5c2.772.095 4.772 1.429 6 4-1.189.929-2.522 1.262-4 1v5c-3.393.125-4.726-1.542-4-5 .224-1.955.891-3.621 2-5z"/><path style="opacity:1" fill="#3f659b" d="M169.5 336.5a31.895 31.895 0 0 1 5 4.5 3.943 3.943 0 0 1-1 2c-4.16-1.18-8.327-1.68-12.5-1.5l-.5-1a20.035 20.035 0 0 0 6-3c1.725 1.592 2.725 1.258 3-1z"/><path style="opacity:1" fill="#425573" d="M332.5 335.5c1.894.548 3.56 1.548 5 3 2.649-2.539 5.316-2.539 8 0 2.374-1.177 4.207-.51 5.5 2a11.456 11.456 0 0 0 2.5-1c1.333 2.333 1.333 4.667 0 7a9.258 9.258 0 0 0-2.5-2c-1.057 1.127-2.223 1.627-3.5 1.5a168.028 168.028 0 0 0-2-6.5 32.448 32.448 0 0 1-2.5 6c-1.188-1.063-1.688-2.397-1.5-4-2.452.124-4.452 1.124-6 3-2.303-1.029-4.636-1.029-7 0v-3c3.279-.531 4.613-2.531 4-6z"/><path style="opacity:1" fill="#445571" d="M370.5 339.5c.876-.131 1.543.202 2 1-2.427 1.462-4.26 3.462-5.5 6-1.439-1.514-2.939-1.847-4.5-1-1.833-1.468-2.166-3.135-1-5l3 2a69.05 69.05 0 0 0 6-3z"/><path style="opacity:1" fill="#455675" d="M429.5 335.5a4.934 4.934 0 0 1 3 .5c-.923 2.041-1.256 4.208-1 6.5 3-.333 4.333 1 4 4a28.535 28.535 0 0 1-7-3l1-8z"/><path style="opacity:1" fill="#445572" d="M219.5 337.5c4.277.4 4.777 1.733 1.5 4-1.297-1.284-2.464-1.117-3.5.5a32.367 32.367 0 0 0 3 4.5c-3.381 1.62-6.047.787-8-2.5a90.116 90.116 0 0 1 7-6.5z"/><path style="opacity:1" fill="#444d5d" d="m273.5 339.5 4 6c-1.151 1.231-2.317 1.231-3.5 0a18.453 18.453 0 0 1-.5-6z"/><path style="opacity:1" fill="#425a7e" d="M312.5 334.5c.905 3.833.905 7.833 0 12h-4c1.1-4.083 2.433-8.083 4-12z"/><path style="opacity:1" fill="#425573" d="M86.5 340.5c2.465 1.569 2.299 3.235-.5 5l-1.5-1c1.353-1.024 2.02-2.357 2-4z"/><path style="opacity:1" fill="#40649a" d="M477.5 335.5c3.599.603 5.932 2.603 7 6 2.138-.203 3.805-1.203 5-3a4.457 4.457 0 0 1 2 1.5c-3.187 3.885-6.854 4.718-11 2.5a28.071 28.071 0 0 1-5 5c-5.473-2.296-5.306-3.962.5-5 1.202-2.177 1.702-4.511 1.5-7z"/><path style="opacity:1" fill="#406db2" d="M151.5 335.5a65.064 65.064 0 0 0 8 2.5c-1.27.9-2.27 2.066-3 3.5-1.024-1.353-2.357-2.02-4-2 1.01 2.744.676 5.077-1 7-1.995 1.39-3.328.89-4-1.5.77-1.775 1.937-3.275 3.5-4.5a12.93 12.93 0 0 0 .5-5z"/><path style="opacity:1" fill="#44526a" d="M96.5 343.5h3v3a16.874 16.874 0 0 1-8-1c1.168-1.717 2.835-2.384 5-2z"/><path style="opacity:1" fill="#40669e" d="M179.5 337.5a76.246 76.246 0 0 0 12 2 18.453 18.453 0 0 1-.5 6c-.388.928-1.055 1.595-2 2-1.533-1.195-3.033-1.195-4.5 0-1.975-.775-2.809-2.109-2.5-4 1.813 1.972 2.98 1.972 3.5 0a15.645 15.645 0 0 0-2.5-4c-1.11 1.537-2.61 2.203-4.5 2-.067-1.459.266-2.792 1-4z"/><path style="opacity:1" fill="#445776" d="M114.5 359.5h-3v-5c.734-1.208 1.067-2.541 1-4a9.108 9.108 0 0 0 5-1c1 .333 1.667 1 2 2-4.925.929-5.258 2.596-1 5-1.368 1.094-2.535.76-3.5-1-.507 1.496-.007 2.663 1.5 3.5a2.428 2.428 0 0 1-2 .5z"/><path style="opacity:1" fill="#3c6fb7" d="M191.5 353.5a21.435 21.435 0 0 0 7 1v3h-4a4.934 4.934 0 0 1-.5 3c-.667 1.333-1.333 1.333-2 0a24.935 24.935 0 0 1-.5-7z"/><path style="opacity:1" fill="#425676" d="M447.5 352.5a76.129 76.129 0 0 0 7 3c-2.211 2.953-1.878 5.786 1 8.5l-1.5 1.5a14.84 14.84 0 0 0-3.5-4l-2 3c.121-2.729-1.212-5.063-4-7-2.527 1.7-2.36 3.367.5 5 .749 1.135.583 2.135-.5 3a23.65 23.65 0 0 0-3-3.5c-1.68-.034-3.18-.201-4.5-.5-.239-2.225.595-2.558 2.5-1 .249-3.749 2.249-5.583 6-5.5.881-.708 1.547-1.542 2-2.5z"/><path style="opacity:1" fill="#454d5c" d="M174.5 354.5h3c-.664 2.367-1.997 4.367-4 6-.886-.825-1.219-1.825-1-3-1.7.126-3.2.793-4.5 2-1.257-.35-1.591-1.017-1-2a194.525 194.525 0 0 1 7.5-3z"/><path style="opacity:1" fill="#455065" d="M431.5 354.5c3.661-.074 4.328.926 2 3-1.419-.505-2.085-1.505-2-3z"/><path style="opacity:1" fill="#43597c" d="M495.5 351.5h4v3a19.372 19.372 0 0 1 8 1c1.978 2.031 1.978 3.697 0 5-.886-.825-1.219-1.825-1-3h-11v-6z"/><path style="opacity:1" fill="#416396" d="M78.5 353.5c1.5 1.088 2.833 2.421 4 4a9.26 9.26 0 0 1 2.5-2c6.652-.192 9.485 2.808 8.5 9a7.253 7.253 0 0 1-2.5-2c-3.758 1.973-5.924.973-6.5-3-4.96 1.547-6.96-.453-6-6z"/><path style="opacity:1" fill="#3d6bad" d="M489.5 355.5c3.409 1.454 3.576 3.12.5 5 .086 3.547-1.08 6.547-3.5 9-4.654-1.578-4.987-3.578-1-6-1.353-1.024-2.02-2.357-2-4 2.792-.122 4.792-1.456 6-4z"/><path style="opacity:1" fill="#435d87" d="M186.5 353.5c.961 1.765 1.295 3.765 1 6-3-.333-4.333 1-4 4 1.175-.219 2.175.114 3 1-4.544.827-6.377-1.173-5.5-6 1.422-2.242 3.255-3.909 5.5-5z"/><path style="opacity:1" fill="#415b83" d="M214.5 354.5a42.184 42.184 0 0 1 9 3v6c-1.478.262-2.811-.071-4-1 1.421-2.928.421-4.262-3-4-.117 1.984.55 3.65 2 5-2.768 2.917-4.268 2.25-4.5-2l-2.5 3a51.28 51.28 0 0 1-2-6c.508-2.404 1.675-3.071 3.5-2 .717-.544 1.217-1.211 1.5-2z"/><path style="opacity:1" fill="#43597d" d="M392.5 356.5c1.175-.219 2.175.114 3 1-1.833 1.468-2.166 3.135-1 5 1.395-1.315 2.395-.981 3 1-1.276 1.145-2.609 1.145-4 0l-5 4c.304-2.377-.029-4.877-1-7.5.435-3.063 1.268-3.23 2.5-.5a10.515 10.515 0 0 0 2.5-3z"/><path style="opacity:1" fill="#3e70b9" d="M111.5 354.5v5h3a6.846 6.846 0 0 0 1 4c-1.189.929-2.522 1.262-4 1 .262-1.478-.071-2.811-1-4-1.211.774-1.211 1.607 0 2.5a4.457 4.457 0 0 1-2 1.5c-.952-1.545-1.285-3.212-1-5h-3v3h-3a23.142 23.142 0 0 0 2-8c2.825-.419 4.991.581 6.5 3 .232-1.237.732-2.237 1.5-3z"/><path style="opacity:1" fill="#3d6bae" d="M162.5 354.5a41.653 41.653 0 0 1 2 6c-1.503.552-3.169.552-5 0v4c-1.644-.214-3.144.12-4.5 1 .046-1.813-.12-3.479-.5-5a7.293 7.293 0 0 1 2-3 9.108 9.108 0 0 0 5 1c-.067-1.459.266-2.792 1-4z"/><path style="opacity:1" fill="#405e8a" d="M301.5 356.5a4.934 4.934 0 0 1 3 .5c-.935 2.381-1.268 4.881-1 7.5-4.164.374-8.164.374-12 0v-5h4a4.934 4.934 0 0 0 .5 3c1.401-1.692 3.234-2.359 5.5-2v-4z"/><path style="opacity:1" fill="#416aaa" d="M405.5 355.5h3v4c-3-.333-4.333 1-4 4h-4c-.588-4.677 1.079-6.344 5-5v-3z"/><path style="opacity:1" fill="#42597d" d="M311.5 357.5c2.306.493 4.639.826 7 1 .237 1.291-.096 2.291-1 3a43.836 43.836 0 0 1-2-1 19.422 19.422 0 0 1-8 3c-1.333-1.667-1.333-3.333 0-5 2.137 2.862 3.47 2.529 4-1z"/><path style="opacity:1" fill="#3a78cf" d="M328.5 360.5c-1.101-1.098-2.434-1.265-4-.5-.833 1.5-2 2.667-3.5 3.5-.692.937-.525 1.603.5 2-.06.543-.393.876-1 1-.775-1.896-1.775-3.563-3-5 .904-.709 1.237-1.709 1-3a51.569 51.569 0 0 1-7-1c2.395-1.314 4.895-1.314 7.5 0 1.054-2.254 2.554-2.587 4.5-1a11.068 11.068 0 0 1 3.5-2c1.597 1.385 3.43 2.051 5.5 2-.262 1.478.071 2.811 1 4 2.567.278 5.233.444 8 .5-.837 1.011-1.17 2.178-1 3.5-2.196.09-4.363.423-6.5 1a14.713 14.713 0 0 1-5.5-5z"/><path style="opacity:1" fill="#3b71bc" d="M247.5 355.5c4.683.016 9.349.016 14 0-.194 2.83-.861 5.496-2 8h-5c.278-1.846-.389-3.18-2-4l-2 5c-1.667-1.333-3.333-1.333-5 0a10.756 10.756 0 0 1-3-2.5c2.559-1.508 4.226-3.675 5-6.5z"/><path style="opacity:1" fill="#435572" d="M328.5 360.5a31.894 31.894 0 0 0-1.5 6c-1.488-2.33-3.321-2.664-5.5-1-1.025-.397-1.192-1.063-.5-2 1.5-.833 2.667-2 3.5-3.5 1.566-.765 2.899-.598 4 .5z"/><path style="opacity:1" fill="#436398" d="M123.5 355.5c5.761.209 6.094 1.042 1 2.5.88 1.356 1.214 2.856 1 4.5 3.991.148 4.824 1.814 2.5 5-1.612-2.979-4.112-4.312-7.5-4 .139-3.088 1.139-5.755 3-8z"/><path style="opacity:1" fill="#40669f" d="M139.5 355.5h4c2.099 2.541 3.432 5.541 4 9-2.714.25-5.381.417-8 .5 1.921-1.241 2.254-2.741 1-4.5a31.84 31.84 0 0 0-5 4.5c-3.215.502-4.881-.998-5-4.5 2.161-5.27 3.495-4.936 4 1h3c.204-2.185.87-4.185 2-6z"/><path style="opacity:1" fill="#3e6db2" d="M228.5 355.5c1.478-.262 2.811.071 4 1-1.09 1.109-1.09 2.109 0 3 .886-.825 1.219-1.825 1-3 2.646-.392 5.146-.392 7.5 0 .089 1.613-.745 2.78-2.5 3.5.837 1.011 1.17 2.178 1 3.5a6.846 6.846 0 0 1-4-1c-2.149 3.937-3.482 3.603-4-1h-4l1-6z"/><path style="opacity:1" fill="#425e8b" d="M269.5 351.5h3v3h4c.002 4.041 1.335 4.708 4 2a34.198 34.198 0 0 0 3 6.5c-3.361 3.633-4.861 2.8-4.5-2.5a3.647 3.647 0 0 1-1.5 1 22.598 22.598 0 0 0-8-4c-.748-1.916-.748-3.916 0-6z"/><path style="opacity:1" fill="#42608f" d="M364.5 350.5c.997-.03 1.664.47 2 1.5-.843 3.376.49 4.209 4 2.5.929 1.189 1.262 2.522 1 4a6.846 6.846 0 0 1 4 1c.929-1.189 1.262-2.522 1-4h4c-1.886 2.955-2.886 6.289-3 10h-4a4.934 4.934 0 0 0-.5-3 22.804 22.804 0 0 1-8 5c-1.718-1.702-1.885-3.535-.5-5.5a4.934 4.934 0 0 0-3-.5c.262 1.478-.071 2.811-1 4-2.667-3.333-2.667-6.667 0-10l2.5 3c1.375-2.437 1.875-5.103 1.5-8z"/><path style="opacity:1" fill="#44526a" d="M511.5 356.5c1.175-.219 2.175.114 3 1a244.261 244.261 0 0 0-3 10 8.43 8.43 0 0 1-4-.5c2.818-3.189 4.151-6.689 4-10.5z"/><path style="opacity:1" fill="#3e66a0" d="M410.5 354.5h3v5h4c.203 1.89-.463 3.39-2 4.5a16.242 16.242 0 0 1-8 0c-1.231-1.183-1.231-2.349 0-3.5 1.123 1.789 2.456 2.122 4 1a15.418 15.418 0 0 1-1-7z"/><path style="opacity:1" fill="#42608e" d="M200.5 360.5a12.93 12.93 0 0 1 5 .5c-1.263 2.386-3.097 4.219-5.5 5.5a17.65 17.65 0 0 1 .5-6z"/><path style="opacity:1" fill="#454e60" d="M78.5 372.5c.996-.086 1.83.248 2.5 1 .304 1.941 1.137 3.607 2.5 5-5.46 2.248-5.127 3.415 1 3.5 1.211.893 1.211 1.726 0 2.5-1.333-1.333-2.667-1.333-4 0-2.038-.777-2.705-1.943-2-3.5l-2-2c1.729-1.789 2.396-3.956 2-6.5z"/><path style="opacity:1" fill="#445064" d="M119.5 373.5c3.602.178 3.602 1.178 0 3-1.062-.925-1.062-1.925 0-3z"/><path style="opacity:1" fill="#445776" d="M90.5 373.5c1.624 1.651 2.957 3.651 4 6a15.009 15.009 0 0 1-3.5 4l-1.5-1c2.424-2.214 1.757-3.214-2-3v-3h3v-3z"/><path style="opacity:1" fill="#406191" d="M108.5 375.5c4.633-1.042 7.799.625 9.5 5a3.647 3.647 0 0 1 1.5-1c.994 4.089-.173 4.756-3.5 2a9.258 9.258 0 0 0-2.5 2c-.38-1.521-.546-3.187-.5-5-1.68-1.103-3.18-.77-4.5 1-1.126-1.308-1.126-2.642 0-4z"/><path style="opacity:1" fill="#435470" d="M61.5 377.5c2.412.194 3.412 1.527 3 4 3.432-.252 4.432 1.081 3 4-1.097-2.035-2.763-3.368-5-4a6.846 6.846 0 0 1-1-4z"/><path style="opacity:1" fill="#42649a" d="M123.5 375.5c2.984.287 4.317 1.954 4 5h3v4a29.753 29.753 0 0 0-7-2v-7z"/><path style="opacity:1" fill="#2976db" d="M936.5 303.5c1.826 7.2 2.826 14.367 3 21.5-2.913 1.736-3.58 4.069-2 7a26.653 26.653 0 0 1-3 5.5 54.49 54.49 0 0 1 1 4.5 47.336 47.336 0 0 0-5 9c-.658 5.046-1.824 10.212-3.5 15.5a11.333 11.333 0 0 1-3.5 1.5c.837 1.011 1.17 2.178 1 3.5-1.322-.17-2.489.163-3.5 1a76.015 76.015 0 0 0-8.5 16c-2.412.194-3.412 1.527-3 4-3.897 1.965-7.563 4.465-11 7.5a8.43 8.43 0 0 1-4 .5c-1.299 3.276-2.632 6.61-4 10a82.259 82.259 0 0 0-15 5c-.075 4.128-1.409 4.795-4 2 .956-2.016 2.29-3.849 4-5.5 1.558-.21 2.891-.71 4-1.5a31.642 31.642 0 0 1 3-5c4.746-1.412 7.746-4.412 9-9a29.045 29.045 0 0 0 8-2c.505-2.688 1.838-4.855 4-6.5 7.419-2.638 11.419-7.805 12-15.5h3a20.69 20.69 0 0 1 1-5c1.59-.128 2.923-.795 4-2 3.792-10.147 5.959-20.814 6.5-32a66.787 66.787 0 0 1 5-13c.684-2.88.517-5.713-.5-8.5a76.94 76.94 0 0 1 2-8.5z"/><path style="opacity:1" fill="#f4940a" d="M250.5 422.5c1 1.333 2 1.333 3 0 4.324-.881 8.657-.548 13 1 1.897-.228 3.23-1.228 4-3a250.063 250.063 0 0 0 9.5 3 9.568 9.568 0 0 0 3-3c.368 1.41 1.201 2.41 2.5 3a56.926 56.926 0 0 0 13-3c.749 1.512 1.916 2.512 3.5 3a949.498 949.498 0 0 1 17.5-2c1.912 1.351 4.078 2.018 6.5 2 5.611-1.963 9.778-.296 12.5 5a131.578 131.578 0 0 0 0 13.5c.007 1.812-.66 3.312-2 4.5a14.753 14.753 0 0 0 4 5c-3.362 2.382-3.695 5.049-1 8-1.396 1.352-2.063 3.019-2 5 1.654 4.638 1.987 9.305 1 14-.839 1.141-1.506 2.474-2 4-2.875.581-5.542 1.581-8 3l-6-2c-1.962 1.134-3.962 1.134-6 0a18.099 18.099 0 0 0-5.5 2c-.745-1.49-1.912-2.49-3.5-3-2.038 1.134-4.038 1.134-6 0-1.867 2.364-3.867 2.364-6 0-3.356 1.244-6.689 1.244-10 0l-3 2a261.668 261.668 0 0 0-21 0l-4-2c-6.401 2.413-12.735 2.08-19-1a45.11 45.11 0 0 1-13 3 18.08 18.08 0 0 1-3.5-2c-.739 1.074-1.739 1.741-3 2-8.125-2.152-16.125-2.152-24 0-3.085.137-5.918-.53-8.5-2-5.508.045-11.008.045-16.5 0-3.386.587-6.72 1.254-10 2a7.248 7.248 0 0 0-2.5-2c-2.816-.63-5.482.036-8 2-8.698-.956-17.531-.956-26.5 0-1.716-.248-3.216-.915-4.5-2a9.258 9.258 0 0 1-2.5 2c-4.826-1.304-9.659-1.304-14.5 0a93.874 93.874 0 0 0-26.5-1c-2.034.146-3.7-.52-5-2a4.932 4.932 0 0 0-.5 3h-3v-3c-4.162-.654-5.496-2.987-4-7a8.908 8.908 0 0 0-3-4c1.953-2.628 1.953-4.961 0-7 1.07-2.76 2.07-5.593 3-8.5a7.248 7.248 0 0 1-2-2.5c.758-7.104.758-14.27 0-21.5 1.132-2.374 2.798-4.208 5-5.5 2.043-1.079 3.376-2.746 4-5a19.473 19.473 0 0 1 8 3 11.064 11.064 0 0 1 3.5-2c2.092 2.407 4.092 2.407 6 0 .804 1.304 1.97 1.971 3.5 2a69.29 69.29 0 0 1 10-3c2.114.534 3.948 1.534 5.5 3l2.5-3c1.333 1.333 2.667 1.333 4 0 1.692 1.469 3.692 2.135 6 2 5.243-.975 10.409-1.308 15.5-1 5.873 2.712 11.54 2.378 17-1 .483.948.649 1.948.5 3 4.714-1.576 9.714-2.243 15-2a27.07 27.07 0 0 0 4.5 2 20.161 20.161 0 0 0 8.5-4c.798 3.884 2.464 4.551 5 2 4.182.061 8.349.061 12.5 0 1.605.601 2.938 1.601 4 3a156.808 156.808 0 0 1 8.5-3 16.252 16.252 0 0 1 4.5 2 18.184 18.184 0 0 1 3.5-2 13.049 13.049 0 0 1 4 3 8.905 8.905 0 0 0 4-3c5.385.322 10.885.989 16.5 2 2.873-.41 5.706-.743 8.5-1z"/><path style="opacity:1" fill="#205ca9" d="M735.5 235.5v4h-4v4h-4v3c-.617 1.821-.784 3.821-.5 6-1.897 1.516-4.064 2.183-6.5 2a6.846 6.846 0 0 0 1 4c-2.217 2.558-3.383 5.558-3.5 9-3.65 1.937-4.817 4.77-3.5 8.5a14.592 14.592 0 0 1-4 5c.235.873.569 1.707 1 2.5-.471 3.744-1.804 7.078-4 10-.894 11.106-.894 22.106 0 33 1.666 4.656 3.333 9.322 5 14l-1 4a33.586 33.586 0 0 1 3.5 12 13.24 13.24 0 0 0 5 3c.507 1.496.007 2.663-1.5 3.5 1.987 1.319 3.154 3.152 3.5 5.5a20.855 20.855 0 0 1 6.5 3c-.445 2.553-.445 5.22 0 8 3.984-.028 4.984 1.639 3 5h6a4.934 4.934 0 0 0 .5 3 121.812 121.812 0 0 1 5.5 6c2.108 1.444 4.441 2.11 7 2v5c3.638 2.134 7.638 3.134 12 3a4.934 4.934 0 0 0 .5 3 20.431 20.431 0 0 0 5.5 1.5c.837 1.011 1.17 2.178 1 3.5a45.8 45.8 0 0 1 9 2.5 9.454 9.454 0 0 1 1.5 2.5c3.073-1.117 6.24-1.284 9.5-.5.88 1.356 1.214 2.856 1 4.5 1.644-.214 3.144.12 4.5 1a14.972 14.972 0 0 1 3.5-3c1.174 1.734 2.84 2.734 5 3 2.369-.688 4.536-1.022 6.5-1 5.615 2.798 11.115 2.464 16.5-1 3.241 1.945 6.241 1.945 9 0 2.265.176 4.598.51 7 1 2.136-.972 3.303-2.639 3.5-5 2.064 1.091 4.231 1.258 6.5.5a52.108 52.108 0 0 1 8-5.5c2.401 2.913 3.734 2.579 4-1 1.322-.17 2.489.163 3.5 1l1.5-3c11.658-3.829 20.658-10.996 27-21.5 2.821-.574 5.154-1.908 7-4l-1-1c2.116-1.171 2.782-2.671 2-4.5a8.192 8.192 0 0 0 2.5-4c1.011-.837 2.178-1.17 3.5-1a133.589 133.589 0 0 0 4-11c4.284-1.968 5.951-5.301 5-10h3c.117-1.984-.55-3.65-2-5 .825-.886 1.825-1.219 3-1a241.424 241.424 0 0 1 2-20c2.286-.84 2.619-2.34 1-4.5l2-8a295.149 295.149 0 0 1 0-18 24.275 24.275 0 0 0-3.5-3.5c-.595-1.399-.428-2.732.5-4a7.47 7.47 0 0 0-3-2c-.848-2.933-.848-6.099 0-9.5a15.6 15.6 0 0 0-3.5-7.5 12.93 12.93 0 0 1-.5-5h-4c-.727-3.505-2.393-6.505-5-9 .355-1.022 1.022-1.689 2-2 1.604.787 2.271 2.12 2 4h3c1.141 3.333 2.974 6.333 5.5 9 .779 3.807 2.446 7.14 5 10l1 9c1.729.474 2.895 1.474 3.5 3 .078 3.874-.589 7.54-2 11 .216 1.884.883 3.551 2 5l-2 3a11.068 11.068 0 0 1 2 3.5 16.252 16.252 0 0 0-2 4.5c.941 6.531.274 12.864-2 19a4.933 4.933 0 0 0 1 2.5c-1.393 1.171-2.227 2.671-2.5 4.5-.885 6.128-2.385 11.961-4.5 17.5a7.248 7.248 0 0 1 2 2.5l-5 5a5.576 5.576 0 0 1 1 3 20.69 20.69 0 0 0-1 5h-3c-.581 7.695-4.581 12.862-12 15.5-2.162 1.645-3.495 3.812-4 6.5a29.045 29.045 0 0 1-8 2c-1.254 4.588-4.254 7.588-9 9a31.642 31.642 0 0 0-3 5c-4.655-.506-8.655.827-12 4-3.704-.709-6.704.625-9 4a3.647 3.647 0 0 1-1.5-1 82.896 82.896 0 0 1-12 5 3.943 3.943 0 0 1-2-1 26.67 26.67 0 0 1-6.5 1.5l-2 2c-3.725.76-7.392.593-11-.5-2.207 1.529-4.707 2.195-7.5 2-11.744-.348-23.244-2.514-34.5-6.5-2.601-3.65-5.935-4.484-10-2.5.219-1.175-.114-2.175-1-3a1183.161 1183.161 0 0 0-23-10.5c-3.08-1.788-5.747-4.121-8-7a22.981 22.981 0 0 0-5-2 20.48 20.48 0 0 0-3-5.5 151.91 151.91 0 0 0-8-7c.718-1.637.884-3.303.5-5a39.806 39.806 0 0 1-8-7c-.34-4.613-1.84-8.779-4.5-12.5.66-2.774.493-5.608-.5-8.5a128.75 128.75 0 0 1-7.5-23.5c1.126-3.744 1.293-7.577.5-11.5-.66-1.824-1.827-3.157-3.5-4v-2c.617-.111 1.117-.444 1.5-1a100.968 100.968 0 0 1 4.5-24c-1.037-4.227-1.037-8.227 0-12 1.515-2.047 2.349-4.381 2.5-7a24.275 24.275 0 0 0 3.5-3.5 11.187 11.187 0 0 1-1-4.5h3c-.285-1.788.048-3.455 1-5 1.758-3.405 4.258-6.071 7.5-8a4.934 4.934 0 0 0 .5-3 8.43 8.43 0 0 0 4-.5c2.28-2.304 4.946-3.804 8-4.5z"/><path style="opacity:1" fill="#268974" d="M838.5 395.5a5.576 5.576 0 0 1-1 3c6.557 1.105 6.557 2.105 0 3a76.691 76.691 0 0 1 3 11l-10-1a6.846 6.846 0 0 1 1-4c-3.674-3.124-4.674-6.791-3-11v3a8.43 8.43 0 0 0 4-.5 27.563 27.563 0 0 1 6-3.5z"/><path style="opacity:1" fill="#209350" d="M863.5 333.5a8.43 8.43 0 0 1 4 .5 13.92 13.92 0 0 0 3 4c2.993 1.369 5.993 1.703 9 1 .752.671 1.086 1.504 1 2.5.107 1.879-.393 2.212-1.5 1-.661 2.416-2.161 4.082-4.5 5-1.904 6.671-6.071 12.004-12.5 16a4.934 4.934 0 0 0-.5 3h-4v3c-5.135 1.15-9.635 3.484-13.5 7a35.193 35.193 0 0 0-4.5-1c-1.414.965-2.247 1.965-2.5 3a51.919 51.919 0 0 1-5.5-3c-.567-2.469-.567-4.802 0-7 .71-2.393 1.377-4.893 2-7.5-.881-.708-1.547-1.542-2-2.5.06-.543.393-.876 1-1l5 2.5c-1.493 1.156-1.326 1.99.5 2.5a40.128 40.128 0 0 0 9.5-4 6.895 6.895 0 0 1 4 2l1-.5c-4.196-4.106-3.53-5.606 2-4.5v-3c1.322-.17 2.489.163 3.5 1a31.916 31.916 0 0 1 7-11c.586-3.229.086-6.229-1.5-9z"/><path style="opacity:1" fill="#238f5f" d="M880.5 341.5a10.515 10.515 0 0 1 3 2.5c-.684 3.035-2.351 5.369-5 7a6.293 6.293 0 0 1 1 3c-1.486 2.589-2.153 5.423-2 8.5-3.41-.116-4.744 1.55-4 5h-9a104.618 104.618 0 0 0-1 9 8.43 8.43 0 0 0-4 .5 11.142 11.142 0 0 1-3.5 5.5c-1.494-1.247-2.994-1.247-4.5 0 1.885.697 2.218 1.697 1 3-5.004 1.671-8.338 5.004-10 10-1.495-1.205-2.828-1.205-4 0a27.563 27.563 0 0 0-6 3.5 8.43 8.43 0 0 1-4 .5v-3a12.992 12.992 0 0 1 1-5.5 9.258 9.258 0 0 0-2-2.5c2.335-3.99 3.668-8.323 4-13a51.919 51.919 0 0 0 5.5 3c.253-1.035 1.086-2.035 2.5-3 1.467.223 2.967.556 4.5 1 3.865-3.516 8.365-5.85 13.5-7v-3h4a4.934 4.934 0 0 1 .5-3c6.429-3.996 10.596-9.329 12.5-16 2.339-.918 3.839-2.584 4.5-5 1.107 1.212 1.607.879 1.5-1z"/><path style="opacity:1" fill="#1e9645" d="M863.5 333.5c1.586 2.771 2.086 5.771 1.5 9a31.916 31.916 0 0 0-7 11c-1.011-.837-2.178-1.17-3.5-1v3c-5.53-1.106-6.196.394-2 4.5l-1 .5a6.895 6.895 0 0 0-4-2 40.128 40.128 0 0 1-9.5 4c-1.826-.51-1.993-1.344-.5-2.5l-5-2.5c-.607.124-.94.457-1 1h-3l-4-8c1.268 1.887 3.101 2.887 5.5 3a46.909 46.909 0 0 0 13.5-5 450.275 450.275 0 0 0 14-16.5 39.064 39.064 0 0 1-2-4.5 20.69 20.69 0 0 1 5-1c1.139 2.662 1.306 5.329.5 8 .671-.752 1.504-1.086 2.5-1z"/><path style="opacity:1" fill="#178176" d="M851.5 322.5h4v4h-4v-4z"/><path style="opacity:1" fill="#27877a" d="M922.5 284.5a7.47 7.47 0 0 1 3 2c-.928 1.268-1.095 2.601-.5 4a24.275 24.275 0 0 1 3.5 3.5 295.149 295.149 0 0 0 0 18l-2 8c1.619 2.16 1.286 3.66-1 4.5-3.759 4.452-5.759 3.785-6-2h-5c.262-1.478-.071-2.811-1-4-6.18-3.197-7.18-7.531-3-13-1.685-2.548-1.352-4.548 1-6 2.457-1.37 3.123-3.37 2-6a35.193 35.193 0 0 0 4.5-1c1.21-3.003 2.71-5.67 4.5-8z"/><path style="opacity:1" fill="#1a9843" d="M831.5 302.5h3c.481 3.849-1.186 5.849-5 6 .104-2.203.77-4.203 2-6z"/><path style="opacity:1" fill="#18935d" d="M816.5 297.5h2a31.642 31.642 0 0 1 5 3c1.361 2.484 1.194 4.817-.5 7-1.688-.825-1.855-1.825-.5-3a44.375 44.375 0 0 1-9-3c.825-.886 1.825-1.219 3-1v-3z"/><path style="opacity:1" fill="#1372a9" d="m757.5 276.5 4 4a20.303 20.303 0 0 1 3 6.5 14.506 14.506 0 0 1 5 4c5.174-.339 7.174 1.827 6 6.5.457.798 1.124 1.131 2 1h3c.791 3.306 2.624 5.973 5.5 8a9.568 9.568 0 0 0 3-3c.495 1.973.662 3.973.5 6 2.222-.322 4.056.345 5.5 2 .423-1.456 1.256-1.956 2.5-1.5a21.53 21.53 0 0 1 6 5c3.62-.148 6.12 1.352 7.5 4.5a32.364 32.364 0 0 1 5.5 4c2.236.083 4.57-.25 7-1 1.334 2.318.668 3.985-2 5a29.224 29.224 0 0 1-5 12.5c3.141 3.219 5.808 6.719 8 10.5l4 8h3c.453.958 1.119 1.792 2 2.5a144.255 144.255 0 0 1-2 7.5c1.333-6-1-8.333-7-7 .117-1.984-.55-3.65-2-5a65.75 65.75 0 0 0-10-1.5c-.598-2.048-1.931-3.215-4-3.5a33.74 33.74 0 0 0-7 2 18.33 18.33 0 0 1-6 4 33.508 33.508 0 0 0-5.5-6c-2.157.885-2.99 2.552-2.5 5-1.624-.14-2.79.527-3.5 2a18.453 18.453 0 0 0-.5 6c-1.89.203-3.39-.463-4.5-2-.743 1.941-.576 3.774.5 5.5-2 .667-4 .667-6 0 .837-1.011 1.17-2.178 1-3.5-3.161-.97-5.994-2.637-8.5-5-.492-1.049-.326-2.049.5-3-2.831-4.65-6.331-8.65-10.5-12a20.093 20.093 0 0 1-1.5-6c-1.175.219-2.175-.114-3-1 .098-3.183.265-6.516.5-10-1.949.037-3.782-.463-5.5-1.5a10.258 10.258 0 0 0 4-1.5 377.167 377.167 0 0 0-5-4.5c4.523-1.015 5.19-3.181 2-6.5.729-2.095.063-3.928-2-5.5 1.399-1.062 2.399-2.395 3-4-3.234-4.128-2.234-6.628 3-7.5-1.512-.749-2.512-1.916-3-3.5.51-1.826 1.344-1.993 2.5-.5 2.996-2.009 3.496-4.176 1.5-6.5a130.48 130.48 0 0 0 5-9.5z"/><path style="opacity:1" fill="#1b9a35" d="M832.5 272.5a308.607 308.607 0 0 0-3 4c-1.557.966-2.89 2.3-4 4 1.333 1 1.333 2 0 3-2.817.791-5.317 2.124-7.5 4 .152 1.576.985 2.909 2.5 4a7.248 7.248 0 0 1-2 2.5c1.184 1.145 1.184 2.312 0 3.5h-2a86.818 86.818 0 0 0-3-5.5c-2.776-.066-4.942-1.232-6.5-3.5a33.473 33.473 0 0 0-12.5 6c-1.555 2.443-2.222 5.11-2 8a8.43 8.43 0 0 1 4 .5 12.14 12.14 0 0 0 3.5 4.5c2.244-2.808 5.077-4.808 8.5-6 2.031 1.749 2.365 3.749 1 6a63.91 63.91 0 0 0 5.5 1 23.788 23.788 0 0 1-.5 10c3.025.377 6.025.544 9 .5a16.84 16.84 0 0 1 6-4.5c.886.825 1.219 1.825 1 3 1.89.203 3.39-.463 4.5-2 1.945 1.192 3.945 1.192 6 0 1.765.732 2.932 2.065 3.5 4 2.656.46 4.99 1.46 7 3v4h4v1a39.064 39.064 0 0 0 2 4.5 450.275 450.275 0 0 1-14 16.5 46.909 46.909 0 0 1-13.5 5c-2.399-.113-4.232-1.113-5.5-3-2.192-3.781-4.859-7.281-8-10.5a29.224 29.224 0 0 0 5-12.5c2.668-1.015 3.334-2.682 2-5-2.43.75-4.764 1.083-7 1a32.364 32.364 0 0 0-5.5-4c-1.38-3.148-3.88-4.648-7.5-4.5a21.53 21.53 0 0 0-6-5c-1.244-.456-2.077.044-2.5 1.5-1.444-1.655-3.278-2.322-5.5-2a18.453 18.453 0 0 0-.5-6 9.568 9.568 0 0 1-3 3c-2.876-2.027-4.709-4.694-5.5-8h-3c-.027-2.584.307-5.251 1-8 1.207-1.949 2.873-3.449 5-4.5-.837-1.011-1.17-2.178-1-3.5a8.43 8.43 0 0 0 4-.5 8.905 8.905 0 0 1 4-3 39.216 39.216 0 0 1 6.5-8.5 3.943 3.943 0 0 0 2 1c4.142-1.908 8.809-3.242 14-4 2.774.817 5.607.817 8.5 0 1.82.149 3.32.816 4.5 2 1.726-1.076 3.559-1.243 5.5-.5 1.873.953 2.206 2.12 1 3.5z"/><path style="opacity:1" fill="#228e5a" d="M852.5 259.5c2.614-.223 4.281.944 5 3.5-2.394 2.524-5.394 3.691-9 3.5.461-2.803 1.795-5.137 4-7z"/><path style="opacity:1" fill="#9f8d77" d="M69.5 420.5c-.624 2.254-1.957 3.921-4 5-.317-3.046 1.016-4.713 4-5z"/><path style="opacity:1" fill="#8e8d85" d="M253.5 422.5c-1 1.333-2 1.333-3 0 .702-.616 1.702-.616 3 0z"/><path style="opacity:1" fill="#266cc9" d="M723.5 382.5a151.91 151.91 0 0 1 8 7 20.48 20.48 0 0 1 3 5.5 22.981 22.981 0 0 1 5 2c2.253 2.879 4.92 5.212 8 7a1183.161 1183.161 0 0 1 23 10.5c.886.825 1.219 1.825 1 3 4.065-1.984 7.399-1.15 10 2.5 11.256 3.986 22.756 6.152 34.5 6.5 2.793.195 5.293-.471 7.5-2 3.608 1.093 7.275 1.26 11 .5l2-2a26.67 26.67 0 0 0 6.5-1.5 3.943 3.943 0 0 0 2 1 82.896 82.896 0 0 0 12-5c.414.457.914.791 1.5 1 2.296-3.375 5.296-4.709 9-4 3.345-3.173 7.345-4.506 12-4-1.109.79-2.442 1.29-4 1.5-1.71 1.651-3.044 3.484-4 5.5-3.363-1.661-5.697-.661-7 3-1.506 1.247-3.006 1.247-4.5 0-3.143 3.067-6.81 5.4-11 7-2.331-1.555-4.331-1.221-6 1-1.695-.657-3.528-.657-5.5 0a11.284 11.284 0 0 1-6-2 34.267 34.267 0 0 1-13.5 6 108.054 108.054 0 0 1-20-5c-1.395 1.315-2.395.981-3-1a334.268 334.268 0 0 0-9.5 0 305.697 305.697 0 0 1-8.5-4c-.873.235-1.707.569-2.5 1-2.394-3.04-5.394-5.373-9-7-.793.431-1.627.765-2.5 1a105.321 105.321 0 0 1-17.5-8 18.924 18.924 0 0 1-3-5 32.444 32.444 0 0 0-6-1.5 40.883 40.883 0 0 1-8.5-13.5 13.92 13.92 0 0 0-4-3 8.43 8.43 0 0 1-.5-4z"/><path style="opacity:1" fill="#fdd59d" d="M298.5 447.5c-.992.172-1.658-.162-2-1a2.428 2.428 0 0 1 .5-2c2.429-.529 4.262-1.863 5.5-4 6.827.657 9.494 4.324 8 11l-2.5-6c-2.269 1.095-4.436.761-6.5-1-1.355.688-2.355 1.688-3 3z"/><path style="opacity:1" fill="#f9d654" d="M226.5 446.5h3a18.453 18.453 0 0 1-.5 6 3.647 3.647 0 0 1-1.5 1 13.116 13.116 0 0 1-1-7z"/><path style="opacity:1" fill="#faeee8" d="M246.5 446.5h6c.135 3.686-.365 7.353-1.5 11-3.132-2.283-3.299-4.783-.5-7.5-1.148-1.726-2.315-1.559-3.5.5a8.43 8.43 0 0 1-.5-4z"/><path style="opacity:1" fill="#fbf4d4" d="M268.5 446.5c1.495-.085 2.495.581 3 2-1.896 1.139-2.896.473-3-2z"/><path style="opacity:1" fill="#faf0ef" d="M112.5 448.5a5.727 5.727 0 0 0-1 3c-.838.342-1.172 1.008-1 2-.996-.086-1.829.248-2.5 1a8.43 8.43 0 0 1-.5-4c1.091-2.692 2.757-3.358 5-2z"/><path style="opacity:1" fill="#fbeee4" d="M127.5 447.5c1.855-.228 2.688.439 2.5 2-1.026 3.193-3.192 4.526-6.5 4v-5c1.599.268 2.932-.066 4-1z"/><path style="opacity:1" fill="#fef5e7" d="M313.5 447.5c3.661-.074 4.328.926 2 3-1.419-.505-2.085-1.505-2-3z"/><path style="opacity:1" fill="#f9e4e8" d="M148.5 447.5c3.398-.32 6.732.013 10 1-1.697.864-2.863 2.197-3.5 4a9.201 9.201 0 0 0-4.5-2c-2.06 1.028-4.06 1.028-6 0 1.124-1.359 2.458-2.359 4-3z"/><path style="opacity:1" fill="#fbf0e1" d="M163.5 447.5a60.931 60.931 0 0 1 11 .5c-2.477 2.603-5.477 3.603-9 3-1.323-.816-1.989-1.983-2-3.5z"/><path style="opacity:1" fill="#fce8d0" d="M213.5 449.5c.12-1.086.787-1.753 2-2 1.605.93 3.105.93 4.5 0 2.127.897 2.627 2.231 1.5 4-2.443-1.555-5.11-2.222-8-2z"/><path style="opacity:1" fill="#f5a38d" d="M112.5 448.5c1.527-.073 2.527.594 3 2 .233 1.562.9 2.895 2 4-2.317 1.034-3.317.034-3-3h-3a5.727 5.727 0 0 1 1-3z"/><path style="opacity:1" fill="#fbe8db" d="M283.5 458.5v-4c-4.062-.369-5.729-2.369-5-6 1.544.203 2.878.87 4 2 .596-1.216.763-2.549.5-4 4.241 3.706 5.075 8.039 2.5 13a43.836 43.836 0 0 0-2-1z"/><path style="opacity:1" fill="#f9e9ed" d="M96.5 448.5c.067 1.459-.266 2.792-1 4-1.208-.734-2.541-1.067-4-1-.984 5.158-1.817 5.158-2.5 0-2.126-.897-2.626-2.231-1.5-4 3.149.648 6.149.981 9 1z"/><path style="opacity:1" fill="#fbe9d2" d="M79.5 447.5c3.04-.094 4.707 1.406 5 4.5-2.305 2.594-2.638 5.427-1 8.5-1.846.278-3.18-.389-4-2-.76-3.566-.76-7.233 0-11z"/><path style="opacity:1" fill="#fbdf94" d="M107.5 450.5a8.43 8.43 0 0 0 .5 4c.671-.752 1.504-1.086 2.5-1 .934 1.068 1.268 2.401 1 4-1.548.321-2.215 1.321-2 3-.791-2.832-2.124-5.499-4-8a61.521 61.521 0 0 1-1 7 28.071 28.071 0 0 1-5-5c-4.8 8.27-6.133 7.603-4-2 .734-1.208 1.067-2.541 1-4a89.622 89.622 0 0 1 6 4 9.86 9.86 0 0 0 1-6h3c-.268 1.599.066 2.932 1 4z"/><path style="opacity:1" fill="#fbd7b8" d="M213.5 449.5c-.086.996.248 1.829 1 2.5a853.04 853.04 0 0 1-5 6.5c-2.339 1.224-4.672 1.224-7 0l4-2c-2.418-.915-4.418-2.415-6-4.5a14.748 14.748 0 0 0 3-4.5c2.336 1.094 2.336 2.427 0 4 1.907.87 3.74 1.87 5.5 3a50.457 50.457 0 0 0 4.5-5z"/><path style="opacity:1" fill="#fad8ca" d="M257.5 447.5c.996-.086 1.829.248 2.5 1-.263 1.451-.096 2.784.5 4 1.195-1.797 2.862-2.797 5-3-.284 3.277.049 6.443 1 9.5-2.525.041-4.858-.793-7-2.5l-2 2c-.189-3.485-.189-7.152 0-11z"/><path style="opacity:1" fill="#fbecb0" d="M117.5 454.5c-1.1-1.105-1.767-2.438-2-4 2.418-1.515 4.085-.849 5 2-.505 1.419-1.505 2.085-3 2z"/><path style="opacity:1" fill="#fcecd4" d="M182.5 446.5h3a32.462 32.462 0 0 0 .5 8 52.56 52.56 0 0 0 1.5-7c2.935 1.078 5.602 1.078 8 0a49.012 49.012 0 0 1 0 9c2.336 1.573 2.336 2.906 0 4-4.048-1.956-8.382-2.956-13-3 1.039-3.627 1.039-7.294 0-11z"/><path style="opacity:1" fill="#fbf0d9" d="M132.5 447.5c1.951.782 3.451 2.116 4.5 4a8.43 8.43 0 0 0 .5-4h3c1.12 2.887 2.12 5.887 3 9 3.35-1.774 5.016-.774 5 3-1.984.117-3.65-.55-5-2l-4 4c-.929-1.189-1.262-2.522-1-4-2.452.124-4.452 1.124-6 3l-2-1c3.115-3.576 3.782-7.576 2-12z"/><path style="opacity:1" fill="#f7ac87" d="M278.5 448.5c-.729 3.631.938 5.631 5 6v4l-4-2c-1.342 1.505-3.008 2.172-5 2 .067-1.459-.266-2.792-1-4 .997.03 1.664-.47 2-1.5a11.187 11.187 0 0 1-1-4.5h4z"/><path style="opacity:1" fill="#fbf7f1" d="M109.5 460.5c-.215-1.679.452-2.679 2-3a5.576 5.576 0 0 0 3-1c1.021.502 1.188 1.168.5 2-1.444 1.655-3.278 2.322-5.5 2z"/><path style="opacity:1" fill="#fbf0d5" d="M174.5 452.5c2.167 1.146 3.5 2.979 4 5.5l-2.5 2.5a18.991 18.991 0 0 1-1.5-8z"/><path style="opacity:1" fill="#fbeede" d="M220.5 452.5c2.162.397 3.495 1.731 4 4 3.38-1.757 6.046-1.09 8 2-5.638 1.592-11.305 1.925-17 1l-1-2c1.412-1.306 3.079-2.14 5-2.5.752-.671 1.086-1.504 1-2.5z"/><path style="opacity:1" fill="#fab95d" d="M296.5 446.5c.342.838 1.008 1.172 2 1 .87 1.532.536 3.032-1 4.5 1.035 3.611 2.702 4.111 5 1.5 2.493.1 4.993.433 7.5 1-.193 1.582-1.026 2.916-2.5 4-1.406.473-2.073 1.473-2 3-.642-3.633-2.642-4.633-6-3-3.273-.562-4.273-2.229-3-5a6.802 6.802 0 0 0-3-1.5c.489-2.209 1.489-4.042 3-5.5z"/><path style="opacity:1" fill="#fbd9a4" d="M242.5 448.5c2.395 1.382 2.895 3.048 1.5 5a18.453 18.453 0 0 0-.5 6 104.618 104.618 0 0 0-9-1 9.86 9.86 0 0 1 1-6c.929 1.189 1.262 2.522 1 4a6.846 6.846 0 0 1 4 1c1.705-2.973 2.372-5.973 2-9z"/><path style="opacity:1" fill="#fbf2e6" d="M273.5 454.5c.734 1.208 1.067 2.541 1 4a179.42 179.42 0 0 0-7 .5 28.834 28.834 0 0 1 4-6c1.316-.528 1.983-.028 2 1.5z"/><path style="opacity:1" fill="#faeeeb" d="M153.5 454.5h3a10.776 10.776 0 0 1-2 6c-2.239-1.633-2.572-3.633-1-6z"/><path style="opacity:1" fill="#fde3bd" d="M305.5 461.5c-.073-1.527.594-2.527 2-3a54.057 54.057 0 0 0 9 2 21.772 21.772 0 0 1 3.5-7 26.67 26.67 0 0 0 1.5 6.5l-2 3a238.36 238.36 0 0 0-14-1.5z"/><path style="opacity:1" fill="#fefefe" d="M-.5 462.5c2.018 1.123 4.018 1.123 6 0a11.064 11.064 0 0 0 3.5 2c4.198-2.529 8.364-2.529 12.5 0 3.995-.335 7.995-.669 12-1a22.973 22.973 0 0 1 5 2c3.354-1.988 6.854-1.988 10.5 0a7.253 7.253 0 0 1 2.5-2c2.589 2.367 5.255 2.367 8 0 1.953 2.039 1.953 4.372 0 7a8.908 8.908 0 0 1 3 4c-1.496 4.013-.162 6.346 4 7v3h3a4.932 4.932 0 0 1 .5-3c1.3 1.48 2.966 2.146 5 2a93.874 93.874 0 0 1 26.5 1c4.841-1.304 9.674-1.304 14.5 0a9.258 9.258 0 0 0 2.5-2c1.284 1.085 2.784 1.752 4.5 2 8.969-.956 17.802-.956 26.5 0 2.518-1.964 5.184-2.63 8-2a7.248 7.248 0 0 1 2.5 2c3.28-.746 6.614-1.413 10-2 5.492.045 10.992.045 16.5 0 2.582 1.47 5.415 2.137 8.5 2 7.875-2.152 15.875-2.152 24 0 1.261-.259 2.261-.926 3-2a18.08 18.08 0 0 0 3.5 2 45.11 45.11 0 0 0 13-3c6.265 3.08 12.599 3.413 19 1l4 2a261.668 261.668 0 0 1 21 0l3-2c3.311 1.244 6.644 1.244 10 0 2.133 2.364 4.133 2.364 6 0 1.962 1.134 3.962 1.134 6 0 1.588.51 2.755 1.51 3.5 3a18.099 18.099 0 0 1 5.5-2c2.038 1.134 4.038 1.134 6 0l6 2c2.458-1.419 5.125-2.419 8-3 .494-1.526 1.161-2.859 2-4 .8 2.241 2.466 3.241 5 3 3.954 1.974 7.787 1.974 11.5 0 1.812-.007 3.312.66 4.5 2 .607-.124.94-.457 1-1a44.433 44.433 0 0 0 5.5-3c1.039.744 1.539 1.744 1.5 3 2.331.817 4.831 1.484 7.5 2 .765-.07 1.265-.403 1.5-1a511.122 511.122 0 0 1 18-.5l1.5-1.5c.739 1.074 1.739 1.741 3 2 2.834-.691 5.667-.357 8.5 1a80.852 80.852 0 0 1 16 0c1.725 2.202 3.891 2.535 6.5 1a22.2 22.2 0 0 1 6 2 11.295 11.295 0 0 0 4-2c2.719.944 5.552 1.277 8.5 1h2c3.225.559 6.558.559 10 0a92.425 92.425 0 0 1 15 2c.683-.363 1.35-.696 2-1a55.03 55.03 0 0 0 10 3l6-2a34.028 34.028 0 0 0 6.5 3 266.504 266.504 0 0 1 9-3c1.917 3.415 4.084 3.749 6.5 1h1c1.256.404 2.423 1.071 3.5 2a190.54 190.54 0 0 0 17.5 0c2.751.018 5.584-.315 8.5-1 2.25 2.137 4.75 2.471 7.5 1 3.884 2.787 7.551 2.453 11-1 4.648.923 8.981 1.923 13 3 2.173 3.782 4.506 3.782 7 0a54.444 54.444 0 0 1 7 2c1.122-1.13 2.456-1.797 4-2 2.595-.539 5.095.128 7.5 2l3-2a15.894 15.894 0 0 0 6.5 1c.899.972 2.066 1.638 3.5 2 5.609-.644 11.109-.644 16.5 0h3c2.287.224 4.453.891 6.5 2 3.59.026 7.09-.308 10.5-1 1.774-1.381 3.274-1.048 4.5 1 3.57-2.492 7.07-2.492 10.5 0a11.456 11.456 0 0 1 2.5-1l12 2c1.653-.32 2.653-1.32 3-3 2.496 3.502 5.329 3.835 8.5 1l2 2c2.057-1.322 3.89-.989 5.5 1 3.63-2.31 7.13-2.31 10.5 0a11.068 11.068 0 0 1 3.5-2c4.391.386 8.558 1.386 12.5 3 2.514-.427 5.014-.761 7.5-1 6.772 1.912 13.605 1.912 20.5 0a19.507 19.507 0 0 1 7 3c3.026-1.821 6.026-2.155 9-1 .12 1.086.787 1.753 2 2 4.076-.738 8.076-1.071 12-1 1.971.364 3.971.697 6 1a7.248 7.248 0 0 0 2.5-2c4.969 2.574 9.969 2.907 15 1 3.695 3.574 7.695 3.908 12 1 1.567 1.356 3.4 2.023 5.5 2 4.344 1.144 8.344 1.144 12 0 4.978.62 9.978 1.287 15 2 1.529-.029 2.696-.696 3.5-2l3 3a12.403 12.403 0 0 1 2.5-4c1.122 1.13 2.456 1.797 4 2 .111.617.444 1.117 1 1.5a34.57 34.57 0 0 1 11 2.5 29.146 29.146 0 0 1 9-1c-.065.438.101.772.5 1a412.427 412.427 0 0 1 7-3c1.887.469 3.387 1.469 4.5 3 3.525-3.902 7.025-3.902 10.5 0a15.894 15.894 0 0 1 6.5-1c3.355 2.343 6.688 2.343 10 0 6.158-.48 12.158.187 18 2a6.895 6.895 0 0 0 4-2c4.978 2.88 9.978 3.213 15 1a141.5 141.5 0 0 0 16.5 3 15.414 15.414 0 0 1 4.5-2c1.236 3.621 3.236 3.955 6 1a14.815 14.815 0 0 0 5.5 3c.71-1.473 1.876-2.14 3.5-2 5.46 1.316 10.96 1.316 16.5 0 4.17 3.43 8.5 3.43 13 0 1.41.914 2.91 1.58 4.5 2a7.438 7.438 0 0 0 2 3c1.2-1.797 2.86-2.797 5-3v3c4.29.302 8.29-.364 12-2 .65-.304 1.32-.637 2-1 4.38 3.376 8.88 3.71 13.5 1 1.55 1.646 3.22 1.979 5 1 1.4.894 2.9 1.561 4.5 2 4.63-2.546 9.3-2.546 14 0 6.25-1.018 12.25-1.018 18 0 1.42.951 3.09 1.284 5 1-.22 1.175.11 2.175 1 3 1.82-1.247 3.82-1.914 6-2v65H-.5v-125z"/><path style="opacity:1" fill="#9fc7fd" d="M360.5 482.5c-.06.543-.393.876-1 1-1.188-1.34-2.688-2.007-4.5-2-3.713 1.974-7.546 1.974-11.5 0 1.384-1.301 2.884-1.301 4.5 0a7.248 7.248 0 0 1 2.5-2c3.776.27 7.11 1.27 10 3z"/><path style="opacity:1" fill="#8dbcfe" d="M376.5 483.5c-.235.597-.735.93-1.5 1-2.669-.516-5.169-1.183-7.5-2 2.657.338 4.99-.329 7-2 1.419.505 2.085 1.505 2 3z"/><path style="opacity:1" fill="#76adfd" d="M448.5 486.5c-2.948.277-5.781-.056-8.5-1a11.295 11.295 0 0 1-4 2 22.2 22.2 0 0 0-6-2c-2.609 1.535-4.775 1.202-6.5-1 2.284-.604 4.784-.604 7.5 0 2.05-.191 3.883-.858 5.5-2a65.75 65.75 0 0 0 10 1.5c1.256.417 1.923 1.25 2 2.5z"/><path style="opacity:1" fill="#96c0fe" d="M460.5 486.5c-3.442.559-6.775.559-10 0 .311-.978.978-1.645 2-2a94.977 94.977 0 0 1 8 2z"/><path style="opacity:1" fill="#a9ccfe" d="M477.5 487.5a209.506 209.506 0 0 1 30.5 0c2.27 1.36 4.77 2.027 7.5 2-2.416 2.749-4.583 2.415-6.5-1a266.504 266.504 0 0 0-9 3 34.028 34.028 0 0 1-6.5-3l-6 2a55.03 55.03 0 0 1-10-3z"/><path style="opacity:1" fill="#a7cbfe" d="M537.5 491.5a190.54 190.54 0 0 1-17.5 0c-1.077-.929-2.244-1.596-3.5-2 3.436-1.496 6.936-2.162 10.5-2a105.072 105.072 0 0 1 10.5 4z"/><path style="opacity:1" fill="#7ab0fd" d="M595.5 493.5c-1.544.203-2.878.87-4 2a54.444 54.444 0 0 0-7-2c-2.494 3.782-4.827 3.782-7 0a124.15 124.15 0 0 0 3.5-3 11.068 11.068 0 0 1 3.5 2 24.49 24.49 0 0 1 6.5-2c2.183.022 3.683 1.022 4.5 3z"/><path style="opacity:1" fill="#b5d3fe" d="M632.5 496.5c-5.391-.644-10.891-.644-16.5 0-1.434-.362-2.601-1.028-3.5-2 3.163-2.988 5.996-2.655 8.5 1a7.248 7.248 0 0 1 2.5-2c3.293.476 6.293 1.476 9 3z"/><path style="opacity:1" fill="#accefe" d="M652.5 497.5a50.806 50.806 0 0 1-10.5 1 16.994 16.994 0 0 0-6.5-2c-.016-1.984.984-2.984 3-3 1.977.96 3.977 1.96 6 3l6-1a31.147 31.147 0 0 0 2 2z"/><path style="opacity:1" fill="#77affd" d="M785.5 503.5c-3.924-.071-7.924.262-12 1-1.213-.247-1.88-.914-2-2 3.446-.316 6.613-1.316 9.5-3 .907 2.109 2.407 3.442 4.5 4z"/><path style="opacity:1" fill="#a8cbfe" d="M838.5 506.5c-3.656 1.144-7.656 1.144-12 0 .366-1.195 1.199-1.861 2.5-2 2.662 2.502 5.328 2.502 8 0 1.03.336 1.53 1.003 1.5 2z"/><path style="opacity:1" fill="#aacdfe" d="M887.5 510.5a29.146 29.146 0 0 0-9 1 34.57 34.57 0 0 0-11-2.5c-.556-.383-.889-.883-1-1.5 2.234.12 4.401-.213 6.5-1 2.391 2.644 4.725 2.644 7 0 .7 1.532 1.866 2.532 3.5 3 2.016-2.663 3.349-2.33 4 1z"/><path style="opacity:1" fill="#a3cafd" d="M926.5 510.5c-3.312 2.343-6.645 2.343-10 0 3.499-.944 6.832-.944 10 0z"/><path style="opacity:1" fill="#88b9fd" d="M999.5 514.5c-1.624-.14-2.79.527-3.5 2a14.815 14.815 0 0 1-5.5-3c-2.764 2.955-4.764 2.621-6-1 5.193-.598 10.193.069 15 2z"/><path style="opacity:1" fill="#97c2fe" d="M1052.5 517.5c-3.71 1.636-7.71 2.302-12 2v-3c-2.14.203-3.8 1.203-5 3a7.438 7.438 0 0 1-2-3c4.37-.789 8.7-1.123 13-1a13.178 13.178 0 0 0 6 2z"/><path style="opacity:1" fill="#94c0fe" d="M1121.5 519.5v3c-2.18.086-4.18.753-6 2-.89-.825-1.22-1.825-1-3-1.91.284-3.58-.049-5-1 4.13.232 8.13-.101 12-1z"/></svg>