<svg xmlns="http://www.w3.org/2000/svg" width="480" height="270" style="shape-rendering:geometricPrecision;text-rendering:geometricPrecision;image-rendering:optimizeQuality;fill-rule:evenodd;clip-rule:evenodd"><path style="opacity:1" fill="#1f6fd8" d="M-.5-.5h480v189a358.463 358.463 0 0 1-10 1.5c-156.681.825-313.348.658-470-.5V-.5z"/><path style="opacity:1" fill="#3b5fa1" d="M61.5 11.5c-2.093 4.916-.426 6.916 5 6a41.744 41.744 0 0 1-6 2l-2-6c-.952 1.545-1.285 3.212-1 5h-3v-5h-4c.763-.768 1.763-1.268 3-1.5a8.434 8.434 0 0 0-4-.5c1.108-.79 2.442-1.29 4-1.5-2.401-.805-2.234-1.638.5-2.5 1.946 2.315 4.446 3.648 7.5 4z"/><path style="opacity:1" fill="#6b8994" d="M87.5 12.5c-2-1.333-4-1.333-6 0-.432-1.21-1.099-2.21-2-3 2.532-7.122 5.865-7.622 10-1.5a9.173 9.173 0 0 0-2 4.5z"/><path style="opacity:1" fill="#edc224" d="M83.5 5.5c4.425 1.137 4.758 2.803 1 5-2.204-1.282-2.538-2.949-1-5z"/><path style="opacity:1" fill="#453c30" d="M79.5 9.5c.901.79 1.568 1.79 2 3-1.205 1.172-1.205 2.505 0 4-1.189.929-2.522 1.262-4 1 .24-1.967-.094-3.8-1-5.5a10.521 10.521 0 0 1 3-2.5z"/><path style="opacity:1" fill="#47381f" d="M96.5 11.5h7a9.86 9.86 0 0 1-1 6c-.929-1.189-1.262-2.522-1-4h-3c.262 1.478-.071 2.811-1 4a9.864 9.864 0 0 1-1-6z"/><path style="opacity:1" fill="#23416c" d="M267.5 11.5c.815.93 1.648 1.93 2.5 3a4.934 4.934 0 0 0 .5-3c1.624-.14 2.79.527 3.5 2 1.46-1.922 3.127-2.59 5-2 .807 3.949 1.307 3.949 1.5 0 4.634-.94 5.801.393 3.5 4l-1-2c-1.261 3.32-2.928 3.654-5 1-1.333 1.333-2.667 1.333-4 0-1.241 2.14-2.907 2.473-5 1l-2.5-1a5.575 5.575 0 0 0 1-3z"/><path style="opacity:1" fill="#23497e" d="M299.5 11.5c.781 2.128 1.781 2.295 3 .5 5.023.1 9.69-.066 14-.5.793.855.46 1.689-1 2.5a4.451 4.451 0 0 1 2 1.5h-7a4.458 4.458 0 0 1-1.5-2c-1.434 1.636-3.267 2.636-5.5 3-1.333-1.333-2.667-1.333-4 0a99.218 99.218 0 0 1 0-5z"/><path style="opacity:1" fill="#244571" d="M337.5 11.5c3.035.298 6.035.298 9 0 2.667 1.667 2.667 3.333 0 5-.925-1.14-1.759-1.14-2.5 0a14.962 14.962 0 0 1-3.5-3c-2.214 2.424-3.214 1.757-3-2z"/><path style="opacity:1" fill="#244c83" d="M352.5 11.5c2.507.496 4.507 1.83 6 4a92.39 92.39 0 0 1-8.5 1c-.249-2.168.584-3.835 2.5-5z"/><path style="opacity:1" fill="#483b2a" d="M61.5 11.5c6.54-.203 7.206 1.13 2 4a44.293 44.293 0 0 1 3 2c-5.426.916-7.093-1.084-5-6z"/><path style="opacity:1" fill="#483a29" d="M49.5 11.5a8.434 8.434 0 0 1 4 .5c-1.237.232-2.237.732-3 1.5.507 1.359 1.507 2.359 3 3-4.519 2.087-6.352.754-5.5-4 .383-.556.883-.89 1.5-1z"/><path style="opacity:1" fill="#473413" d="M83.5 13.5c1.086.12 1.753.787 2 2l-1 2c-.929-1.189-1.262-2.522-1-4z"/><path style="opacity:1" fill="#4a3f38" d="M87.5 12.5c5.211-3.494 7.378-2.161 6.5 4-4.448 2.16-6.615.828-6.5-4z"/><path style="opacity:1" fill="#254f89" d="M379.5 11.5c1.44.863 2.774.863 4 0a7.248 7.248 0 0 1 2.5 2c2.243-1.782 4.743-2.282 7.5-1.5-.837 1.011-1.17 2.178-1 3.5-2.511-.199-4.678-.532-6.5-1l-2 2c-1.113-1.211-2.28-1.211-3.5 0-2.204-1.282-2.538-2.949-1-5z"/><path style="opacity:1" fill="#484b5f" d="M69.5 10.5c1.967-.24 3.8.094 5.5 1 .497 2.31.663 4.643.5 7-2.293.256-4.46-.077-6.5-1-.45-2.564.716-4.064 3.5-4.5-1.62-.236-2.62-1.069-3-2.5z"/><path style="opacity:1" fill="#1f69cb" d="M159.5 86.5c-.163 2.357.003 4.69.5 7 .383-.556.883-.89 1.5-1-1.608 4.455-.441 5.121 3.5 2 .72 1.612.554 3.112-.5 4.5a8.435 8.435 0 0 0 4 .5v4l1 6a103.265 103.265 0 0 1-5-3c1.411-4.272-.256-6.272-5-6v7h3c-.763.768-1.763 1.268-3 1.5 1.607 1.049 2.273 2.549 2 4.5-.722-.418-1.222-1.084-1.5-2a24.935 24.935 0 0 0-.5 7h3c-.763.768-1.763 1.268-3 1.5 1.098.77 1.098 1.603 0 2.5v7h4c-1.109.79-2.442 1.29-4 1.5a4.934 4.934 0 0 0 3 .5v3c-1.901-.254-2.567.08-2 1-.801 1.542-1.134 3.208-1 5 3.297.171 3.631-.495 1-2l1.5-1c1.25 2.206 3.084 3.539 5.5 4-1.419.951-3.085 1.284-5 1a42.42 42.42 0 0 1-3.5 11 3.647 3.647 0 0 0-1.5-1c.391 1.218-.276 2.052-2 2.5 2.391.691 2.391 1.691 0 3-1.563 2.618-3.896 5.284-7 8l1 1c-28.525 23.174-57.191 23.174-86 0-.481-2.347-1.981-4.513-4.5-6.5-17.255-27.47-15.088-53.637 6.5-78.5 21.131-17.088 44.131-20.088 69-9l13 9c1.817 1.8 2.984 3.966 3.5 6.5.414-.457.914-.79 1.5-1 1.654 2.324 3.321 4.657 5 7a346.069 346.069 0 0 1 2-8z"/><path style="opacity:1" fill="#dbb74e" d="M185.5 75.5c4.53.52 4.863 1.686 1 3.5l2 1c-3.793.487-4.793-1.013-3-4.5z"/><path style="opacity:1" fill="#dfbd43" d="M220.5 75.5h3v5h-4c-.134-1.791.199-3.458 1-5z"/><path style="opacity:1" fill="#f0c234" d="M194.5 73.5c1.175-.219 2.175.114 3 1-5.268 2.002-5.268 3.835 0 5.5-5.352.175-6.352-1.991-3-6.5z"/><path style="opacity:1" fill="#d5b557" d="M165.5 73.5c.997-.03 1.664.47 2 1.5a23.443 23.443 0 0 1-2 5.5 7.248 7.248 0 0 1-2.5-2 4.458 4.458 0 0 1-1.5 2c-1.756-1.691-2.256-3.691-1.5-6 .611 3.772 1.611 3.772 3 0 1.941 4.054 2.775 3.72 2.5-1z"/><path style="opacity:1" fill="#d5ba3f" d="M168.5 75.5c4.53.52 4.863 1.686 1 3.5l2 1c-3.832.514-4.832-.986-3-4.5z"/><path style="opacity:1" fill="#e4bd34" d="M176.5 76.5c.689-1.274 1.523-1.274 2.5 0a8.43 8.43 0 0 1 .5 4c-4.027.22-4.694-.948-2-3.5-.228-.399-.562-.565-1-.5z"/><path style="opacity:1" fill="#c8b24b" d="M203.5 75.5c3.833 1.166 3.833 2.333 0 3.5 2.095.556 2.262 1.056.5 1.5-3.073-1.248-3.24-2.915-.5-5z"/><path style="opacity:1" fill="#e4be32" d="M208.5 76.5c.689-1.274 1.523-1.274 2.5 0a8.43 8.43 0 0 1 .5 4c-4.027.22-4.694-.948-2-3.5-.228-.399-.562-.565-1-.5z"/><path style="opacity:1" fill="#ceb748" d="M180.5 75.5a4.932 4.932 0 0 1 3 .5c-1.728 6.048-2.728 5.882-3-.5z"/><path style="opacity:1" fill="#dfba42" d="M212.5 74.5c1.256-.039 2.256.461 3 1.5-.717 1.652-1.05 3.152-1 4.5-1.783-1.522-2.449-3.522-2-6z"/><path style="opacity:1" fill="#d7af5e" d="M217.5 75.5c1.288 1.535 1.288 3.201 0 5-1.166-1.667-1.166-3.334 0-5z"/><path style="opacity:1" fill="#4f6dd9" d="M220.5 77.5c1.837.14 2.17.806 1 2-.798-.457-1.131-1.124-1-2z"/><path style="opacity:1" fill="#f7c525" d="M225.5 75.5c3.571-.092 4.738 1.574 3.5 5-1.423-5.12-2.423-5.12-3 0a12.93 12.93 0 0 1-.5-5z"/><path style="opacity:1" fill="#ecc227" d="M198.5 75.5a4.932 4.932 0 0 1 3 .5c-1.393 1.171-2.227 2.671-2.5 4.5a12.93 12.93 0 0 1-.5-5z"/><path style="opacity:1" fill="#f1f2fa" d="M202.5 90.5c-.709.904-1.709 1.237-3 1a18.452 18.452 0 0 1 .5-6 9.465 9.465 0 0 0 2.5 1.5c-2.427 1.555-2.427 2.721 0 3.5z"/><path style="opacity:1" fill="#c8daf6" d="M210.5 86.5c2.357-.163 4.69.003 7 .5 1.374 3.41 2.041 3.243 2-.5 3.41-.116 4.744 1.55 4 5h-7c-.096-3.81-.762-3.81-2 0a6.802 6.802 0 0 1-1.5-3 10.256 10.256 0 0 1-1.5 4 9.86 9.86 0 0 1-1-6z"/><path style="opacity:1" fill="#f4f7fc" d="M188.5 86.5c3.571-.092 4.738 1.574 3.5 5-1-4-2-4-3 0a12.93 12.93 0 0 1-.5-5z"/><path style="opacity:1" fill="#e9eff9" d="M224.5 86.5a4.932 4.932 0 0 1 3 .5c-1.728 6.048-2.728 5.882-3-.5z"/><path style="opacity:1" fill="#e2e8f8" d="M228.5 84.5c1.578.566 2.912 1.566 4 3-.645 1.232-.811 2.565-.5 4-1-1.333-2-1.333-3 0a24.935 24.935 0 0 1-.5-7z"/><path style="opacity:1" fill="#abc2f0" d="M242.5 90.5c-1.042 1.291-2.208 1.291-3.5 0-2.514 2.677-4.347 2.177-5.5-1.5.833-2.5 2.333-3 4.5-1.5 1.081-2.267 2.581-2.434 4.5-.5-2.427 1.555-2.427 2.721 0 3.5z"/><path style="opacity:1" fill="#c0d7f6" d="M242.5 90.5c.831-4.01 2.664-4.677 5.5-2a22.973 22.973 0 0 0 2-5 25.238 25.238 0 0 1 0 10l-2-4c-1.459 2.31-3.292 2.643-5.5 1z"/><path style="opacity:1" fill="#8fabea" d="M165.5 91.5c1.599.268 2.932-.066 4-1a2.427 2.427 0 0 0 2-.5c-.837-1.011-1.17-2.178-1-3.5a32.438 32.438 0 0 1 8 .5c-.712 1.425-.879 2.925-.5 4.5a11.357 11.357 0 0 1-3.5 1.5c1.196.654 1.196 1.154 0 1.5-2.934-1.477-5.934-2.477-9-3z"/><path style="opacity:1" fill="#ccceef" d="M179.5 84.5c1.225.652 1.892 1.819 2 3.5l-1 3.5a13.115 13.115 0 0 1-1-7z"/><path style="opacity:1" fill="#bbd5f5" d="M202.5 90.5c.226-3.264 1.726-4.264 4.5-3a8.43 8.43 0 0 1 .5 4c-1.792.134-3.458-.2-5-1z"/><path style="opacity:1" fill="#dadff6" d="M183.5 86.5c3.185.222 4.185 1.722 3 4.5a8.435 8.435 0 0 1-4 .5c-.134-1.791.199-3.458 1-5z"/><path style="opacity:1" fill="#dde6f8" d="M194.5 86.5h3v5c-1.478.262-2.811-.071-4-1a6.845 6.845 0 0 0 1-4z"/><path style="opacity:1" fill="#dae1f7" d="M159.5 86.5c2.738-.535 4.572.465 5.5 3a4.934 4.934 0 0 0 .5-3c3-.333 4.333 1 4 4-1.068.934-2.401 1.268-4 1-1.501-.943-2.835-.61-4 1-.617.11-1.117.444-1.5 1a24.935 24.935 0 0 1-.5-7z"/><path style="opacity:1" fill="#f2f3fa" d="M180.5 106.5c-.709.904-1.709 1.237-3 1a18.453 18.453 0 0 1 .5-6 9.454 9.454 0 0 0 2.5 1.5c-2.625 1.376-2.625 2.542 0 3.5z"/><path style="opacity:1" fill="#cfd4f3" d="M250.5 102.5c3.661-.15 4.661 1.35 3 4.5-3.793.487-4.793-1.013-3-4.5z"/><path style="opacity:1" fill="#f7fafd" d="M255.5 102.5c1.335 5.035 2.501 5.035 3.5 0a12.93 12.93 0 0 1 .5 5h-4v-5z"/><path style="opacity:1" fill="#9eb1e5" d="M174.5 100.5c1.225.652 1.892 1.819 2 3.5l-1 3.5a13.116 13.116 0 0 1-1-7z"/><path style="opacity:1" fill="#bdd2f4" d="M209.5 100.5c1.225.652 1.892 1.819 2 3.5l-1 3.5a4.457 4.457 0 0 1-1.5-2 7.248 7.248 0 0 1-2.5 2l-3-4-2 4c-1.032-1.54-2.365-2.04-4-1.5l2 1c-3.667.667-4.667-.667-3-4 2.336.772 4.669.606 7-.5 1.494.209 2.661.876 3.5 2 1.085-1.236 1.918-2.569 2.5-4z"/><path style="opacity:1" fill="#b4c5ee" d="M229.5 100.5h3a4.934 4.934 0 0 0 .5 3c3.669-1.509 5.169-.176 4.5 4-2.738.535-4.572-.465-5.5-3a6.802 6.802 0 0 1-1.5 3 13.116 13.116 0 0 1-1-7z"/><path style="opacity:1" fill="#d6e3f7" d="M244.5 102.5c1.241 2.431 2.408 2.431 3.5 0 .539 3.065-.461 5.398-3 7l-1.5-1 2-2a6.846 6.846 0 0 1-1-4z"/><path style="opacity:1" fill="#ccddf6" d="M180.5 106.5c.734-1.208 1.067-2.541 1-4 1.322-.17 2.489.163 3.5 1a6.802 6.802 0 0 1 1.5-3 168.028 168.028 0 0 1 2 6.5c-2.56.43-5.227.263-8-.5z"/><path style="opacity:1" fill="#dae3f3" d="M238.5 102.5a4.934 4.934 0 0 1 3 .5c-1.728 6.048-2.728 5.882-3-.5z"/><path style="opacity:1" fill="#ced5f0" d="M164.5 106.5c-.342.838-1.008 1.172-2 1h-3v-7c4.744-.272 6.411 1.728 5 6z"/><path style="opacity:1" fill="#ecf0fa" d="M191.5 102.5c3.098-.087 3.432.413 1 1.5 2.933 2.351 2.599 3.351-1 3 .466-1.299.466-2.799 0-4.5z"/><path style="opacity:1" fill="#bfd1f3" d="M213.5 102.5c2.562.871 5.228.871 8 0 .14 1.624-.527 2.79-2 3.5 2.563.763 2.563 1.263 0 1.5-1.905-.652-3.905-.819-6-.5-1.228-1.49-1.228-2.99 0-4.5z"/><path style="opacity:1" fill="#edeff9" d="M222.5 102.5a4.934 4.934 0 0 1 3 .5v4c-3.047.58-3.381.247-1-1-1.323-.816-1.989-1.983-2-3.5z"/><path style="opacity:1" fill="#d5e1f6" d="m169.5 109.5-1-6c1.542-.801 3.208-1.134 5-1a18.453 18.453 0 0 1-.5 6c-1.011.837-2.178 1.17-3.5 1z"/><path style="opacity:1" fill="#f5fbfc" d="M231.5 111.5a96.578 96.578 0 0 1 2 6.5l-1 .5a13.116 13.116 0 0 1-1-7z"/><path style="opacity:1" fill="#f7fafc" d="M247.5 111.5a96.578 96.578 0 0 1 2 6.5l-1 .5a13.116 13.116 0 0 1-1-7z"/><path style="opacity:1" fill="#c8d8f4" d="M177.5 113.5c2.222-.322 4.056.345 5.5 2 1.481-2.564 2.981-2.564 4.5 0-3.861 1.098-3.861 1.931 0 2.5-1.612.72-3.112.554-4.5-.5a4.457 4.457 0 0 1-1.5 2 10.258 10.258 0 0 1-1.5-4 6.802 6.802 0 0 1-1.5 3c-.952-1.545-1.285-3.212-1-5z"/><path style="opacity:1" fill="#dce7f7" d="M211.5 113.5c4.53.52 4.863 1.686 1 3.5l2 1c-3.793.487-4.793-1.013-3-4.5z"/><path style="opacity:1" fill="#d4dbe9" d="M161.5 113.5c1.149.291 1.816 1.124 2 2.5-.028 1.07-.361 1.903-1 2.5h-3c-.163-2.357.003-4.69.5-7 .278.916.778 1.582 1.5 2z"/><path style="opacity:1" fill="#a3bbed" d="M188.5 113.5c2.747-.313 5.414.02 8 1-1.333 1-1.333 2 0 3-2.606 1.152-5.273 1.318-8 .5l2-1c-1.323-.816-1.989-1.983-2-3.5z"/><path style="opacity:1" fill="#f4f7fc" d="M236.5 111.5c.967 1.306 2.301 1.973 4 2 .153 5.824-.513 6.157-2 1a10.258 10.258 0 0 0-1.5 4 24.935 24.935 0 0 1-.5-7z"/><path style="opacity:1" fill="#f8eff5" d="M165.5 113.5c1.335 5.035 2.501 5.035 3.5 0a12.93 12.93 0 0 1 .5 5h-4v-5z"/><path style="opacity:1" fill="#ccddf5" d="M201.5 113.5c.06-.543.393-.876 1-1a6.802 6.802 0 0 1 1.5 3c1.333-4 2.667-4 4 0a6.802 6.802 0 0 1 1.5-3l1 .5a20.48 20.48 0 0 1-3 5.5 4.457 4.457 0 0 1-1.5-2c-.71 1.473-1.876 2.14-3.5 2 .284-1.915-.049-3.581-1-5z"/><path style="opacity:1" fill="#c9daf4" d="M225.5 111.5c1.225.652 1.892 1.819 2 3.5-.422 4.331-1.255 4.498-2.5.5a6.802 6.802 0 0 1-1.5 3c-1-1.333-2-1.333-3 0-1.624-1.369-2.124-3.036-1.5-5 .626 2.491 1.459 2.491 2.5 0a4.457 4.457 0 0 1 1.5 2c1.085-1.236 1.918-2.569 2.5-4z"/><path style="opacity:1" fill="#d7e3f7" d="M242.5 113.5c4.53.52 4.863 1.686 1 3.5l2 1c-3.793.487-4.793-1.013-3-4.5z"/><path style="opacity:1" fill="#ecfafd" d="M228.5 111.5a96.578 96.578 0 0 1 2 6.5l-1 .5a13.116 13.116 0 0 1-1-7z"/><path style="opacity:1" fill="#aaccf2" d="M174.5 111.5c1.844 1.779 2.51 4.112 2 7a18.453 18.453 0 0 1-6-.5l2-1c-1.473-.71-2.14-1.876-2-3.5h3a4.934 4.934 0 0 0 .5 3 12.93 12.93 0 0 0 .5-5z"/><path style="opacity:1" fill="#d3dcf4" d="M250.5 113.5c2.412-.256 4.079.744 5 3a64.386 64.386 0 0 0-4.5 4 24.935 24.935 0 0 1-.5-7z"/><path style="opacity:1" fill="#cddbf4" d="M243.5 122.5h3c-2.182 8.965-3.182 8.965-3 0z"/><path style="opacity:1" fill="#c5d9f5" d="M186.5 124.5h3v5a4.934 4.934 0 0 1-3-.5c.466-1.299.466-2.799 0-4.5z"/><path style="opacity:1" fill="#a2b9ed" d="M168.5 124.5c2.357-.163 4.69.003 7 .5-1.655 1.444-2.322 3.278-2 5.5-5.426.916-7.093-1.084-5-6z"/><path style="opacity:1" fill="#bdcff2" d="M181.5 124.5c3.85.201 4.85 2.034 3 5.5a4.934 4.934 0 0 1-3 .5v-6z"/><path style="opacity:1" fill="#e2f0fb" d="M206.5 126.5c-.096 3.811-.762 3.811-2 0a6.802 6.802 0 0 0-1.5 3c-.399-.228-.565-.562-.5-1a18.453 18.453 0 0 1 .5-6c1.388 1.236 2.554 2.569 3.5 4z"/><path style="opacity:1" fill="#a0b8df" d="M159.5 122.5a57.959 57.959 0 0 0 6.5 3c.663 4.501.163 4.835-1.5 1-.886.825-1.219 1.825-1 3h-4v-7z"/><path style="opacity:1" fill="#e0eaf8" d="M191.5 124.5c2.962-.383 3.962.617 3 3a4.457 4.457 0 0 1-1.5-2c-.658 1.608-.158 2.775 1.5 3.5-3.793.487-4.793-1.013-3-4.5z"/><path style="opacity:1" fill="#ccdbf5" d="M223.5 124.5c1.517.011 2.684.677 3.5 2 .691-2.391 1.691-2.391 3 0l1-2c1 1.333 2 1.333 3 0 .624 1.964.124 3.631-1.5 5-1-1.333-2-1.333-3 0a4.457 4.457 0 0 1-1.5-2c-1.444 1.655-3.278 2.322-5.5 2-.134-1.792.199-3.458 1-5z"/><path style="opacity:1" fill="#bac5ef" d="M216.5 122.5h5a13.116 13.116 0 0 1-1 7c-1.333-4-2.667-4-4 0-1.214-2.359-1.214-4.692 0-7z"/><path style="opacity:1" fill="#d3daf4" d="M238.5 124.5c3.661-.15 4.661 1.35 3 4.5a8.43 8.43 0 0 1-4 .5c-.134-1.792.199-3.458 1-5z"/><path style="opacity:1" fill="#e2ecf8" d="M176.5 124.5c4.53.52 4.863 1.686 1 3.5l2 1c-3.832.514-4.832-.986-3-4.5z"/><path style="opacity:1" fill="#9cb1ea" d="M202.5 128.5c-.065.438.101.772.5 1a6.802 6.802 0 0 1 1.5-3c1.238 3.811 1.904 3.811 2 0 2.104-2.499 4.104-2.499 6 0-1.131 1.104-1.965.771-2.5-1a4.934 4.934 0 0 0-.5 3c3.297-.171 3.631.495 1 2a7.248 7.248 0 0 1-2.5-2c-2.47 1.987-5.303 2.487-8.5 1.5-1.091-2.064-1.258-4.231-.5-6.5a9.454 9.454 0 0 0 2.5 1.5c-1.485 1.756-1.152 2.923 1 3.5z"/><path style="opacity:1" fill="#e5ecf9" d="M183.5 135.5a18.453 18.453 0 0 1 6 .5c1.054 1.388 1.22 2.888.5 4.5-1-4-2-4-3 0-1-4-2-4-3 0a12.93 12.93 0 0 1-.5-5z"/><path style="opacity:1" fill="#ccd9f0" d="M160.5 135.5h5c.057 5.182.724 5.182 2 0 1.194 2.016 1.194 4.016 0 6-2.416-.461-4.25-1.794-5.5-4l-1.5 1c2.631 1.505 2.297 2.171-1 2-.134-1.792.199-3.458 1-5z"/><path style="opacity:1" fill="#c2d2f2" d="M173.5 134.5c.996-.086 1.829.248 2.5 1-.466 4.852.367 5.019 2.5.5 3.783-.531 4.783.969 3 4.5h-7a11.988 11.988 0 0 1-1-6z"/><path style="opacity:1" fill="#c4daf5" d="M169.5 135.5c1.175-.219 2.175.114 3 1-.552 1.503-.552 3.169 0 5-1.175.219-2.175-.114-3-1 .552-1.503.552-3.169 0-5z"/><path style="opacity:1" fill="#9db7ec" d="M192.5 135.5c2.371.842 4.704 1.176 7 1a9.108 9.108 0 0 0-1 5c-5.909 1.426-7.909-.574-6-6z"/><path style="opacity:1" fill="#c6d6f3" d="M201.5 135.5c1.175-.219 2.175.114 3 1-1.333 1-1.333 2 0 3-.963 1.99-2.296 2.323-4 1a4.457 4.457 0 0 1 2-1.5c-2.227-.704-2.56-1.871-1-3.5z"/><path style="opacity:1" fill="#1859ac" d="M99.5 73.5c22.473-1.844 39.64 6.49 51.5 25a1261.566 1261.566 0 0 1 7.5 22.5c.473 3.999-.194 7.999-2 12l1 3a6001.374 6001.374 0 0 0-8.5 17.5 291.442 291.442 0 0 0-14.5 14c-23.875 12.809-45.709 10.142-65.5-8-2.68-4.823-5.846-9.156-9.5-13-7.064-18.958-4.564-36.625 7.5-53 4.747-5.56 9.914-10.56 15.5-15 5.58-2.307 11.246-3.974 17-5z"/><path style="opacity:1" fill="#288a78" d="M64.5 147.5a54.191 54.191 0 0 1-4-11c.235-.597.735-.93 1.5-1 3.176.234 5.676 1.568 7.5 4a19.514 19.514 0 0 0-3 7c-.457.798-1.124 1.131-2 1z"/><path style="opacity:1" fill="#199f24" d="M98.5 114.5c2.667 1.333 5.333 1.333 8 0l7 2c-.876-.131-1.543.202-2 1a153.742 153.742 0 0 0 7 9.5 14.72 14.72 0 0 1 5 1.5 46.29 46.29 0 0 1-7 9 44.093 44.093 0 0 0-2 3 3.647 3.647 0 0 1-1.5-1 14.845 14.845 0 0 1-6.5 2c-1.972-.657-3.805-.657-5.5 0-.278-.916-.778-1.582-1.5-2a42.794 42.794 0 0 1-3-7.5c-2.513-1.252-5.18-1.752-8-1.5 1.141-.839 2.475-1.506 4-2-.069-5.674 1.931-10.34 6-14z"/><path style="opacity:1" fill="#1d9a38" d="M127.5 117.5c-2.327.253-4.327-.414-6-2l-1 1c1.559 1.631 3.559 2.464 6 2.5 1.333 1.333 1.333 2.667 0 4-3.192 2.781-6.358 2.948-9.5.5l-3.5-7-7-2h7v-3c-2.544.396-4.711-.271-6.5-2a4.457 4.457 0 0 1-1.5 2 26.396 26.396 0 0 0-5-5c2.074-.514 4.408-1.514 7-3 1.529.029 2.696.696 3.5 2 1.388-1.054 2.888-1.22 4.5-.5a14.587 14.587 0 0 0 6 4c1.946 4.935 5.612 7.602 11 8a12.93 12.93 0 0 1-5 .5z"/><path style="opacity:1" fill="#1d6ea5" d="M137.5 89.5a2.429 2.429 0 0 1-.5 2l-2.5-3c-.886.825-1.219 1.825-1 3-3.871-.315-7.538.018-11 1a11.99 11.99 0 0 0-6 1 8.189 8.189 0 0 0-4-2.5c-6.626-1.73-12.293-.23-17 4.5-1.021.502-1.188 1.168-.5 2 1.962-.47 3.795.197 5.5 2 1.189-2.367 2.856-4.367 5-6-.809 1.387-.809 3.054 0 5-2.391 2.142-5.057 2.475-8 1a10.939 10.939 0 0 0-4.5 3 367.868 367.868 0 0 0-4.5-5c-.924 1.89-2.257 3.39-4 4.5 6.243 1.995 6.743 3.828 1.5 5.5a8.435 8.435 0 0 0-.5 4c1.7.16 3.366-.006 5-.5 4.362-4.721 7.695-4.554 10 .5a4.457 4.457 0 0 0 2-1.5l-3-3c.228-.399.562-.565 1-.5a26.396 26.396 0 0 1 5 5 4.457 4.457 0 0 0 1.5-2c1.789 1.729 3.956 2.396 6.5 2v3h-7c-2.667 1.333-5.333 1.333-8 0v-3c-7.582-.99-13.416 1.676-17.5 8-1.443 4.712-.276 8.545 3.5 11.5 1.566.765 2.9.598 4-.5 2.82-.252 5.487.248 8 1.5a42.794 42.794 0 0 0 3 7.5c-.02 1.56-.352 3.06-1 4.5a358.778 358.778 0 0 1 4 11.5c3.47.625 6.304-.375 8.5-3a31.374 31.374 0 0 1 6.5-10 9.108 9.108 0 0 1-1-5 46.29 46.29 0 0 0 7-9 14.72 14.72 0 0 0-5-1.5 153.742 153.742 0 0 1-7-9.5c.457-.798 1.124-1.131 2-1l3.5 7c3.142 2.448 6.308 2.281 9.5-.5 1.333-1.333 1.333-2.667 0-4-2.441-.036-4.441-.869-6-2.5l1-1c1.673 1.586 3.673 2.253 6 2a28.557 28.557 0 0 1 8 3c.679 3.014 2.179 5.68 4.5 8 .907-3.072 2.74-5.405 5.5-7 .65-.304 1.317-.637 2-1 5.642 8.088 7.642 6.754 6-4 2.777 26.942-8.556 45.109-34 54.5-24.143 5.244-42.477-2.589-55-23.5.876.131 1.543-.202 2-1a19.514 19.514 0 0 1 3-7c-1.824-2.432-4.324-3.766-7.5-4-.765.07-1.265.403-1.5 1-4.489-28.02 6.511-47.186 33-57.5 16.679-4.066 31.345-.566 44 10.5z"/><path style="opacity:1" fill="#259351" d="M121.5 141.5c.997 2.505.997 5.172 0 8h-3c-.484-3.288.516-5.955 3-8z"/><path style="opacity:1" fill="#209547" d="M116.5 137.5a9.108 9.108 0 0 0 1 5 31.374 31.374 0 0 0-6.5 10c-2.196 2.625-5.03 3.625-8.5 3a358.778 358.778 0 0 0-4-11.5c.648-1.44.98-2.94 1-4.5.722.418 1.222 1.084 1.5 2 1.695-.657 3.528-.657 5.5 0a14.845 14.845 0 0 0 6.5-2c.414.457.914.791 1.5 1a44.093 44.093 0 0 1 2-3z"/><path style="opacity:1" fill="#1e9742" d="M98.5 114.5c-4.069 3.66-6.069 8.326-6 14-1.525.494-2.859 1.161-4 2-1.1 1.098-2.434 1.265-4 .5-3.776-2.955-4.943-6.788-3.5-11.5 4.084-6.324 9.918-8.99 17.5-8v3z"/><path style="opacity:1" fill="#21944d" d="M135.5 120.5a28.557 28.557 0 0 0-8-3 12.93 12.93 0 0 0 5-.5c-5.388-.398-9.054-3.065-11-8a14.587 14.587 0 0 1-6-4c-1.612-.72-3.112-.554-4.5.5-.804-1.304-1.971-1.971-3.5-2-2.592 1.486-4.926 2.486-7 3-.438-.065-.772.101-1 .5l3 3a4.457 4.457 0 0 1-2 1.5c-2.305-5.054-5.638-5.221-10-.5-1.634.494-3.3.66-5 .5a8.435 8.435 0 0 1 .5-4c5.243-1.672 4.743-3.505-1.5-5.5 1.743-1.11 3.076-2.61 4-4.5 1.49 1.626 2.99 3.292 4.5 5a10.939 10.939 0 0 1 4.5-3c2.943 1.475 5.609 1.142 8-1 3.089-.406 5.755-1.74 8-4l2 .5c-1.333.667-1.333 1.333 0 2 11.833 3.96 18.5 11.793 20 23.5z"/><path style="opacity:1" fill="#238f60" d="M122.5 92.5h6a4.934 4.934 0 0 0 .5 3l1-1c8.313 7.304 13.48 16.304 15.5 27-2.76 1.595-4.593 3.928-5.5 7-2.321-2.32-3.821-4.986-4.5-8-1.5-11.707-8.167-19.54-20-23.5-1.333-.667-1.333-1.333 0-2l-2-.5c-2.245 2.26-4.911 3.594-8 4-.809-1.946-.809-3.613 0-5-2.144 1.633-3.811 3.633-5 6-1.705-1.803-3.538-2.47-5.5-2-.688-.832-.521-1.498.5-2 4.707-4.73 10.374-6.23 17-4.5a8.189 8.189 0 0 1 4 2.5 11.99 11.99 0 0 1 6-1z"/><path style="opacity:1" fill="#278b73" d="M137.5 89.5c8.654 6.966 13.987 15.966 16 27 1.642 10.754-.358 12.088-6 4-.683.363-1.35.696-2 1-2.02-10.696-7.187-19.696-15.5-27l-1 1a4.934 4.934 0 0 1-.5-3h-6c3.462-.982 7.129-1.315 11-1-.219-1.175.114-2.175 1-3l2.5 3a2.429 2.429 0 0 0 .5-2z"/><path style="opacity:1" fill="#ee931a" d="M160.5 155.5c32.002-.167 64.002 0 96 .5l1.5 1.5a90.455 90.455 0 0 1 0 19l-1.5 1.5c-32 .667-64 .667-96 0l-1.5-1.5a90.455 90.455 0 0 1 0-19c.717-.544 1.217-1.211 1.5-2z"/><path style="opacity:1" fill="#ffd5a7" d="M189.5 168.5a33.871 33.871 0 0 1-5.5 1c-3.069-1.375-3.236-3.041-.5-5a7.248 7.248 0 0 1 2.5 2l1-1c.236 1.619 1.069 2.619 2.5 3z"/><path style="opacity:1" fill="#fdd8a5" d="M189.5 168.5v-4c5.207-.56 6.207 1.107 3 5a6.802 6.802 0 0 1-1.5-3c-.278.916-.778 1.582-1.5 2z"/><path style="opacity:1" fill="#fddaaa" d="M165.5 164.5c2.618.279 5.118.946 7.5 2l1-1c.976 3.752.31 4.418-2 2-.71 1.473-1.876 2.14-3.5 2-.16-3.736-.993-3.736-2.5 0a12.93 12.93 0 0 1-.5-5z"/><path style="opacity:1" fill="#ffd9aa" d="M176.5 164.5c2.889.499 3.556 1.999 2 4.5a4.934 4.934 0 0 1-3 .5c-.134-1.792.199-3.458 1-5z"/><path style="opacity:1" fill="#fdd5a0" d="M195.5 164.5c2.436-.183 4.603.484 6.5 2 1.584-1.361 3.418-2.028 5.5-2 .14 1.624-.527 2.79-2 3.5 2.621.906 2.454 1.406-.5 1.5-1.326-.255-2.326-.922-3-2-1.418 2.501-2.418 2.168-3-1a6.802 6.802 0 0 1-1.5 3 11.637 11.637 0 0 1-2-5z"/><path style="opacity:1" fill="#fdd69f" d="M210.5 164.5c.768.763 1.268 1.763 1.5 3 1.869-3.191 4.369-3.858 7.5-2-.17 1.322.163 2.489 1 3.5l-9.5.5-1.5-.5c-.03-1.429.303-2.929 1-4.5z"/><path style="opacity:1" fill="#fed69e" d="M224.5 164.5c2.579-.417 4.746.25 6.5 2 1.667-2.667 3.333-2.667 5 0 1.268-.116 2.602-.449 4-1 .781 1.444.614 2.777-.5 4-1.041-2.491-1.874-2.491-2.5 0a47.26 47.26 0 0 0-7 0c-1-4-2-4-3 0-.424-3.69-1.258-3.857-2.5-.5a4.934 4.934 0 0 1-3 .5c-.043-4.393.457-4.726 1.5-1 .41-1.401.91-2.734 1.5-4z"/><path style="opacity:1" fill="#fdcf93" d="M245.5 163.5c4.3.315 5.967 2.649 5 7-5.747.629-7.414-1.705-5-7z"/><path style="opacity:1" fill="#fcfcfd" d="M479.5 188.5v81H-.5v-80a37132.148 37132.148 0 0 0 470 .5c3.354-.455 6.687-.955 10-1.5z"/><path style="opacity:1" fill="#f1f1f1" d="M97.5 234.5c-1.442 1.32-2.109 2.986-2 5l-2 3a24.939 24.939 0 0 0-.5-7c-1.011-.837-2.178-1.17-3.5-1 .219-1.175-.114-2.175-1-3a31.12 31.12 0 0 0-1 11h-2c-1.34-1.62-3.174-2.62-5.5-3-.667-1.333-.667-2.667 0-4 1.825-.603 3.659-1.27 5.5-2-4.192-1.82-6.859-.487-8 4 .802 3.137 2.802 4.804 6 5-1.122 1.552-1.622 3.218-1.5 5a3.647 3.647 0 0 1 1.5-1 19.885 19.885 0 0 0 4 3.5c-1.049.492-2.049.326-3-.5-1.021.502-1.188 1.168-.5 2 1.7.906 3.533 1.239 5.5 1a4.932 4.932 0 0 1-.5 3c-1.333-1.333-2.667-1.333-4 0a20.428 20.428 0 0 0-7-5c-3.944 2.761-7.777 2.594-11.5-.5 1.57-1.836 3.07-1.67 4.5.5l1.5-1c-.88-1.471-2.214-2.304-4-2.5 1.238-.69 1.238-1.19 0-1.5 2.583-3.429 3.916-7.095 4-11-1.47.881-2.304 2.214-2.5 4-.424-2.115-1.591-2.948-3.5-2.5 2.46 3.264 2.46 6.43 0 9.5a20.512 20.512 0 0 0-6-3c.643-7.774 1.81-7.774 3.5 0a12.5 12.5 0 0 0 0-7c-1.011-.837-2.178-1.17-3.5-1-.667-4-1.333-4-2 0l-2 2c.268-1.599-.066-2.932-1-4 .11-.617.444-1.117 1-1.5-2.683-1.845-4.35-4.345-5-7.5-2.066 4.006-3.566 3.673-4.5-1l-2 2a265.061 265.061 0 0 1-.5-13h-3a8.435 8.435 0 0 1 .5-4c4.56-1.189 6.726-4.189 6.5-9a9.86 9.86 0 0 1 6-1 8.435 8.435 0 0 0-.5-4c-1.099 2.544-2.265 2.544-3.5 0a963.544 963.544 0 0 1 76-.5c-2.765.421-3.932 1.921-3.5 4.5a32.367 32.367 0 0 0 4.5-3l1 1-2 2c1.141.925 1.141 1.759 0 2.5-4.358-.843-8.358.157-12 3 1 2 2 2 3 0 1.667-.667 3.333-.667 5 0l-4.5 4.5c-6.967-.554-11.467 2.779-13.5 10-4.706 3.731-6.873 8.398-6.5 14l-3-5c.25 3.241 1.084 5.908 2.5 8z"/><path style="opacity:1" fill="#f0efef" d="M389.5 234.5c-3.275 4.225-2.275 6.892 3 8-5.182 1.276-5.182 1.943 0 2-1.419.951-3.085 1.284-5 1 .237-1.291-.096-2.291-1-3-2.999-13.332-5.999-13.332-9 0-.641.982-1.307 1.982-2 3 1.333 1.333 1.333 2.667 0 4a27.332 27.332 0 0 1 3.5 6l3-4c.979 5.19-1.187 7.856-6.5 8 .42-2.174.42-4.174 0-6a10.408 10.408 0 0 1-5 3c-1.333-1.333-2.667-1.333-4 0a9.86 9.86 0 0 1-1-6h-3v-3c-1.175.219-2.175-.114-3-1 1.307-1.365 1.307-2.698 0-4 .643-7.774 1.81-7.774 3.5 0a12.494 12.494 0 0 0 0-7c-1.943-1.307-3.777-1.307-5.5 0l-2 7a13.116 13.116 0 0 0-1-7c-.952 1.545-1.285 3.212-1 5l-2 2a89.247 89.247 0 0 0-2-4 7.293 7.293 0 0 1 2-3l-3-3c-1.251 3.374-1.251 6.707 0 10-.982.641-1.982 1.307-3 2-.287-.7-.62-1.367-1-2-.381-1.431-1.381-2.264-3-2.5a8.43 8.43 0 0 1 4-.5c.005-3.5-1.662-5-5-4.5-2.586 2.494-2.586 4.994 0 7.5-.271 1.052-.438 2.385-.5 4l-1-2c-1.11 1.743-2.61 3.076-4.5 4 2.034 2.401 2.201 5.068.5 8-1.612 2.579-3.112 2.579-4.5 0a3.647 3.647 0 0 1 1-1.5c-5.466-5.241-7.966-11.741-7.5-19.5-.191 2.208-.691 4.208-1.5 6v-6a12.93 12.93 0 0 0-5 .5c3.833.604 3.833 1.437 0 2.5a31.894 31.894 0 0 1-1.5-6c-.179 3.525-.679 6.859-1.5 10a25.879 25.879 0 0 0-1-10c-1.461 1.97-3.127 3.637-5 5 .303-3.088-1.03-4.754-4-5v10c-.819-2.805-1.319-5.805-1.5-9-.893 1.211-1.726 1.211-2.5 0l2-2c-1.2-.792-2.533-.792-4 0-2.342 3.271-2.676 6.938-1 11a19.602 19.602 0 0 0-2 3.5c1.017 1.049 1.184 2.216.5 3.5-2.487 3.318-5.654 5.151-9.5 5.5a36.078 36.078 0 0 1-4.5-3.5 7.492 7.492 0 0 1-.5 5c-1.109-1.09-2.109-1.09-3 0l4 2a1051.593 1051.593 0 0 1-60 1l-13-1c-1.548-3.451-3.548-3.784-6-1a10.258 10.258 0 0 0 4 1.5 84.902 84.902 0 0 1-13 .5v-3c-2.412.256-4.079-.744-5-3 1.756.14 3.422-.36 5-1.5-2.003-2.789-3.336-5.955-4-9.5 1.102-5.23 1.935-5.23 2.5 0 .179-3.525.679-6.859 1.5-10 2.131-.814 4.464-1.314 7-1.5-5.234-.547-5.234-1.38 0-2.5 1.812-5.314 4.979-9.647 9.5-13 .368 1.41 1.201 2.41 2.5 3 2.44-.738 4.44-2.071 6-4a9.258 9.258 0 0 0 2.5 2 26.433 26.433 0 0 1 6.5-3c2.393 1.777 4.06 4.11 5 7 1.564-.686 3.231-.519 5 .5 2.52 4.026 5.686 4.526 9.5 1.5l3 2 1.5-1c-1.145-1.391-1.145-2.724 0-4 1.611.82 2.278 2.154 2 4 2.357-.163 4.69.003 7 .5a3.647 3.647 0 0 0-1 1.5l4 1 2 4c1.006-.438 1.006-1.104 0-2l4-2c-.891-1.09-1.891-1.09-3 0l-3-3a128.49 128.49 0 0 1 7-.5 20.532 20.532 0 0 0-4.5-2.5c-.651-1.735-.485-3.402.5-5-1.571-1.915-3.571-2.915-6-3-.02 1.643.647 2.976 2 4l-1 1c-3.621-1.631-6.621-3.965-9-7a130.172 130.172 0 0 0 9.5-6c1.984.241 3.817.908 5.5 2 .498 1.103.831 2.103 1 3 4.652-.638 4.986-2.471 1-5.5.949-.617 1.782-.451 2.5.5a4.934 4.934 0 0 0 .5-3c-1.984.117-3.65-.55-5-2-1.867 2.729-2.867 2.396-3-1-2.544.396-4.711-.271-6.5-2a13.271 13.271 0 0 0-5.5 5 14.972 14.972 0 0 0 3 3.5c-1.693 2.952-3.526 3.118-5.5.5v4l-4 2c-1.008-.482-2.175-.648-3.5-.5a3.647 3.647 0 0 0 1-1.5c-1.789-1.123-2.122-2.456-1-4 1.26 2.609 2.26 2.443 3-.5a20.225 20.225 0 0 1-3-4.5c-1-1.333-2-1.333-3 0 1.333 1.12 1.833 2.453 1.5 4a21.458 21.458 0 0 1-6.5-3.5c1.905-.826 2.239-1.993 1-3.5a184.63 184.63 0 0 1-15 7.5 14.748 14.748 0 0 0-3 4.5l-2-2a28.071 28.071 0 0 0-5 5 28.043 28.043 0 0 0-5-1.5c-1.377-1.973-2.543-3.806-3.5-5.5 4.811-.546 9.644-.879 14.5-1 1.096-2.013.763-3.846-1-5.5 1.175-4.268.342-4.435-2.5-.5a4.457 4.457 0 0 1-1.5-2 37.714 37.714 0 0 1 8-3.5c61.666-.5 123.332-.667 185-.5.009 1.808-.491 3.475-1.5 5-3.454-3.912-4.288-3.912-2.5 0-2.062 1.592-2.395 3.425-1 5.5-2.423 1.571-3.756 3.737-4 6.5-2.266-.359-4.099.308-5.5 2-1.101-1.894-2.434-2.561-4-2-.131-3.892-1.631-4.725-4.5-2.5a20.431 20.431 0 0 1 1.5 5.5c1.458-2.024 3.291-2.191 5.5-.5 2.353 6.252 3.686 12.752 4 19.5h-5c-.237 1.291.096 2.291 1 3z"/><path style="opacity:1" fill="#191c24" d="M428.5 231.5c5.85.557 6.517 2.89 2 7l-1-1 2-3c-1.493-.641-2.493-1.641-3-3z"/><path style="opacity:1" fill="#170f1e" d="M169.5 231.5c1.837.139 2.17.806 1 2-.798-.457-1.131-1.124-1-2z"/><path style="opacity:1" fill="#190f18" d="M265.5 231.5c1.837.139 2.17.806 1 2-.798-.457-1.131-1.124-1-2z"/><path style="opacity:1" fill="#141220" d="M353.5 231.5c1.837.139 2.17.806 1 2-.798-.457-1.131-1.124-1-2z"/><path style="opacity:1" fill="#212129" d="M308.5 237.5c-.617-.111-1.117-.444-1.5-1-.002 2.551-.836 4.551-2.5 6v-10c2.97.246 4.303 1.912 4 5z"/><path style="opacity:1" fill="#1a191d" d="M314.5 242.5a168.522 168.522 0 0 1-2-6 25.866 25.866 0 0 0-3 5c-.929-1.189-1.262-2.522-1-4 1.873-1.363 3.539-3.03 5-5a25.879 25.879 0 0 1 1 10z"/><path style="opacity:1" fill="#242222" d="M85.5 242.5h-2c-3.198-.196-5.198-1.863-6-5 1.141-4.487 3.808-5.82 8-4-1.841.73-3.675 1.397-5.5 2-.667 1.333-.667 2.667 0 4 2.326.38 4.16 1.38 5.5 3z"/><path style="opacity:1" fill="#191b22" d="M105.5 235.5c6.055-.558 7.388 1.609 4 6.5-4.709.082-6.042-2.085-4-6.5z"/><path style="opacity:1" fill="#050506" d="M141.5 235.5c4.338.122 4.672.455 1 1a18.453 18.453 0 0 1-.5 6 24.935 24.935 0 0 1-.5-7z"/><path style="opacity:1" fill="#343235" d="M148.5 234.5c3.333 0 5 1.667 5 5-4.541-.169-4.874.498-1 2-6.097.714-7.431-1.619-4-7z"/><path style="opacity:1" fill="#26292f" d="M163.5 232.5c3.887 1.157 4.554 3.157 2 6a7.293 7.293 0 0 0 2 3c-1.151 1.231-2.317 1.231-3.5 0a40.914 40.914 0 0 1-.5-9z"/><path style="opacity:1" fill="#050507" d="M211.5 235.5c4.338.122 4.672.455 1 1a18.453 18.453 0 0 1-.5 6 24.935 24.935 0 0 1-.5-7z"/><path style="opacity:1" fill="#29292f" d="M237.5 234.5c1.536 1.525 2.536 3.525 3 6l2-6a16.873 16.873 0 0 1 1 8c-1.967.239-3.801-.094-5.5-1a24.935 24.935 0 0 1-.5-7z"/><path style="opacity:1" fill="#0f0d0f" d="M271.5 235.5h4v8c-1.446 1.113-3.113 1.28-5 .5 5.073-1.116 4.906-2.283-.5-3.5-.877-2.174-.377-3.841 1.5-5z"/><path style="opacity:1" fill="#212127" d="M282.5 232.5c3.887 1.157 4.554 3.157 2 6a7.293 7.293 0 0 0 2 3c-1.151 1.231-2.317 1.231-3.5 0a40.914 40.914 0 0 1-.5-9z"/><path style="opacity:1" fill="#333235" d="M344.5 242.5h-4c-2.586-2.506-2.586-5.006 0-7.5 3.338-.5 5.005 1 5 4.5a8.43 8.43 0 0 0-4 .5c1.619.236 2.619 1.069 3 2.5z"/><path style="opacity:1" fill="#2b2a2c" d="M404.5 235.5c6.385-1.286 8.385 1.047 6 7a9.86 9.86 0 0 1-1-6h-3a9.86 9.86 0 0 1-1 6 13.116 13.116 0 0 1-1-7z"/><path style="opacity:1" fill="#2a2a2d" d="M114.5 234.5c3.956.553 3.956 1.386 0 2.5 5.073 2.227 5.073 4.06 0 5.5l-2-1a6.802 6.802 0 0 1 3-1.5c-2.135-1.556-2.468-3.389-1-5.5z"/><path style="opacity:1" fill="#333437" d="M155.5 236.5c4.993-2.181 6.827-.514 5.5 5-1.726 1.076-3.559 1.243-5.5.5-1.206-2.709-.206-4.375 3-5a4.934 4.934 0 0 0-3-.5z"/><path style="opacity:1" fill="#222327" d="M203.5 235.5c6.055-.558 7.388 1.609 4 6.5-4.93.427-6.263-1.74-4-6.5z"/><path style="opacity:1" fill="#292a2f" d="M219.5 233.5c2.166-.759 3.666.241 4.5 3 .732-2.423 2.232-3.59 4.5-3.5a24.348 24.348 0 0 0-4 9.5c-.918-3.51-2.584-6.51-5-9z"/><path style="opacity:1" fill="#202123" d="M351.5 242.5h-3c-1.251-3.293-1.251-6.626 0-10l3 3a7.293 7.293 0 0 0-2 3 89.247 89.247 0 0 1 2 4z"/><path style="opacity:1" fill="#272122" d="M359.5 242.5c-1.844-1.779-2.51-4.112-2-7 1.723-1.307 3.557-1.307 5.5 0a12.494 12.494 0 0 1 0 7c-1.69-7.774-2.857-7.774-3.5 0z"/><path style="opacity:1" fill="#2c282c" d="M55.5 232.5c.934 1.068 1.268 2.401 1 4-1.178 7.198-3.011 7.532-5.5 1-.687 2.055-1.854 3.721-3.5 5-.875-3.04-1.875-6.04-3-9 .825-.886 1.825-1.219 3-1-.415 7.38.585 7.713 3 1 1.435 1.324 2.435 2.99 3 5a168.724 168.724 0 0 1 2-6z"/><path style="opacity:1" fill="#231f25" d="M60.5 242.5c-1.869-2.135-2.536-4.802-2-8 .667-4 1.333-4 2 0 1.322-.17 2.489.163 3.5 1a12.5 12.5 0 0 1 0 7c-1.69-7.774-2.857-7.774-3.5 0z"/><path style="opacity:1" fill="#383537" d="M121.5 234.5c3.333 0 5 1.667 5 5-5.182.057-5.182.724 0 2-6.711 1.288-8.377-1.045-5-7z"/><path style="opacity:1" fill="#271e24" d="M182.5 235.5h6c-.13 8.465-1.13 8.799-3 1-1.87 7.799-2.87 7.465-3-1z"/><path style="opacity:1" fill="#1f232a" d="M194.5 232.5c6.197-.175 6.863.825 2 3 5.194 1.558 5.194 2.558 0 3 .262 1.478-.071 2.811-1 4a25.879 25.879 0 0 1-1-10z"/><path style="opacity:1" fill="#d4d2d0" d="M204.5 236.5c3.361.703 3.694 2.037 1 4-2.142-.937-2.476-2.27-1-4z"/><path style="opacity:1" fill="#25232a" d="M298.5 231.5a28.819 28.819 0 0 0 1 10c-.457.798-1.124 1.131-2 1-1.676-4.062-1.342-7.729 1-11z"/><path style="opacity:1" fill="#2f3137" d="M398.5 234.5c3.333 0 5 1.667 5 5-5.824-.153-6.157.513-1 2-6.097.714-7.431-1.619-4-7z"/><path style="opacity:1" fill="#28262c" d="M93.5 242.5c-1.536-1.525-2.536-3.525-3-6-.464 2.475-1.464 4.475-3 6a31.12 31.12 0 0 1 1-11c.886.825 1.219 1.825 1 3 1.322-.17 2.489.163 3.5 1 .497 2.31.663 4.643.5 7z"/><path style="opacity:1" fill="#282426" d="M133.5 232.5c7.007.454 7.341 1.287 1 2.5-1.803 4.547-.137 6.547 5 6-4.683 2.792-7.35 1.458-8-4 .019-1.833.685-3.333 2-4.5z"/><path style="opacity:1" fill="#242131" d="M169.5 235.5c1.225.652 1.892 1.819 2 3.5l-1 3.5a13.116 13.116 0 0 1-1-7z"/><path style="opacity:1" fill="#241d23" d="M245.5 235.5a12.93 12.93 0 0 1 5 .5 4.934 4.934 0 0 1-3 .5 9.86 9.86 0 0 1-1 6 13.116 13.116 0 0 1-1-7z"/><path style="opacity:1" fill="#362623" d="M265.5 235.5c1.225.652 1.892 1.819 2 3.5l-1 3.5a13.116 13.116 0 0 1-1-7z"/><path style="opacity:1" fill="#b9ada9" d="M271.5 236.5h3v4h-3v-4z"/><path style="opacity:1" fill="#495c6e" d="M275.5 243.5v-8h-4c2.993-.487 5.66-1.821 8-4l1 1c.116 3.214-.218 6.547-1 10a34.251 34.251 0 0 1-1.5-8c-1.074 3-1.907 6-2.5 9z"/><path style="opacity:1" fill="#1d1d22" d="M288.5 236.5c5.336-2.004 7.336-.004 6 6-1.967.239-3.801-.094-5.5-1-.373-3.358.461-3.692 2.5-1 .929-1.189 1.262-2.522 1-4h-4z"/><path style="opacity:1" fill="#435664" d="M325.5 235.5c1.478-.262 2.811.071 4 1a20.035 20.035 0 0 0-3 6 13.116 13.116 0 0 1-1-7z"/><path style="opacity:1" fill="#24232c" d="M355.5 242.5c-1.333 0-2-.667-2-2-.285-1.788.048-3.455 1-5a13.116 13.116 0 0 1 1 7z"/><path style="opacity:1" fill="#2a2930" d="M386.5 242.5a31.505 31.505 0 0 0-4.5-2 31.505 31.505 0 0 0-4.5 2c3.001-13.332 6.001-13.332 9 0z"/><path style="opacity:1" fill="#dbd8d4" d="M106.5 236.5c2.412.194 3.412 1.527 3 4h-3v-4z"/><path style="opacity:1" fill="#1e1e24" d="M255.5 232.5c7.047-.799 9.381 2.035 7 8.5-2.177 1.202-4.511 1.702-7 1.5v-10z"/><path style="opacity:1" fill="#f0efeb" d="M257.5 234.5c3.85.201 4.85 2.034 3 5.5a4.934 4.934 0 0 1-3 .5v-6z"/><path style="opacity:1" fill="#2a292a" d="M322.5 241.5c-1.446 1.113-3.113 1.28-5 .5-1.291-1.292-1.291-2.458 0-3.5 3.833-1.063 3.833-1.896 0-2.5a12.93 12.93 0 0 1 5-.5v6z"/><path style="opacity:1" fill="#282a31" d="M331.5 231.5c1.617 1.089 2.45 2.756 2.5 5 3.49-2.51 3.99-2.01 1.5 1.5 2.555 4.946 1.888 5.446-2 1.5a6.802 6.802 0 0 0-1.5 3 60.931 60.931 0 0 1-.5-11z"/><path style="opacity:1" fill="#2e2d34" d="M68.5 245.5h-2c2.46-3.07 2.46-6.236 0-9.5 1.909-.448 3.076.385 3.5 2.5.196-1.786 1.03-3.119 2.5-4-.084 3.905-1.417 7.571-4 11z"/><path style="opacity:1" fill="#1d1c24" d="M97.5 234.5c3.987.152 5.487 2.152 4.5 6-2.61 2.743-4.778 2.41-6.5-1-.109-2.014.558-3.68 2-5z"/><path style="opacity:1" fill="#dbdbd9" d="M97.5 236.5h3v4h-3v-4z"/><path style="opacity:1" fill="#1d1d23" d="M175.5 234.5c2.852-.148 4.519 1.186 5 4-2.333 5.333-4.667 5.333-7 0 .252-1.573.918-2.906 2-4z"/><path style="opacity:1" fill="#dbdbd8" d="M175.5 236.5h3v4h-3v-4z"/><path style="opacity:1" fill="#1c1b20" d="M230.5 234.5c2.852-.148 4.519 1.186 5 4-2.333 5.333-4.667 5.333-7 0 .252-1.573.918-2.906 2-4z"/><path style="opacity:1" fill="#d9d3cb" d="M230.5 236.5h3v4h-3v-4z"/><path style="opacity:1" fill="#1f1c20" d="M367.5 234.5c1.644-.214 3.144.12 4.5 1 .777 2.929.61 5.763-.5 8.5-1.667.667-3.333.667-5 0 5.073-1.116 4.906-2.283-.5-3.5-.748-2.34-.248-4.34 1.5-6z"/><path style="opacity:1" fill="#cfc8c1" d="M368.5 236.5c1.086.12 1.753.787 2 2-.804 2.457-1.804 2.457-3 0 .363-.683.696-1.35 1-2z"/><path style="opacity:1" fill="#211c1f" d="M389.5 234.5c1.644-.214 3.144.12 4.5 1a16.242 16.242 0 0 1 0 8c-.383.556-.883.889-1.5 1-5.182-.057-5.182-.724 0-2-5.275-1.108-6.275-3.775-3-8z"/><path style="opacity:1" fill="#d1cbc5" d="M390.5 236.5c1.086.12 1.753.787 2 2-.804 2.457-1.804 2.457-3 0 .363-.683.696-1.35 1-2z"/><path style="opacity:1" fill="#211f23" d="M415.5 234.5c1.175-.219 2.175.114 3 1-5.333 2-5.333 4 0 6-2.974 1.678-4.641.845-5-2.5.019-1.833.685-3.333 2-4.5z"/><path style="opacity:1" fill="#222128" d="M420.5 235.5c1.443.835 2.443 2.168 3 4l2-4 1 1.5a54.237 54.237 0 0 0-2.5 6.5c-1.241 1.921-2.741 2.254-4.5 1 .825-.886 1.825-1.219 3-1a53.76 53.76 0 0 0-2-8z"/></svg>